<svg xmlns="http://www.w3.org/2000/svg" xmlns:xlink="http://www.w3.org/1999/xlink" width="109.992" height="121.333" viewBox="0 0 109.992 121.333">
  <defs>
    <clipPath id="clip-path">
      <rect id="Rect치ngulo_377751" data-name="Rect치ngulo 377751" width="68.935" height="94.772" fill="#fff"/>
    </clipPath>
  </defs>
  <g id="Grupo_1073526" data-name="Grupo 1073526" transform="translate(11889.192 12003.021)">
    <path id="Uni칩n_44" data-name="Uni칩n 44" d="M12825.9,11832.6l-37.685-21.453a17.367,17.367,0,0,1-8.747-14.938l-.262-43.365a17.358,17.358,0,0,1,8.563-15.041l37.423-21.909a17.356,17.356,0,0,1,17.31-.107l37.685,21.457a17.347,17.347,0,0,1,8.747,14.938l.266,43.362a17.362,17.362,0,0,1-8.566,15.042l-.161-.271.161.271-37.423,21.909a17.286,17.286,0,0,1-7.835,2.342c-.3.016-.609.024-.914.024A17.31,17.31,0,0,1,12825.9,11832.6Z" transform="translate(-24668.395 -23716.553)" fill="#264100"/>
    <g id="Grupo_1073525" data-name="Grupo 1073525" transform="translate(-11868.664 -11989.742)">
      <g id="Grupo_1073523" data-name="Grupo 1073523" clip-path="url(#clip-path)">
        <path id="Trazado_822055" data-name="Trazado 822055" d="M68.745,58.428c-.093-.99-.272-1.972-.433-2.954a10.652,10.652,0,0,0-.264-1.267c-.217-.732-.421-1.475-.641-2.208-.593-1.976-1.345-3.9-2.1-5.81a18.809,18.809,0,0,0-1.086-2.44c-.307-.539-.472-1.148-.733-1.707-.436-.933-.953-1.829-1.453-2.731-.127-.228-.152-.376.062-.577a11.412,11.412,0,0,0,1.436-1.7A16.269,16.269,0,0,0,66.8,27.842,18.575,18.575,0,0,0,66.6,24.8a17.155,17.155,0,0,0-1.507-4.816,15.973,15.973,0,0,0-1.981-3.412,19.24,19.24,0,0,0-5.746-4.646,15.736,15.736,0,0,0-7.141-1.793,18.951,18.951,0,0,0-4.807.584.614.614,0,0,1-.765-.248C42.78,7.74,40.916,5,38.921,2.359A5.6,5.6,0,0,0,33.6.039,4.906,4.906,0,0,0,31.418.99,10.9,10.9,0,0,0,29,4c-.334.185-.467.534-.673.821-.934,1.3-1.868,2.6-2.767,3.916q-1.7,2.5-3.376,5.018c-1.136,1.7-2.295,3.4-3.406,5.115-.723,1.117-1.445,2.249-2.1,3.415-.988,1.748-2.1,3.426-3.129,5.152A158.528,158.528,0,0,0,5.028,43.364,60.081,60.081,0,0,0,.473,56.446a24.2,24.2,0,0,0-.434,3.167,26.271,26.271,0,0,0,.2,4.861,36.467,36.467,0,0,0,1.08,5.564,32.794,32.794,0,0,0,2.525,6.369A34.086,34.086,0,0,0,14.887,88.717,34.9,34.9,0,0,0,25.652,93.57a22.523,22.523,0,0,0,4.61.869c.292.182.622.09.932.121A35.432,35.432,0,0,0,42.5,94a32.721,32.721,0,0,0,13.821-6.686,31.954,31.954,0,0,0,6.124-6.674,32.639,32.639,0,0,0,2.525-4.275Q66.246,73.735,67.29,71a20.591,20.591,0,0,0,1.2-4.477c.136-.967.207-1.939.329-2.9a23.614,23.614,0,0,0-.075-5.2M29.536,8.847a.7.7,0,0,0-.3.1.7.7,0,0,1,.3-.1M3.893,56.9A43.168,43.168,0,0,1,5.9,50.011q1.254-3.286,2.819-6.45c.7-1.416,1.356-2.851,2.154-4.224.51-.878.917-1.831,1.418-2.721.726-1.291,1.45-2.587,2.181-3.874.741-1.305,1.5-2.608,2.23-3.921.7-1.257,1.5-2.461,2.276-3.679q2.131-3.358,4.28-6.7c2-3.111,4.112-6.14,6.205-9.184.089-.129.165-.268.247-.4h0l.009-.016.073-.086q1.477-2.065,2.955-4.129a5.238,5.238,0,0,1,.5-.615,1.671,1.671,0,0,1,2.53,0,13.63,13.63,0,0,1,1.443,2.009c.211.338.515.632.75.967,1.522,2.176,3.051,4.348,4.563,6.531a1.9,1.9,0,0,0,2.58.876,15.079,15.079,0,0,1,4.5-.865,11.876,11.876,0,0,1,6,1.308,13.518,13.518,0,0,1,2.867,1.87,14.206,14.206,0,0,1,4.59,8.468,17.408,17.408,0,0,1,.19,3.292,11.377,11.377,0,0,1-3.337,7.7,14.488,14.488,0,0,1-7.407,4.155,12.6,12.6,0,0,1-4.474.124,13.478,13.478,0,0,1-6.359-2.616A13.278,13.278,0,0,1,38.063,33.8a13.139,13.139,0,0,1-1.786-7.291,13.984,13.984,0,0,1,.507-3.319,12.818,12.818,0,0,1,2.156-4.149c.32-.422.7-.8.99-1.24a1.562,1.562,0,0,0,.1-1.978,1.885,1.885,0,0,0-2.073-.694,1.008,1.008,0,0,0-.388.264,17.337,17.337,0,0,0-4.542,9.188,16.8,16.8,0,0,0-.2,3.614,17.5,17.5,0,0,0,.436,2.9,16.855,16.855,0,0,0,5.168,8.556,15.9,15.9,0,0,0,3.3,2.256,14.786,14.786,0,0,0,4,1.556,17.323,17.323,0,0,0,5.583.523l.141-.006a14.059,14.059,0,0,0,7.051-2.27c.741-.469.748-.495,1.165.288A63.545,63.545,0,0,1,63.8,52.072c.534,1.615.914,3.263,1.328,4.905a.664.664,0,0,1-.329.834,5.372,5.372,0,0,1-5.465.393,10.691,10.691,0,0,1-2.3-1.614,3.518,3.518,0,0,0-4.809.357,5.438,5.438,0,0,1-2.064,1.444,5.217,5.217,0,0,1-5.743-1.085A4.687,4.687,0,0,0,42.1,55.9a3.45,3.45,0,0,0-3.255.855,6.316,6.316,0,0,1-3.189,1.923A5.2,5.2,0,0,1,30.9,57.391,10.948,10.948,0,0,0,29.607,56.3a3.041,3.041,0,0,0-1.569-.466,3.239,3.239,0,0,0-2.675.885,7.138,7.138,0,0,1-3.656,2.005,5.332,5.332,0,0,1-2.8-.329A6.405,6.405,0,0,1,16.778,56.9a3.62,3.62,0,0,0-5.188-.063A6.661,6.661,0,0,1,8.1,58.708a4.086,4.086,0,0,1-2.559-.32A13.2,13.2,0,0,1,4.3,57.873a.809.809,0,0,1-.411-.968M59.157,79.254a30.605,30.605,0,0,1-7.2,6.888,37.87,37.87,0,0,1-8.692,4.082,30.877,30.877,0,0,1-10.716,1.229,7.569,7.569,0,0,1-2.018-.234,37.962,37.962,0,0,1-4.894-1.061,29.714,29.714,0,0,1-8.617-4.114,33.365,33.365,0,0,1-6.964-6.611c-.428-.532-.392-.541.263-.766a8,8,0,0,0,3.361-2.224c.437-.481.409-.438.854,0A8.2,8.2,0,0,0,18.1,78.73a8.708,8.708,0,0,0,2.89.463c2.463-.167,4.728-.819,6.355-2.849.259-.323.436-.382.719-.014a4.88,4.88,0,0,0,1.029.979,3.629,3.629,0,0,0,.033-.644,3.629,3.629,0,0,1-.033.644,6.629,6.629,0,0,0,2.683,1.4,11.52,11.52,0,0,0,3.372.485,8.577,8.577,0,0,0,5.063-2.032c.164-.132.319-.277.472-.423.635-.607.634-.608,1.292.019A9.177,9.177,0,0,0,52.016,78.3a8.716,8.716,0,0,0,2.635-1.929c.215-.252.366-.241.591,0a9.868,9.868,0,0,0,3.738,2.4c.314.118.42.186.177.488M65.353,64a28.624,28.624,0,0,1-.977,5.123,31.039,31.039,0,0,1-2.6,6.335c-.178.332-.417.267-.669.226a6.913,6.913,0,0,1-3.694-1.835,3.58,3.58,0,0,0-2.473-1.1,3.9,3.9,0,0,0-2.849,1.289,5.661,5.661,0,0,1-3.7,1.7,5.228,5.228,0,0,1-4.278-1.753,3.86,3.86,0,0,0-2.563-1.228,3.661,3.661,0,0,0-2.737,1.059,6.409,6.409,0,0,1-3.329,1.847,5.4,5.4,0,0,1-4.8-1.475c-.255-.245-.444-.592-.818-.707a1.1,1.1,0,0,1-.122.007,1.1,1.1,0,0,0,.122-.007.449.449,0,0,0-.337-.212l-.211-.118a3.569,3.569,0,0,0-4.3.777,5.728,5.728,0,0,1-2.843,1.657A5.178,5.178,0,0,1,17.047,74.1,4,4,0,0,0,14.9,72.821a3.49,3.49,0,0,0-3.209.883,7.513,7.513,0,0,1-3.571,1.971.7.7,0,0,1-.924-.421,32.705,32.705,0,0,1-2.7-6.949,30.43,30.43,0,0,1-.983-6.269c-.016-.484.093-.54.559-.391,3.68,1.181,6.961.6,9.7-2.267.194-.2.35-.386.625-.053a7.474,7.474,0,0,0,4.309,2.6,9.034,9.034,0,0,0,7.447-1.36,6.912,6.912,0,0,0,1.181-1.134c.136-.155.245-.359.5-.343a.744.744,0,0,1-.12-.318.744.744,0,0,0,.12.318A7.441,7.441,0,0,0,31.9,61.807a9.253,9.253,0,0,0,6.921-.63,7.98,7.98,0,0,0,2.207-1.766c.15-.169.256-.374.514-.061a7.864,7.864,0,0,0,4.673,2.6,8.356,8.356,0,0,0,8.4-2.548c.239-.261.413-.238.652.007a8.937,8.937,0,0,0,7.309,2.749,6.954,6.954,0,0,0,2.306-.494c.276-.118.414-.175.523.253A5.971,5.971,0,0,1,65.353,64" transform="translate(0 0)" fill="#fff"/>
        <path id="Trazado_822056" data-name="Trazado 822056" d="M100.552,59.364c.662.636,1.282,1.319,1.979,1.913a1.681,1.681,0,0,0,2.312-.109c.738-.8,1.539-1.538,2.315-2.3q3.315-3.268,6.549-6.618a1.6,1.6,0,0,0,.5-1.92,1.626,1.626,0,0,0-2.287-.878,3.412,3.412,0,0,0-.813.671q-3.493,3.474-6.978,6.956c-.379.381-.617.355-.976-.03-.818-.878-1.678-1.718-2.535-2.558a1.838,1.838,0,0,0-1.451-.686,1.615,1.615,0,0,0-1.306,2.717c.889.957,1.749,1.94,2.693,2.845" transform="translate(-56.058 -28.345)" fill="#fff"/>
      </g>
    </g>
  </g>
</svg>
