<svg xmlns="http://www.w3.org/2000/svg" xmlns:xlink="http://www.w3.org/1999/xlink" width="190" height="190" viewBox="0 0 190 190">
  <defs>
    <clipPath id="clip-path">
      <rect id="Rect치ngulo_377557" data-name="Rect치ngulo 377557" width="190" height="190" transform="translate(1125 2520.721)" fill="#fff" stroke="#707070" stroke-width="1"/>
    </clipPath>
    <clipPath id="clip-path-2">
      <rect id="Rect치ngulo_378114" data-name="Rect치ngulo 378114" width="178.667" height="126.956" fill="none"/>
    </clipPath>
  </defs>
  <g id="Enmascarar_grupo_345" data-name="Enmascarar grupo 345" transform="translate(-1125 -2520.721)" clip-path="url(#clip-path)">
    <g id="Grupo_1073815" data-name="Grupo 1073815" transform="translate(1131.001 2552.721)">
      <g id="Grupo_1073814" data-name="Grupo 1073814" clip-path="url(#clip-path-2)">
        <path id="Trazado_822928" data-name="Trazado 822928" d="M88.945,0q38.95,0,77.9.008a11.335,11.335,0,0,1,8.7,3.384,10.281,10.281,0,0,1,2.789,5.486,37.319,37.319,0,0,1,.331,6.031q0,48.82,0,97.64a29.539,29.539,0,0,1-.524,5.753,10.06,10.06,0,0,1-7.086,8.044,12.481,12.481,0,0,1-4.014.582q-77.638.013-155.277.025a11.23,11.23,0,0,1-7.218-2.13A10.569,10.569,0,0,1,.177,117.68a51.852,51.852,0,0,1-.158-6.333Q0,60.565,0,9.784C0,9.011.547,8.3.211,7.5,2.31,3.739,4.846.569,9.6.144c.979-.088,1.951-.132,2.924-.132Q50.738-.006,88.945,0m.1,123.447v.014q39.121,0,78.24.008a6.846,6.846,0,0,0,2.3-.291,7.14,7.14,0,0,0,4.155-3.123,8.885,8.885,0,0,0,1.424-4.434q.037-52.129.006-104.257a7.2,7.2,0,0,0-.613-3.165c-1.451-2.933-3.736-4.712-7.158-4.712q-77.543,0-155.087.016a13.344,13.344,0,0,0-3.643.4,7.722,7.722,0,0,0-5.2,7.007Q3.55,63.69,3.5,116.471a3.76,3.76,0,0,0,.03.781,8.075,8.075,0,0,0,7.794,6.235c25.907-.071,51.812-.037,77.719-.037" transform="translate(0 0)"/>
        <path id="Trazado_822929" data-name="Trazado 822929" d="M90.525,124.943c-25.906,0-51.812-.034-77.717.037a8.076,8.076,0,0,1-7.8-6.235,3.854,3.854,0,0,1-.03-.78q0-52.781-.039-105.564a7.723,7.723,0,0,1,5.2-7.007A13.376,13.376,0,0,1,13.79,5q77.543-.027,155.087-.016c3.422,0,5.707,1.78,7.158,4.713a7.2,7.2,0,0,1,.613,3.165q.023,52.128-.006,104.257a8.872,8.872,0,0,1-1.425,4.434,7.134,7.134,0,0,1-4.154,3.123,6.847,6.847,0,0,1-2.3.291q-39.121-.014-78.241-.008Zm.037-4.882q38.816,0,77.633,0c2.469,0,3.571-1.068,3.572-3.39q.018-51.695.009-103.388a4.751,4.751,0,0,0-.342-1.746c-.58-1.471-1.871-1.667-3.206-1.667Q90.944,9.861,13.66,9.865c-.2,0-.409-.013-.61.006-1.693.165-2.716.635-3.094,2.115a8.153,8.153,0,0,0-.086,1.975q0,51.826,0,103.65a1.8,1.8,0,0,0,.523,1.291,3.7,3.7,0,0,0,3.059,1.175q38.555-.029,77.11-.015" transform="translate(-1.483 -1.494)" fill="#d9e6f1"/>
        <path id="Trazado_822930" data-name="Trazado 822930" d="M92.665,122.151q-38.555,0-77.11.015a3.694,3.694,0,0,1-3.059-1.176,1.8,1.8,0,0,1-.523-1.291q.006-51.825,0-103.649a8.163,8.163,0,0,1,.086-1.976c.377-1.479,1.4-1.949,3.094-2.114.2-.02.407-.006.61-.006q77.284,0,154.568.006c1.335,0,2.626.2,3.206,1.667a4.749,4.749,0,0,1,.342,1.746q0,51.695-.009,103.389c0,2.322-1.1,3.39-3.572,3.39H92.665m69.8-18.409a32.058,32.058,0,0,0,7.031-.956c.394-.088.7-.2.786-.783a35.7,35.7,0,0,0,.085-4.325c.011-.434-.293-.214-.488-.148a25.537,25.537,0,0,1-9.344,1.414,21.269,21.269,0,0,1-6.085-1.236A67.1,67.1,0,0,1,144.093,92.6c-4.068-2.275-8.161-4.495-12.711-5.7a50.4,50.4,0,0,0-6.046-1.061,38.573,38.573,0,0,0-8.3.079,38.051,38.051,0,0,1-5.724.2c-.032-.377-.3-.158-.47-.188a4.7,4.7,0,0,1-2.374-.043,27.13,27.13,0,0,1-6.827-1.869,60.74,60.74,0,0,1-10-5.578C86.515,75.028,81.5,71.457,76.31,68.149A30.77,30.77,0,0,0,58.7,63.235a38.43,38.43,0,0,0-6.4.7,71.129,71.129,0,0,0-11.431,3.383c-4.5,1.68-8.886,3.663-13.451,5.179a20.256,20.256,0,0,1-4.757,1.157A9.429,9.429,0,0,1,16.7,71.717c-.395-.261-.774-.547-1.246-.881,0,1.9.022,3.645-.013,5.393a.876.876,0,0,0,.641.9,12.95,12.95,0,0,0,5.228,1.3l-.009.034,0-.032a7.33,7.33,0,0,0,2.086-.013l0,.031,0-.031a26.4,26.4,0,0,0,7.4-1.887c5.182-1.817,10.174-4.126,15.381-5.883A49.824,49.824,0,0,1,57.9,68.125a24.029,24.029,0,0,1,5.517.3,22.248,22.248,0,0,1,7.442,2.315,143.044,143.044,0,0,1,12.8,8.252c4.379,3,8.707,6.1,13.532,8.377a33.18,33.18,0,0,0,13.46,3.589l-.018.052V90.96l.711.03-.008.037,0-.036.671.04.016.026,0-.031,1.4.019h0l.7-.027v.032l.015-.026.679-.036v.034l0-.034c2-.007,3.967-.336,5.952-.492l.006.008.677-.037,0,.034v-.034l2.072.063.01,0c.568.078,1.133.188,1.7.231a26.323,26.323,0,0,1,6.858,1.516,59.24,59.24,0,0,1,9.071,4.344,76.071,76.071,0,0,0,11.329,5.588,25.723,25.723,0,0,0,9.965,1.528l0,.032ZM61.334,59.7c1.639.25,3.29.348,4.932.675a30.046,30.046,0,0,1,8.366,2.891c5.635,3.012,10.785,6.785,16.048,10.377a99.469,99.469,0,0,0,9.04,5.7A26.783,26.783,0,0,0,115.208,82.6c1.322-.126,2.641-.28,3.965-.369a36.079,36.079,0,0,1,7.1.132,45.274,45.274,0,0,1,7.7,1.689,64.816,64.816,0,0,1,7.422,3.1.984.984,0,0,0,.19.171c3.433,1.768,6.716,3.807,10.178,5.521a21.31,21.31,0,0,0,18.106,1.118c.458-.161.526-.449.52-.865-.017-1.249-.006-2.5-.006-3.748,0-5.463-.007-10.925.01-16.388,0-.654-.118-1-.886-1.047a17.3,17.3,0,0,1-3.485-.626,19.442,19.442,0,0,1-11.7-8.757,51.422,51.422,0,0,1-4.178-9.078c-2.019-5.307-5.483-8.95-11.036-10.63A24.244,24.244,0,0,1,127.28,35.1,30,30,0,0,1,120.5,16.707c-.059-1.262,0-1.264-1.236-1.264H28.027c-3.925,0-7.85.01-11.774-.011-.556,0-.81.063-.809.728q.029,24.538.011,49.076a1.921,1.921,0,0,0,.486,1.353,11.031,11.031,0,0,0,3.889,2.975,5.225,5.225,0,0,0,3.253.519,61.209,61.209,0,0,0,9.306-3.131c1.889-.732,3.755-1.524,5.631-2.289,2.3-.806,4.6-1.628,6.916-2.413a51.485,51.485,0,0,1,8.815-2.128,39.555,39.555,0,0,1,7.43-.434l.074.031ZM15.5,110.288c-.009,2.5.015,5-.048,7.493-.019.76.226.881.922.881q43.605-.027,87.211-.018c.4,0,.81-.032,1.215-.05.522.023,1.044.067,1.566.067q31.447.005,62.894,0a4.662,4.662,0,0,1,.524,0c.432.049.612-.085.61-.566q-.028-5.667-.006-11.333c0-.557-.166-.711-.728-.553a29.107,29.107,0,0,1-6.908,1.024,30.1,30.1,0,0,1-8.465-.838c-5.078-1.29-9.655-3.816-14.186-6.342-2.223-1.239-4.434-2.488-6.736-3.568a26.809,26.809,0,0,0-9.455-2.444,55.317,55.317,0,0,0-7.087.337,40.4,40.4,0,0,1-10.891-.442,44.045,44.045,0,0,1-8.163-2.48A55.216,55.216,0,0,1,92.7,88.954C88,86.312,83.669,83.093,79.186,80.11c-1.367-.91-2.765-1.787-4.116-2.711-3.533-2.413-7.054-4.722-11.426-5.385a25.606,25.606,0,0,0-5.886-.336A44.8,44.8,0,0,0,45.652,74.51c-4.631,1.724-9.212,3.581-13.84,5.314A29.979,29.979,0,0,1,23.746,81.9a16.612,16.612,0,0,1-7.674-1.112c-.244-.1-.676-.335-.575.2a8.63,8.63,0,0,1-.048,1.673q.022,13.251.011,26.5c0,.376.029.753.045,1.129m135.99-94.846c-6.045,0-12.09.008-18.135-.012-.723,0-1.019.146-1.01.967a20.815,20.815,0,0,0,.734,4.676c1,4.1,3.088,7.41,6.963,9.405,1.893.975,3.951,1.508,5.914,2.3a26.028,26.028,0,0,1,8.382,5.492,25.708,25.708,0,0,1,3.877,5.029,61.216,61.216,0,0,1,3.524,7.194c.632,1.4,1.133,2.878,1.771,4.29a8.739,8.739,0,0,0,5.592,5.18c1.073.318,1.281.232,1.281-.826q0-20.652-.008-41.3c0-.386.153-.82-.218-1.146a.252.252,0,0,1-.069-.3c.321-.94.318-.944-.639-.944H151.494m-25.1,0c-.7,0-1.4.02-2.093-.007-.459-.018-.6.235-.482.583a14.6,14.6,0,0,1,.295,3.252,25.04,25.04,0,0,0,1.814,7.235c2.847,6.753,8,11.045,14.808,13.3A18.256,18.256,0,0,1,151.8,48.943c1.528,2.935,2.58,6.075,3.974,9.066a17.539,17.539,0,0,0,6.021,7.615,19.154,19.154,0,0,0,7.913,2.88c.56.084.684.015.685-.473,0-1.278-.013-2.556.007-3.834.006-.452-.183-.582-.611-.638a11.251,11.251,0,0,1-5.942-2.571,16.673,16.673,0,0,1-4.28-6.568c-1.5-3.513-2.768-7.129-4.886-10.354a20.817,20.817,0,0,0-7.264-6.76,42.124,42.124,0,0,0-6.2-2.574,18.385,18.385,0,0,1-6.447-3.868,19.077,19.077,0,0,1-5.69-12.852c-.2-2.562-.076-2.571-2.6-2.571h-.088" transform="translate(-3.586 -3.584)"/>
        <path id="Trazado_822931" data-name="Trazado 822931" d="M39.514,66.154c-1.876.765-3.741,1.557-5.63,2.289a61.235,61.235,0,0,1-9.306,3.131,5.223,5.223,0,0,1-3.254-.52,11.035,11.035,0,0,1-3.889-2.975,1.921,1.921,0,0,1-.486-1.352q.009-24.538-.011-49.076c0-.665.253-.732.809-.728,3.925.02,7.85.011,11.775.011h91.235c1.234,0,1.178,0,1.236,1.265a29.993,29.993,0,0,0,6.781,18.392,24.249,24.249,0,0,0,11.833,7.724c5.553,1.68,9.017,5.323,11.036,10.631a51.4,51.4,0,0,0,4.178,9.078,19.437,19.437,0,0,0,11.7,8.758,17.355,17.355,0,0,0,3.486.626c.767.05.888.392.886,1.047-.018,5.462-.01,10.925-.01,16.388,0,1.25-.011,2.5.006,3.748.006.416-.062.7-.52.864a21.3,21.3,0,0,1-18.106-1.118c-3.462-1.714-6.746-3.753-10.178-5.52a.99.99,0,0,1-.19-.171c.154-.364.5-.44.822-.575.943-.4,1.894-.791,2.81-1.248a9.552,9.552,0,0,0,3.756-3.263c1.057-1.586,2.085-3.207,2.056-5.229a2.174,2.174,0,0,0,2.068-1.635,1.7,1.7,0,0,0-1.015-1.817,36.806,36.806,0,0,1-5.113-3.559,23.9,23.9,0,0,1-5.234-5.768,33.084,33.084,0,0,0-3.7-5.507c-2.516-2.808-5.81-4.273-9.29-5.448-4.894-1.652-9.956-2.773-14.723-4.836a20.535,20.535,0,0,1-5.639-3.519,37.522,37.522,0,0,1-5.544-6.841A50.042,50.042,0,0,0,99.3,33.17a36.11,36.11,0,0,0-6.192-5.195c-4.625-3.059-9.267-2.828-13.914-.07a79.869,79.869,0,0,0-8.609,6.508A26.223,26.223,0,0,1,62.8,39.051a22.4,22.4,0,0,1-4.861.635,26.412,26.412,0,0,0-11.362,4.092,71.114,71.114,0,0,0-8.54,6.306,59.152,59.152,0,0,0-6.185,6.127c-.394.459-.82.968-.44,1.712a1.548,1.548,0,0,0,1.6,1.064,4.93,4.93,0,0,0,.744,2.087,9.417,9.417,0,0,0,5.287,4.718c.177.057.314.239.47.362" transform="translate(-5.079 -5.075)" fill="#86d146"/>
        <path id="Trazado_822932" data-name="Trazado 822932" d="M17,135.847c-.015-.376-.045-.753-.045-1.129q0-13.251-.011-26.5a8.566,8.566,0,0,0,.048-1.673c-.1-.531.331-.294.575-.2a16.624,16.624,0,0,0,7.675,1.112,30,30,0,0,0,8.065-2.075c4.628-1.733,9.209-3.59,13.84-5.315a44.831,44.831,0,0,1,12.107-2.831,25.613,25.613,0,0,1,5.887.336c4.371.663,7.892,2.972,11.425,5.385,1.351.923,2.749,1.8,4.116,2.711,4.484,2.983,8.812,6.2,13.518,8.844a55.4,55.4,0,0,0,5.069,2.507,44.1,44.1,0,0,0,8.163,2.48,40.43,40.43,0,0,0,10.891.442,55.318,55.318,0,0,1,7.087-.337,26.809,26.809,0,0,1,9.454,2.444c2.3,1.081,4.513,2.329,6.736,3.568,4.532,2.526,9.108,5.052,14.186,6.342a30.1,30.1,0,0,0,8.466.838,29.106,29.106,0,0,0,6.907-1.024c.562-.158.73,0,.729.552q-.016,5.667.006,11.333c0,.482-.177.615-.61.566a4.823,4.823,0,0,0-.523,0q-31.447,0-62.895,0c-.522,0-1.044-.044-1.566-.067a2.247,2.247,0,0,0-.114-.589,12.82,12.82,0,0,0-5.556-5.649,30.5,30.5,0,0,0-8.31-2.625c0-1.622.016-3.244,0-4.866a3.787,3.787,0,0,0-1.638-3.275c-1.073-.755-2.132-1.533-3.154-2.355a3.85,3.85,0,0,0-5.023-.04c-.993.837-2.055,1.592-3.091,2.377a4.033,4.033,0,0,0-1.754,3.578c.041.952-.019,1.909-.034,2.864A39.966,39.966,0,0,1,71.5,132.15a40.338,40.338,0,0,1-6.335-2.795c-.277-.137-.589-.491-.839.045-.027-.288-.076-.576-.076-.865,0-5.605-.059-11.212.028-16.815a3.531,3.531,0,0,0-3.8-3.772c-2.586.039-5.173.008-7.76.009-2.649,0-3.914,1.215-3.948,3.86q-.044,3.484.013,6.97c.013.76-.158,1.07-1.007,1.048-2.323-.062-4.649-.022-6.974-.021-2.957,0-4.1,1.152-4.135,4.106a46.367,46.367,0,0,1-.09,4.782,3.458,3.458,0,0,0-.755.163q-2.594,1.082-5.207,2.114c-3.1,1.222-6.192,2.464-9.315,3.621a18.242,18.242,0,0,1-4.3,1.247" transform="translate(-5.081 -29.144)" fill="#86d146"/>
        <path id="Trazado_822933" data-name="Trazado 822933" d="M46.4,71.431c-.155-.123-.293-.305-.47-.362a9.417,9.417,0,0,1-5.287-4.718,4.93,4.93,0,0,1-.744-2.087c1.046.086,1.518-.758,2.1-1.36A61.949,61.949,0,0,1,56.309,51.418a20.914,20.914,0,0,1,10.175-3.052,14.861,14.861,0,0,0,6.2-1.466,42.973,42.973,0,0,0,8.942-6.151A52.856,52.856,0,0,1,88,36.046a8.989,8.989,0,0,1,10.038.012,30.866,30.866,0,0,1,7.7,7.152c1.594,2.025,3.011,4.189,4.5,6.3a27.325,27.325,0,0,0,3.29,3.967c3.607,3.477,8.095,5.419,12.8,6.849,3.645,1.108,7.308,2.154,10.924,3.354a16.853,16.853,0,0,1,5.252,2.807,16.711,16.711,0,0,1,3.536,4.558,26.483,26.483,0,0,0,5.8,7.243c1.489,1.185,2.934,2.421,4.537,3.454.956.615,1.9,1.243,2.856,1.866.029,2.023-1,3.643-2.056,5.229a9.552,9.552,0,0,1-3.756,3.263c-.916.456-1.867.847-2.81,1.248-.321.136-.668.211-.822.575a64.771,64.771,0,0,0-7.422-3.1,45.4,45.4,0,0,0-7.7-1.689,36.079,36.079,0,0,0-7.1-.132c-1.324.088-2.644.243-3.965.369A26.78,26.78,0,0,1,108.1,86.117a99.3,99.3,0,0,1-9.039-5.7C93.8,76.82,88.646,73.047,83.013,70.036a30.05,30.05,0,0,0-8.367-2.891c-1.641-.328-3.292-.426-4.932-.675-.044-.077-.094-.1-.153-.014a39.609,39.609,0,0,0-7.43.435,51.4,51.4,0,0,0-8.815,2.127C51,69.8,48.7,70.626,46.4,71.431" transform="translate(-11.965 -10.352)" fill="#b1e16c"/>
        <path id="Trazado_822934" data-name="Trazado 822934" d="M203.063,16.933h17.961c.956,0,.96,0,.639.944a.253.253,0,0,0,.069.3c.372.326.219.76.219,1.146q.012,20.651.008,41.3c0,1.059-.207,1.145-1.281.826a8.737,8.737,0,0,1-5.592-5.18c-.638-1.411-1.139-2.889-1.771-4.29a61.324,61.324,0,0,0-3.524-7.194,25.728,25.728,0,0,0-3.877-5.029,26.028,26.028,0,0,0-8.382-5.492c-1.962-.79-4.021-1.324-5.915-2.3-3.875-2-5.966-5.308-6.963-9.405a20.805,20.805,0,0,1-.734-4.675c-.01-.821.287-.97,1.01-.967,6.045.02,12.09.011,18.135.011" transform="translate(-55.155 -5.075)" fill="#86d146"/>
        <path id="Trazado_822935" data-name="Trazado 822935" d="M122.944,112.432l-.677.037-.006-.008c-1.985.157-3.955.485-5.952.492h0l-.678.036-.018-.006-.7.027-1.4-.02L113.5,113l-.67-.04h0l-.711-.031h.02a33.187,33.187,0,0,1-13.46-3.589c-4.825-2.28-9.153-5.371-13.532-8.377a143.3,143.3,0,0,0-12.8-8.252,22.257,22.257,0,0,0-7.443-2.315,23.981,23.981,0,0,0-5.516-.3,49.766,49.766,0,0,0-11.727,2.525c-5.207,1.756-10.2,4.066-15.381,5.882a26.4,26.4,0,0,1-7.4,1.888h.008a7.33,7.33,0,0,1-2.086.013h0a12.954,12.954,0,0,1-5.23-1.3.875.875,0,0,1-.641-.9c.036-1.748.014-3.5.014-5.393.472.335.851.62,1.247.881a9.425,9.425,0,0,0,5.955,1.938,20.2,20.2,0,0,0,4.757-1.157c4.565-1.516,8.95-3.5,13.452-5.179A71.212,71.212,0,0,1,53.793,85.9a38.447,38.447,0,0,1,6.4-.7A30.77,30.77,0,0,1,77.8,90.113c5.193,3.309,10.2,6.879,15.324,10.292a60.745,60.745,0,0,0,10,5.578,27.122,27.122,0,0,0,6.827,1.869,4.692,4.692,0,0,0,2.373.043c.038.358.26.261.471.188a38.063,38.063,0,0,0,5.725-.2,38.528,38.528,0,0,1,8.3-.078,50.4,50.4,0,0,1,6.046,1.06c4.549,1.206,8.642,3.426,12.711,5.7a67,67,0,0,0,10.357,5.109,21.255,21.255,0,0,0,6.085,1.236,25.524,25.524,0,0,0,9.344-1.414c.2-.065.5-.286.487.148a35.688,35.688,0,0,1-.085,4.325c-.085.582-.391.7-.786.783a32.066,32.066,0,0,1-7.031.956l-.012-.008a25.707,25.707,0,0,1-9.965-1.528,76,76,0,0,1-11.329-5.588,59.337,59.337,0,0,0-9.071-4.344,26.3,26.3,0,0,0-6.858-1.515c-.57-.043-1.136-.153-1.7-.232l-.011,0-2.072-.063h0" transform="translate(-5.08 -25.548)" fill="#6fd4f7"/>
        <path id="Trazado_822936" data-name="Trazado 822936" d="M92.323,148.792a30.442,30.442,0,0,1,8.31,2.625,12.819,12.819,0,0,1,5.556,5.649,2.229,2.229,0,0,1,.114.589c-.4.017-.81.05-1.215.05q-43.605,0-87.211.018c-.7,0-.94-.121-.921-.881.064-2.5.039-5,.047-7.493a18.271,18.271,0,0,0,4.306-1.247c3.123-1.156,6.215-2.4,9.315-3.62q2.613-1.031,5.207-2.114a3.457,3.457,0,0,1,.755-.164c.029,1.946.034,3.893.092,5.836a3.324,3.324,0,0,0,3.337,3.419q10.424.028,20.849,0a3.282,3.282,0,0,0,3.4-3.416c.027-1.713.043-3.428.064-5.141.251-.536.564-.181.839-.044A40.426,40.426,0,0,0,71.5,145.65a39.883,39.883,0,0,0,6.128,1.425c.008.174.028.348.024.522a3.606,3.606,0,0,0,3.9,3.886c2.233-.078,4.472-.016,6.707-.017,2.259,0,3.2-.618,4.06-2.674" transform="translate(-5.084 -42.645)" fill="#b1e16c"/>
        <path id="Trazado_822937" data-name="Trazado 822937" d="M174.287,16.934h.088c2.52,0,2.4.009,2.6,2.571a19.077,19.077,0,0,0,5.69,12.852,18.385,18.385,0,0,0,6.447,3.868,42.123,42.123,0,0,1,6.2,2.574,20.824,20.824,0,0,1,7.264,6.76c2.118,3.225,3.389,6.841,4.886,10.354a16.681,16.681,0,0,0,4.28,6.569,11.256,11.256,0,0,0,5.942,2.57c.428.055.617.186.611.638-.02,1.278,0,2.556-.007,3.834,0,.489-.125.557-.685.473a19.154,19.154,0,0,1-7.913-2.88,17.539,17.539,0,0,1-6.021-7.615c-1.394-2.992-2.446-6.131-3.974-9.066A18.258,18.258,0,0,0,188.629,41.3c-6.812-2.252-11.961-6.544-14.808-13.3a25.04,25.04,0,0,1-1.814-7.235,14.594,14.594,0,0,0-.295-3.252c-.116-.349.024-.6.482-.583.7.027,1.4.007,2.093.006" transform="translate(-51.483 -5.076)" fill="#6fd4f7"/>
        <path id="Trazado_822938" data-name="Trazado 822938" d="M153.664,117.791c-.211.074-.433.171-.471-.188.171.03.44-.189.471.188" transform="translate(-45.941 -35.257)" fill="#86d146"/>
        <path id="Trazado_822939" data-name="Trazado 822939" d="M153.9,124.847h0l-.006.036Z" transform="translate(-46.151 -37.44)" fill="#86d146"/>
        <path id="Trazado_822940" data-name="Trazado 822940" d="M154.861,124.9l.02,0,0,.031Z" transform="translate(-46.441 -37.456)" fill="#86d146"/>
        <path id="Trazado_822941" data-name="Trazado 822941" d="M157.885,124.888l.017.006-.016.026Z" transform="translate(-47.348 -37.452)" fill="#86d146"/>
        <path id="Trazado_822942" data-name="Trazado 822942" d="M158.877,124.845h0l0,.034Z" transform="translate(-47.644 -37.44)" fill="#86d146"/>
        <path id="Trazado_822943" data-name="Trazado 822943" d="M152.912,124.8h-.02v.052Z" transform="translate(-45.851 -37.427)" fill="#86d146"/>
        <path id="Trazado_822944" data-name="Trazado 822944" d="M171.3,124.189l.011,0-.011,0" transform="translate(-51.372 -37.241)" fill="#86d146"/>
        <path id="Trazado_822945" data-name="Trazado 822945" d="M168.349,124.1h0v.034Z" transform="translate(-50.485 -37.216)" fill="#86d146"/>
        <path id="Trazado_822946" data-name="Trazado 822946" d="M226.917,143.048l.012.008-.017.023Z" transform="translate(-68.048 -42.898)" fill="#86d146"/>
        <path id="Trazado_822947" data-name="Trazado 822947" d="M28.293,106.893h-.008l0,.03Z" transform="translate(-8.482 -32.056)" fill="#86d146"/>
        <path id="Trazado_822948" data-name="Trazado 822948" d="M25.32,106.909h0l0,.032Z" transform="translate(-7.59 -32.061)" fill="#86d146"/>
        <path id="Trazado_822949" data-name="Trazado 822949" d="M82.266,80.112c.059-.082.109-.063.153.014l-.078.017Z" transform="translate(-24.671 -24.009)" fill="#86d146"/>
        <path id="Trazado_822950" data-name="Trazado 822950" d="M167.374,124.142l.006.008-.006-.008" transform="translate(-50.193 -37.229)" fill="#86d146"/>
        <path id="Trazado_822951" data-name="Trazado 822951" d="M158.473,82.113c-.951-.622-1.9-1.25-2.856-1.866a56.84,56.84,0,0,1-4.537-3.454,26.458,26.458,0,0,1-5.8-7.243,16.738,16.738,0,0,0-3.536-4.558,16.868,16.868,0,0,0-5.252-2.807c-3.616-1.2-7.28-2.246-10.924-3.354-4.708-1.431-9.195-3.372-12.8-6.85a27.329,27.329,0,0,1-3.291-3.967c-1.486-2.109-2.9-4.273-4.5-6.3a30.87,30.87,0,0,0-7.7-7.152,8.988,8.988,0,0,0-10.038-.012,52.807,52.807,0,0,0-6.372,4.7,42.984,42.984,0,0,1-8.942,6.152,14.879,14.879,0,0,1-6.2,1.466,20.9,20.9,0,0,0-10.175,3.052A61.953,61.953,0,0,0,41.244,61.411c-.578.6-1.049,1.446-2.095,1.36a1.548,1.548,0,0,1-1.6-1.063c-.379-.746.046-1.254.44-1.713a59.076,59.076,0,0,1,6.185-6.126,71.1,71.1,0,0,1,8.54-6.307,26.42,26.42,0,0,1,11.363-4.092,22.361,22.361,0,0,0,4.861-.635A26.241,26.241,0,0,0,76.722,38.2a79.892,79.892,0,0,1,8.609-6.508c4.647-2.758,9.289-2.989,13.914.07a36.165,36.165,0,0,1,6.192,5.195,50.09,50.09,0,0,1,4.845,6.228,37.472,37.472,0,0,0,5.545,6.841,20.521,20.521,0,0,0,5.638,3.519c4.768,2.063,9.83,3.185,14.723,4.836,3.48,1.175,6.775,2.639,9.29,5.448a33.037,33.037,0,0,1,3.7,5.507,23.9,23.9,0,0,0,5.234,5.768,36.892,36.892,0,0,0,5.113,3.56,1.7,1.7,0,0,1,1.015,1.817,2.172,2.172,0,0,1-2.068,1.635" transform="translate(-11.216 -8.859)"/>
        <path id="Trazado_822952" data-name="Trazado 822952" d="M72.737,134.011c-.021,1.713-.038,3.427-.064,5.141a3.282,3.282,0,0,1-3.4,3.416q-10.424.031-20.849,0a3.324,3.324,0,0,1-3.336-3.419c-.057-1.945-.064-3.891-.092-5.837a46.368,46.368,0,0,0,.09-4.782c.034-2.954,1.178-4.106,4.135-4.107,2.324,0,4.651-.04,6.974.022.849.022,1.02-.288,1.007-1.048q-.06-3.484-.013-6.97c.034-2.645,1.3-3.858,3.948-3.86,2.587,0,5.174.03,7.759-.009a3.531,3.531,0,0,1,3.8,3.772c-.087,5.6-.032,11.21-.028,16.815,0,.288.049.576.076.865m-12.185-6.355h.016q0,5.4,0,10.8c0,.32-.095.629.433.624,2.585-.019,5.17-.01,7.756-.008.232,0,.594-.081.491-.284-.27-.538.05-1.008.043-1.508-.1-6.763-.116-13.527.02-20.29.015-.722-.139-.965-.893-.951-2.352.046-4.706.039-7.059,0-.643-.01-.83.145-.823.818.039,3.6.018,7.2.018,10.8M57.114,133.4h.006q0-2.393,0-4.787c0-.356.041-.692-.508-.688-2.584.018-5.168.011-7.752,0-.335,0-.478.118-.445.457.057.571.143,1.143.144,1.715q.01,4.134-.028,8.269c0,.437.012.711.575.684,2.482-.116,4.972.172,7.454-.162.468-.062.564-.19.559-.616-.02-1.624-.008-3.249-.008-4.874" transform="translate(-13.493 -33.755)"/>
        <path id="Trazado_822953" data-name="Trazado 822953" d="M118.313,146.711c-.864,2.057-1.8,2.674-4.059,2.674-2.236,0-4.474-.062-6.707.017a3.607,3.607,0,0,1-3.9-3.887c0-.173-.015-.347-.023-.521.015-.955.075-1.912.033-2.864a4.038,4.038,0,0,1,1.754-3.579c1.037-.785,2.1-1.539,3.092-2.377a3.851,3.851,0,0,1,5.023.04c1.021.822,2.081,1.6,3.154,2.355a3.791,3.791,0,0,1,1.638,3.275c.015,1.622,0,3.244,0,4.866m-7.34-.829c1.1,0,2.206-.014,3.309.007.394.008.571-.078.559-.52-.029-1.1-.021-2.2,0-3.307a1.035,1.035,0,0,0-.429-.9c-.992-.755-1.992-1.5-2.985-2.254a.609.609,0,0,0-.854-.021c-.981.769-1.979,1.517-2.979,2.261a.984.984,0,0,0-.447.878c.02,1.1.032,2.205,0,3.307-.017.495.192.566.612.557,1.073-.023,2.148-.008,3.222-.008" transform="translate(-31.074 -40.563)"/>
        <path id="Trazado_822954" data-name="Trazado 822954" d="M67.207,129.146c0-3.6.02-7.2-.018-10.8-.007-.673.18-.828.824-.818,2.352.038,4.705.044,7.058,0,.755-.014.908.228.893.951-.136,6.763-.117,13.527-.02,20.29.007.5-.313.97-.043,1.508.1.2-.259.284-.491.284-2.586,0-5.17-.01-7.756.009-.528,0-.434-.305-.433-.624q.006-5.4,0-10.8h-.016" transform="translate(-20.149 -35.245)" fill="#d9e6f1"/>
        <path id="Trazado_822955" data-name="Trazado 822955" d="M58.579,139.988c0,1.625-.012,3.25.008,4.874,0,.426-.092.554-.559.616-2.483.334-4.972.046-7.454.162-.564.027-.58-.247-.575-.684q.038-4.135.028-8.269c0-.572-.088-1.144-.144-1.715-.034-.339.109-.458.445-.457,2.584.008,5.168.014,7.752,0,.549,0,.508.333.508.688q0,2.393,0,4.787h-.006" transform="translate(-14.958 -40.338)" fill="#6fd4f7"/>
        <path id="Trazado_822956" data-name="Trazado 822956" d="M112.48,147.364c-1.074,0-2.149-.015-3.222.008-.42.009-.629-.062-.612-.557.036-1.1.024-2.2,0-3.306a.986.986,0,0,1,.447-.879c1-.744,2-1.491,2.979-2.261a.609.609,0,0,1,.854.02c.993.754,1.993,1.5,2.985,2.255a1.035,1.035,0,0,1,.429.9c-.017,1.1-.025,2.205,0,3.307.011.442-.165.529-.559.521-1.1-.021-2.205-.007-3.309-.007" transform="translate(-32.581 -42.045)" fill="#cece36"/>
      </g>
    </g>
  </g>
</svg>
