<svg xmlns="http://www.w3.org/2000/svg" xmlns:xlink="http://www.w3.org/1999/xlink" width="190" height="190" viewBox="0 0 190 190">
  <defs>
    <clipPath id="clip-path">
      <rect id="Rect치ngulo_378121" data-name="Rect치ngulo 378121" width="190" height="190" transform="translate(1020 3210)" fill="none" stroke="#707070" stroke-width="1"/>
    </clipPath>
    <clipPath id="clip-path-2">
      <rect id="Rect치ngulo_378123" data-name="Rect치ngulo 378123" width="190" height="149.347" fill="none"/>
    </clipPath>
  </defs>
  <g id="Enmascarar_grupo_397" data-name="Enmascarar grupo 397" transform="translate(-1020 -3210)" clip-path="url(#clip-path)">
    <g id="Grupo_1073832" data-name="Grupo 1073832" transform="translate(1020 3233.75)">
      <g id="Grupo_1073831" data-name="Grupo 1073831" clip-path="url(#clip-path-2)">
        <path id="Trazado_823065" data-name="Trazado 823065" d="M166.491,48.848c2.25.38,4.477.2,6.64.815a11.711,11.711,0,0,1,4.125,2.158,13.919,13.919,0,0,1,4.457,6.084,17.737,17.737,0,0,1,.718,2.727.768.768,0,0,0,.865.74,27.733,27.733,0,0,1,4.957.155c.388.086.7-.178.7-.74a11.1,11.1,0,0,1,.187-3.354,2.8,2.8,0,0,1,2.839-2.271q8.625-.058,17.249,0a3.214,3.214,0,0,1,3.034,1.758,4.292,4.292,0,0,1,.41,2.011q.018,24.152.006,48.3a3.593,3.593,0,0,1-1.7,3.451,3.759,3.759,0,0,1-1.924.436c-5.6.012-11.191.021-16.785-.014-1.657-.01-2.431-.45-3.141-2.372-.137-.369-.171-.752-.749-.734-1.7.051-3.4.045-5.1,0-.645-.016-.536.348-.749.8a22.6,22.6,0,0,1-1.754,3.4,10.9,10.9,0,0,1-5.739,4.37c-.98.3-.957.782-.957,1.559q.02,16.23.009,32.461c0,1.507-.306,2.838-1.7,3.644a4.147,4.147,0,0,1-2.178.441q-23.185,0-46.369,0c-1.109,0-2.217-.023-3.325-.013a3.059,3.059,0,0,1-2.789-2.913c-.042-10.4-.02-20.8-.017-31.2a3.053,3.053,0,0,1,.865-2.055c.713-.807,1.443-1.6,2.221-2.341.479-.453.547-.743.023-1.22a9.081,9.081,0,0,1-2.974-5.23,8.677,8.677,0,0,1,.763-5.6c.293-.579.2-.8-.256-1.163a8.921,8.921,0,0,1-2.78-11.04c.325-.734.3-1.128-.317-1.536-.673-.443-1.079-1.619-1.8-1.485-.647.12-1.172,1.048-1.718,1.65a6.1,6.1,0,0,1-6.949,1.6,3.306,3.306,0,0,1-1.915-2.871q-.018-4.52,0-9.039c0-.546-.053-.859-.644-1.142a9.461,9.461,0,0,1-5.27-9.478,8.465,8.465,0,0,1,3.018-5.774,4.917,4.917,0,0,1,1.4-1.07c1.328-.413,1.588-1.279,1.516-2.613-.113-2.1-.042-4.21-.02-6.315a1.432,1.432,0,0,0-.448-1.041c-1.474-1.735-3.109-3.3-4.623-4.995a4.773,4.773,0,0,1-.882-3.525c.029-1.571.007-1.569-1.464-1.573-1.515,0-3.029-.014-4.542-.021a3.349,3.349,0,0,1-2.881-2.989q-.016-5.734-.008-11.468a5.443,5.443,0,0,1,.048-1.938,3.333,3.333,0,0,1,3.057-2.232c.37-.018.741-.013,1.112-.013q40.249,0,80.5.039c1.428,0,3.058.079,3.928,1.758a1.617,1.617,0,0,1,.219.6,54.28,54.28,0,0,1,.176,6.047q-.007,2.477-.045,4.953c0,.259-.293.293-.41.44-2.421,3.042-5.333,5.576-7.928,8.439a8.144,8.144,0,0,1-1.8,1.771,1,1,0,0,0-.393.769m-42.668,60a2.622,2.622,0,0,0,2.622,2.22q9.077.04,18.153,0a2.861,2.861,0,0,0,2.6-3.706,3.093,3.093,0,0,0-3.35-2.406q-8.614-.048-17.226,0a2.809,2.809,0,0,0-2.827,2.389l-.046-.026.034.044a2.1,2.1,0,0,0,.044,1.495l-.035,0Zm22.058,30.26v.009q10.712,0,21.424.009c.56,0,.883-.008.88-.789-.027-10.335-.01-20.671-.027-31.005a8.536,8.536,0,0,0-1.875-5.31c-1.783-2.284-4.257-3.095-6.94-3.334a3.294,3.294,0,0,1-3.053-3.367c-.007-2.528-.048-5.056.026-7.581a3.8,3.8,0,0,0-1.112-2.934,28.632,28.632,0,0,1-6.37-11.108,37.3,37.3,0,0,1-1.225-5.5c-.08-.507-.246-.637-.7-.635q-7.141.023-14.283.011c-.611,0-.793.2-.515.794a6.879,6.879,0,0,1,.4,3.316c-.03.687-.875,1.37-.3,1.925.5.483,1.368.155,2.071.167,2.061.038,4.155-.22,6.17.28A9.26,9.26,0,0,1,146.691,86.4a1.625,1.625,0,0,0,.54,2.231,9.039,9.039,0,0,1,2.406,10.256,1.616,1.616,0,0,0,.6,2.224,9.488,9.488,0,0,1,.676,13.242,9.055,9.055,0,0,1-6.97,2.994c-5.04-.012-10.079.017-15.118-.014a2.191,2.191,0,0,0-1.784.8c-.935,1.034-1.9,2.043-2.893,3.014a1.591,1.591,0,0,0-.5,1.269c.014,5.249.024,10.5-.008,15.747,0,.754.172.973.914.97,7.111-.031,14.221-.019,21.332-.019m16.352-49.056v.865c0,.422.021.844-.006,1.264-.033.519.2.837.665.835a3.41,3.41,0,0,1,.973.226c4.748,1.335,7.838,4.537,9.492,9.333a19.877,19.877,0,0,1,.756,6.734c0,.268-.153.642.13.789.344.18.624-.094.9-.329a5.883,5.883,0,0,0,1.916-4.4c.131-2.449,1.236-3.579,3.613-3.584,2.5,0,5.008-.02,7.512.013.591.008.771-.138.771-.789q-.03-16.328,0-32.657c0-.641-.164-.8-.764-.793-2.72.033-5.44.026-8.161.005a2.73,2.73,0,0,1-2.618-1.8,8.531,8.531,0,0,1-.494-2.784A9.072,9.072,0,0,0,173.7,56.92a8.133,8.133,0,0,0-5.567-1.763q-22.815-.054-45.63-.019a2.158,2.158,0,0,0-1.066.167c-.34.177-.329.336-.2.647a8.22,8.22,0,0,0,7.567,5.422c5.9-.052,11.809-.028,17.713-.007a22.686,22.686,0,0,1,4.318.164,2.987,2.987,0,0,1,2.36,2.374c.258,1.1.126,2.214.3,3.324a28.7,28.7,0,0,0,3.074,9.462,17.4,17.4,0,0,0,8.626,7.918,22.764,22.764,0,0,0,8.09,1.629c.32.014.839-.261.836.509-.006,1.748-.165,3.5-.006,5.247.027.306-.058.476-.4.478a22.5,22.5,0,0,1-4.3-.288,32.707,32.707,0,0,1-7.173-2.127M137,30.258v.005q-16.6,0-33.2-.022c-.787,0-.948.213-.94,1q.063,6.172,0,12.344a2.421,2.421,0,0,0,.75,1.881c.971.968,1.935,1.949,2.837,2.984a1.2,1.2,0,0,0,1.023.461q24.994-.01,49.989,0a1.576,1.576,0,0,0,1.228-.5q5.865-6.154,11.735-12.3a2.339,2.339,0,0,0,.721-1.871,21.684,21.684,0,0,1,0-3.011c.061-.807-.166-1-.942-1q-16.6.047-33.2.021M194.869,83.14c0,6.963.012,13.926-.016,20.888,0,.726.166.912.862.9,3.429-.044,6.86-.041,10.289-.012.619.005.76-.19.759-.812q-.026-20.986,0-41.971c0-.65-.186-.8-.776-.793-3.429.025-6.86.033-10.289-.016-.727-.01-.846.227-.845.922.025,6.963.016,13.926.015,20.888M132.427,98.656c3.026,0,6.052.019,9.076-.007a2.843,2.843,0,0,0,2.744-3.552c-.35-1.983-1.748-2.573-3.533-2.588-5.649-.05-11.3-.023-16.949-.014a2.97,2.97,0,0,0-3.06,3.078,2.886,2.886,0,0,0,3.11,3.083q4.307,0,8.613,0M114.569,73.794c3.029,0,6.059.009,9.089,0a2.8,2.8,0,0,0,2.757-1.995c.37-1.892-.217-2.986-1.349-3.716a3.711,3.711,0,0,0-2.026-.472q-8.717-.051-17.434,0a2.988,2.988,0,0,0-2.729,3.223,2.93,2.93,0,0,0,2.79,2.958c2.968.01,5.935,0,8.9,0m14.92,12.433q4.45,0,8.9,0a3.215,3.215,0,0,0,2.12-.789A3.158,3.158,0,0,0,139,80.209a26.245,26.245,0,0,0-4.594-.164q-6.769-.039-13.537,0a3.033,3.033,0,0,0-3.159,3.106,3.144,3.144,0,0,0,3.157,3.12c2.868-.138,5.747-.039,8.621-.039m16.415,62.2v.01h20.2c2.055,0,2.013,0,2.063-2.16.019-.814-.259-.934-.94-.929-4.571.027-9.143.013-13.715.015q-13.852,0-27.706.011c-2.142,0-2.088.011-2.162,2.036-.034.912.268,1.038,1.037,1.035,7.074-.03,14.147-.018,21.22-.018M112.978,61.343c1.233,0,2.467-.019,3.7.008.619.013.806-.121.422-.739a13.408,13.408,0,0,1-1.843-4.715.846.846,0,0,0-.933-.776c-.778-.04-1.546.039-2.318.033-.862-.008-1.728.03-2.59-.014-.507-.026-.615.166-.607.66.027,1.615.03,3.232,0,4.848-.01.532.112.73.654.709,1.17-.043,2.343-.013,3.516-.013m-16.072-27.9v-.873c0-2.379,0-2.379-2.285-2.287a.528.528,0,0,1-.093,0c-.385-.05-.548.092-.543.532.02,1.713.009,3.427.009,5.14,0,.831.649.531.936.458.655-.167,1.528.615,1.969-.453a1.386,1.386,0,0,0,.008-.481q0-1.018,0-2.037m11.918,48.9c0,.646,0,1.292,0,1.937,0,.46.22.551.481.241a30.082,30.082,0,0,0,2.5-2.839,1.531,1.531,0,0,0,.279-1.446c-.187-.394-.725-.186-1.1-.189-2.16-.016-2.16-.009-2.155,2.3" transform="translate(-22.685 -5.34)"/>
        <path id="Trazado_823066" data-name="Trazado 823066" d="M54.836,168.884c-6.274,0-12.548.044-18.822-.021a26.451,26.451,0,0,1-7.592-1.436,28,28,0,0,1-4.874-1.682,36.69,36.69,0,0,1-5.228-2.886c-1.184-.9-2.422-1.719-3.6-2.627a30.307,30.307,0,0,1-5.264-5.389,58.018,58.018,0,0,1-5.85-9.26,24.586,24.586,0,0,1-1.893-5.306,58.9,58.9,0,0,1-1.43-7.122A38.1,38.1,0,0,1,.212,124.5a48.512,48.512,0,0,1,1.5-7.775A40.151,40.151,0,0,1,11.748,99.473a38.762,38.762,0,0,1,11.746-8.238,38.857,38.857,0,0,1,8.456-2.595A27.634,27.634,0,0,1,38.68,88a41.807,41.807,0,0,1,12.268,2.2A38.883,38.883,0,0,1,64.435,98.57a39.631,39.631,0,0,1,9.625,14.216,44.21,44.21,0,0,1,2.47,8.964,35.386,35.386,0,0,1-.38,15.285,41.241,41.241,0,0,1-3.049,9.277,35.737,35.737,0,0,1-4.931,8.017c-.429.5-.04.653.18.915,2.448,2.921,5.2,5.535,7.774,8.321a3,3,0,0,1,.527,3.738,2.923,2.923,0,0,1-2.621,1.573H54.836Zm12-6.494c-1.727-1.553-3.232-3.352-4.863-5.02a3.309,3.309,0,0,1-.191-4.8,27.067,27.067,0,0,0,4.618-6.091A34.027,34.027,0,0,0,71.261,129.3a35.833,35.833,0,0,0-1.237-10.211,32.8,32.8,0,0,0-5.548-11.627A32.271,32.271,0,0,0,50.6,96.672a33.693,33.693,0,0,0-10.737-2.41,28.4,28.4,0,0,0-9.415,1.068,32.324,32.324,0,0,0-19.193,14.424,34.389,34.389,0,0,0-5.216,15.769,34.758,34.758,0,0,0,.652,10.188A36.564,36.564,0,0,0,10.452,145.9a32.962,32.962,0,0,0,12.212,12.413,28.443,28.443,0,0,0,14,4.3c9.765.186,19.536.056,29.3.051.288,0,.626.127.87-.27" transform="translate(0 -19.552)"/>
        <path id="Trazado_823067" data-name="Trazado 823067" d="M60.739,26.49c.72.081.672.779.689,1.2a21.293,21.293,0,0,1-.142,5.114.743.743,0,0,1-.364.527,5.246,5.246,0,0,0-1.466.062q-5.689,1.727-11.382,3.44c-2.59.78-5.19,1.525-7.771,2.336a3.445,3.445,0,0,0-2.58,3.345,13.3,13.3,0,0,1-.5,2.894,8.845,8.845,0,0,1-9.6,6.14,9.172,9.172,0,0,1-7.693-8.832c-.094-2.014-1.011-3.228-2.781-3.421a11.855,11.855,0,0,1-3.448-.76,9.555,9.555,0,0,1-3.59-14.673,8.638,8.638,0,0,1,6.67-3.377,2.93,2.93,0,0,0,2.993-2.644,24.609,24.609,0,0,1,.8-3.991A8.727,8.727,0,0,1,33.25,9.281c2.951,1.684,4.236,4.514,4.5,7.932a3.356,3.356,0,0,0,2.3,3.165c2.582.958,5.253,1.59,7.871,2.412,2.776.871,5.569,1.683,8.357,2.516a26.445,26.445,0,0,0,4.462,1.184" transform="translate(-2.075 -1.792)" fill="#b2f1d6"/>
        <path id="Trazado_823068" data-name="Trazado 823068" d="M58.664,24.7A26.445,26.445,0,0,1,54.2,23.514c-2.787-.833-5.581-1.645-8.357-2.516-2.619-.822-5.29-1.454-7.871-2.412a3.356,3.356,0,0,1-2.3-3.165c-.263-3.417-1.548-6.248-4.5-7.932A8.727,8.727,0,0,0,18.5,12.057a24.609,24.609,0,0,0-.8,3.991,2.93,2.93,0,0,1-2.993,2.644,8.638,8.638,0,0,0-6.67,3.377,9.555,9.555,0,0,0,3.59,14.673,11.855,11.855,0,0,0,3.448.76c1.77.193,2.686,1.406,2.781,3.421a9.172,9.172,0,0,0,7.693,8.832,8.845,8.845,0,0,0,9.6-6.14,13.3,13.3,0,0,0,.5-2.894,3.445,3.445,0,0,1,2.58-3.345c2.581-.811,5.181-1.556,7.771-2.336q5.693-1.714,11.382-3.44a5.247,5.247,0,0,1,1.466-.062,17.046,17.046,0,0,0,.99,4.586c.232.737.183,1.225-.586,1.415-3.017.745-5.963,1.75-8.941,2.637-2.78.828-5.57,1.614-8.351,2.438a1.029,1.029,0,0,0-.763.9,15.335,15.335,0,0,1-6.278,9.849,15.014,15.014,0,0,1-9.4,2.624,13.334,13.334,0,0,1-7.9-3.258,14.991,14.991,0,0,1-5.15-8.456c-.14-.59-.284-1.012-1.03-1.156a13.806,13.806,0,0,1-7.611-4.667A15.409,15.409,0,0,1,.418,31.295a15.335,15.335,0,0,1,3-13.265,13.5,13.5,0,0,1,8.33-5.137c.468-.089.519-.434.555-.733a13.059,13.059,0,0,1,2.58-5.971A14.2,14.2,0,0,1,22.873.523a13.862,13.862,0,0,1,9.333.649c4.787,2.014,7.693,5.718,8.85,10.965.273,1.237.554,1.521,1.834,1.482.656-.019.991.534,1.577.625a43.524,43.524,0,0,1,5.279,1.446c1.791.517,3.569,1.2,5.377,1.715a35.9,35.9,0,0,0,4.492,1.283c.565.082.411.575.326.822-.583,1.689-.832,3.464-1.275,5.188" transform="translate(0 0)"/>
        <path id="Trazado_823069" data-name="Trazado 823069" d="M158.279,151.554c-7.11,0-14.221-.012-21.331.019-.742,0-.918-.215-.914-.97.031-5.249.022-10.5.008-15.747a1.591,1.591,0,0,1,.5-1.269c.994-.971,1.958-1.979,2.892-3.014a2.191,2.191,0,0,1,1.785-.8c5.039.031,10.078,0,15.117.013a9.054,9.054,0,0,0,6.971-2.994,9.488,9.488,0,0,0-.677-13.242,1.615,1.615,0,0,1-.6-2.224,9.042,9.042,0,0,0-2.406-10.256,1.626,1.626,0,0,1-.542-2.231,9.258,9.258,0,0,0-6.236-12.339c-2.014-.5-4.108-.242-6.168-.28-.7-.012-1.567.316-2.071-.167-.579-.555.266-1.238.3-1.925a6.906,6.906,0,0,0-.4-3.316c-.278-.6-.1-.795.515-.794q7.141.015,14.283-.011c.452,0,.617.128.7.635a37.285,37.285,0,0,0,1.224,5.5,28.632,28.632,0,0,0,6.37,11.108,3.8,3.8,0,0,1,1.112,2.934c-.073,2.525-.033,5.053-.027,7.581a3.3,3.3,0,0,0,3.054,3.367c2.682.24,5.156,1.05,6.939,3.334a8.523,8.523,0,0,1,1.875,5.31c.019,10.335,0,20.671.029,31.005,0,.781-.322.789-.881.789q-10.712-.021-21.424-.009Z" transform="translate(-35.083 -17.782)" fill="#05cbaa"/>
        <path id="Trazado_823070" data-name="Trazado 823070" d="M173.767,98.944a32.7,32.7,0,0,0,7.172,2.127,22.508,22.508,0,0,0,4.3.288c.342,0,.427-.172.4-.478-.158-1.749,0-3.5.007-5.247,0-.77-.516-.495-.836-.509a22.757,22.757,0,0,1-8.09-1.629,17.4,17.4,0,0,1-8.626-7.918,28.674,28.674,0,0,1-3.074-9.462c-.172-1.11-.041-2.221-.3-3.324a2.987,2.987,0,0,0-2.36-2.374,22.676,22.676,0,0,0-4.318-.164c-5.9-.021-11.81-.045-17.714.007a8.219,8.219,0,0,1-7.567-5.422c-.125-.311-.137-.471.2-.647a2.153,2.153,0,0,1,1.067-.166q22.814,0,45.629.018a8.129,8.129,0,0,1,5.567,1.764,9.067,9.067,0,0,1,3.221,6.064,8.551,8.551,0,0,0,.494,2.784,2.729,2.729,0,0,0,2.619,1.8c2.72.021,5.441.027,8.161-.005.6-.008.766.152.764.793q-.032,16.328,0,32.657c0,.65-.179.8-.77.789-2.5-.033-5.008-.018-7.512-.013-2.377,0-3.481,1.135-3.613,3.584a5.882,5.882,0,0,1-1.916,4.4c-.273.234-.553.508-.9.328-.283-.148-.131-.522-.129-.789a19.933,19.933,0,0,0-.756-6.734c-1.653-4.795-4.744-8-9.492-9.333a3.42,3.42,0,0,0-.974-.226c-.463,0-.7-.316-.664-.835.026-.42.006-.842.006-1.263v-.866" transform="translate(-34.218 -14.228)" fill="#feccbd"/>
        <path id="Trazado_823071" data-name="Trazado 823071" d="M142.179,32.031q16.6,0,33.2-.021c.778,0,1,.193.944,1a21.341,21.341,0,0,0,0,3.011,2.336,2.336,0,0,1-.723,1.87q-5.865,6.154-11.734,12.3a1.581,1.581,0,0,1-1.228.5q-24.995-.015-49.988,0a1.2,1.2,0,0,1-1.023-.46c-.9-1.036-1.866-2.016-2.837-2.984a2.418,2.418,0,0,1-.75-1.881q.051-6.172,0-12.344c-.008-.792.153-1.007.94-1q16.6.048,33.2.022Zm-16.32,6.323c0-.971-.028-1.748.01-2.521.026-.52-.086-.73-.64-.716-1.57.04-3.143.035-4.714,0-.493-.011-.62.148-.611.649.029,1.614.049,3.231-.007,4.843-.024.691.231.794.787.761.706-.043,1.417,0,2.125-.012.982-.01,2.3.368,2.855-.151.629-.591.11-2,.194-2.856m-11.633-3.222c-.96,0-1.763.032-2.562-.012-.515-.028-.682.127-.67.686q.053,2.47,0,4.943c-.012.544.184.629.635.623,1.573-.024,3.145-.027,4.717,0,.472.009.647-.114.622-.637-.042-.87,0-1.745-.013-2.616-.01-.963.32-2.263-.146-2.8-.538-.621-1.8-.1-2.581-.187" transform="translate(-27.862 -7.114)" fill="#f8f9fb"/>
        <path id="Trazado_823072" data-name="Trazado 823072" d="M232.016,93.8c0-6.963.01-13.926-.015-20.888,0-.7.118-.933.843-.923,3.429.049,6.86.04,10.29.016.59-.005.776.142.775.793q-.028,20.984,0,41.97c0,.622-.14.817-.758.812q-5.144-.044-10.289.012c-.695.009-.865-.177-.862-.9.028-6.962.017-13.926.017-20.888" transform="translate(-59.832 -15.998)" fill="#a25fe5"/>
        <path id="Trazado_823073" data-name="Trazado 823073" d="M143.806,118.215q-4.307,0-8.613,0a2.885,2.885,0,0,1-3.11-3.082,2.971,2.971,0,0,1,3.06-3.079c5.65-.009,11.3-.035,16.948.015,1.786.016,3.184.6,3.534,2.588a2.843,2.843,0,0,1-2.744,3.552c-3.025.026-6.05.007-9.076.008" transform="translate(-34.064 -24.899)" fill="#feccbd"/>
        <path id="Trazado_823074" data-name="Trazado 823074" d="M119.753,86.238c-2.968,0-5.935.008-8.9,0a2.93,2.93,0,0,1-2.79-2.958,2.988,2.988,0,0,1,2.729-3.223q8.717-.042,17.434,0a3.714,3.714,0,0,1,2.027.472c1.131.73,1.719,1.825,1.348,3.716a2.793,2.793,0,0,1-2.757,1.995c-3.03.014-6.059,0-9.089,0" transform="translate(-27.868 -17.786)" fill="#feccbd"/>
        <path id="Trazado_823075" data-name="Trazado 823075" d="M136.21,130.468a2.811,2.811,0,0,1,2.827-2.389q8.612-.043,17.226,0a3.092,3.092,0,0,1,3.35,2.406,2.862,2.862,0,0,1-2.6,3.706q-9.076.054-18.153,0a2.622,2.622,0,0,1-2.622-2.22l.007.009a2.1,2.1,0,0,1-.043-1.494l.012-.018" transform="translate(-35.095 -28.459)" fill="#feccbd"/>
        <path id="Trazado_823076" data-name="Trazado 823076" d="M139.828,102.228c-2.874,0-5.753-.1-8.621.039a3.145,3.145,0,0,1-3.158-3.12,3.034,3.034,0,0,1,3.159-3.106q6.769-.023,13.537,0a26.161,26.161,0,0,1,4.593.164,3.158,3.158,0,0,1,1.51,5.23,3.216,3.216,0,0,1-2.12.789q-4.45,0-8.9,0" transform="translate(-33.023 -21.34)" fill="#feccbd"/>
        <path id="Trazado_823077" data-name="Trazado 823077" d="M158.306,183.088c-7.074,0-14.147-.012-21.22.018-.77,0-1.071-.124-1.037-1.035.075-2.026.02-2.035,2.161-2.036q13.853-.009,27.707-.012c4.571,0,9.143.013,13.714-.015.681,0,.96.116.941.93-.051,2.159-.009,2.16-2.065,2.16h-20.2Z" transform="translate(-35.086 -40.005)" fill="#05cbaa"/>
        <path id="Trazado_823078" data-name="Trazado 823078" d="M120.222,70.224c-1.172,0-2.345-.03-3.515.013-.542.019-.663-.177-.653-.709.03-1.615.027-3.232,0-4.848-.009-.493.1-.686.606-.66.862.044,1.727.006,2.591.013.772.007,1.54-.073,2.318-.032a.847.847,0,0,1,.934.776,13.44,13.44,0,0,0,1.841,4.715c.385.618.2.752-.421.739-1.233-.026-2.467-.008-3.7-.008" transform="translate(-29.93 -14.221)" fill="#feccbd"/>
        <path id="Trazado_823079" data-name="Trazado 823079" d="M99,35.219v2.037a1.369,1.369,0,0,1-.008.481c-.442,1.067-1.313.285-1.969.453-.286.072-.936.372-.936-.458,0-1.713.012-3.427-.009-5.14-.005-.44.158-.582.542-.532a.616.616,0,0,0,.093,0C99,31.967,99,31.967,99,34.347v.873" transform="translate(-24.778 -7.119)" fill="#a25fe5"/>
        <path id="Trazado_823080" data-name="Trazado 823080" d="M116.073,98.328c0-2.3,0-2.312,2.155-2.3.379,0,.917-.2,1.1.189a1.531,1.531,0,0,1-.279,1.446,30.082,30.082,0,0,1-2.5,2.839c-.26.31-.485.219-.481-.241.006-.646,0-1.292,0-1.937" transform="translate(-29.934 -21.331)" fill="#feccbd"/>
        <path id="Trazado_823081" data-name="Trazado 823081" d="M136.238,131.15l-.012.017-.034-.044Z" transform="translate(-35.123 -29.141)" fill="#a25fe5"/>
        <path id="Trazado_823082" data-name="Trazado 823082" d="M136.284,133.1l-.007-.009-.027,0Z" transform="translate(-35.138 -29.578)" fill="#a25fe5"/>
        <path id="Trazado_823083" data-name="Trazado 823083" d="M68.89,164.171c-.244.4-.582.27-.87.27-9.768.005-19.539.136-29.3-.05a28.444,28.444,0,0,1-14-4.3,32.957,32.957,0,0,1-12.212-12.413,36.55,36.55,0,0,1-3.762-10.183,34.765,34.765,0,0,1-.651-10.189,34.382,34.382,0,0,1,5.216-15.768A32.321,32.321,0,0,1,32.5,97.113a28.426,28.426,0,0,1,9.415-1.068,33.655,33.655,0,0,1,10.737,2.41,32.269,32.269,0,0,1,13.877,10.79,32.8,32.8,0,0,1,5.548,11.627,35.8,35.8,0,0,1,1.237,10.21,34.038,34.038,0,0,1-4.862,17.18,27.048,27.048,0,0,1-4.619,6.091,3.31,3.31,0,0,0,.191,4.8c1.631,1.667,3.135,3.466,4.862,5.019m-28.266-5.949c7.345.215,15.028-3.585,19.747-9.154a28.32,28.32,0,0,0,6.847-21.5c-1.135-13.176-11.767-25.152-26.282-25.312S14.188,114.39,13.983,130.184c-.2,15.663,12.862,28.4,26.641,28.038" transform="translate(-2.057 -21.334)" fill="#05cbaa"/>
        <path id="Trazado_823084" data-name="Trazado 823084" d="M129.98,39.242c-.085.855.435,2.265-.194,2.856-.551.519-1.873.141-2.855.151-.709.007-1.42-.031-2.125.012-.557.033-.812-.07-.787-.761.056-1.612.036-3.229.007-4.843-.009-.5.118-.66.611-.649,1.571.033,3.144.039,4.714,0,.554-.015.666.2.64.716-.038.773-.01,1.549-.01,2.521" transform="translate(-31.984 -8.002)"/>
        <path id="Trazado_823085" data-name="Trazado 823085" d="M115.253,35.989c.784.086,2.043-.433,2.581.187.466.537.137,1.838.146,2.8.01.872-.028,1.746.013,2.616.025.523-.15.646-.622.637-1.572-.029-3.144-.026-4.717,0-.451.006-.647-.079-.635-.623q.055-2.471,0-4.943c-.012-.559.155-.714.67-.686.8.044,1.6.012,2.562.012" transform="translate(-28.889 -7.971)"/>
        <path id="Trazado_823086" data-name="Trazado 823086" d="M42.711,160.011c-13.779.364-26.844-12.374-26.641-28.038.2-15.795,12.428-28.089,26.953-27.929S68.17,116.182,69.3,129.357a28.318,28.318,0,0,1-6.847,21.5c-4.719,5.57-12.4,9.37-19.747,9.155M22,132.055c-.24,11.417,9.166,22.581,22.2,21.709a19.9,19.9,0,0,0,14.651-7.953A21.759,21.759,0,0,0,63.4,129.855c-.919-10.291-8.706-19.408-20.6-19.581-11.656-.17-20.93,9.941-20.8,21.781" transform="translate(-4.144 -23.122)"/>
        <path id="Trazado_823087" data-name="Trazado 823087" d="M24.061,133.835c-.128-11.841,9.145-21.951,20.8-21.781,11.89.173,19.677,9.29,20.6,19.581a21.755,21.755,0,0,1-4.551,15.957,19.9,19.9,0,0,1-14.651,7.953c-13.03.872-22.435-10.292-22.2-21.709M38.88,146.259a4.625,4.625,0,0,0,2.889-1.767c2.437-2.483,4.816-5.027,7.218-7.547q4.554-4.775,9.11-9.547c.364-.381.773-.782.207-1.282-1.134-1-2.1-2.18-3.13-3.284a.653.653,0,0,0-1.106,0c-.453.487-.914.965-1.371,1.447q-6.531,6.891-13.06,13.784c-.432.456-.759.837-1.356.091-.81-1.013-1.783-1.881-2.664-2.835-.437-.474-.784-.488-1.23.009q-1.489,1.664-3.051,3.257c-.37.379-.358.557.021.967,1.692,1.83,3.512,3.526,5.1,5.473a3.077,3.077,0,0,0,2.426,1.233" transform="translate(-6.204 -24.902)" fill="#b2f1d6"/>
        <path id="Trazado_823088" data-name="Trazado 823088" d="M41.315,149.253a3.077,3.077,0,0,1-2.426-1.233c-1.587-1.947-3.406-3.643-5.1-5.473-.379-.41-.39-.588-.021-.967q1.557-1.595,3.051-3.257c.445-.5.793-.482,1.23-.009.881.954,1.854,1.822,2.664,2.835.6.746.924.365,1.356-.091q6.528-6.895,13.06-13.784c.457-.482.919-.961,1.371-1.447a.653.653,0,0,1,1.106,0c1.034,1.1,2,2.282,3.13,3.285.566.5.157.9-.207,1.282q-4.557,4.772-9.11,9.547c-2.4,2.519-4.781,5.064-7.218,7.547a4.624,4.624,0,0,1-2.889,1.767" transform="translate(-8.639 -27.895)"/>
      </g>
    </g>
  </g>
</svg>
