<svg xmlns="http://www.w3.org/2000/svg" xmlns:xlink="http://www.w3.org/1999/xlink" width="70.454" height="89.182" viewBox="0 0 70.454 89.182">
  <defs>
    <clipPath id="clip-path">
      <rect id="Rectángulo_377754" data-name="Rectángulo 377754" width="68.929" height="87.993" fill="none"/>
    </clipPath>
  </defs>
  <g id="Grupo_1073528" data-name="Grupo 1073528" transform="translate(-9.357 -9.836) rotate(9)">
    <g id="Grupo_1073527" data-name="Grupo 1073527" transform="translate(12.297 8.01) rotate(-8)" clip-path="url(#clip-path)">
      <path id="Trazado_822058" data-name="Trazado 822058" d="M69.082,20.288q0,5.348.007,10.7,0,25.623-.018,51.246a8.674,8.674,0,0,1-.2,2.468,4.4,4.4,0,0,1-1.462,2.167,4.688,4.688,0,0,1-3.1,1.1q-22.593.012-45.186.013c-4.807,0-9.613.032-14.42-.02a3.905,3.905,0,0,1-3.374-1.828A6.594,6.594,0,0,1,.716,85.2,3.73,3.73,0,0,1,.3,83.169a.538.538,0,0,0-.018-.6c.008-.3.023-.6.023-.9Q.307,43.437.3,5.206A4.986,4.986,0,0,1,1.067,2.1,4.6,4.6,0,0,1,4.568.076C5.962-.04,7.352.011,8.743.01Q28.919,0,49.095.015a7.541,7.541,0,0,1,3.74.76,8.724,8.724,0,0,1,1.94,1.5q3.61,3.605,7.2,7.225,2.215,2.224,4.428,4.451a13.026,13.026,0,0,1,2.042,2.489,4.784,4.784,0,0,1,.438,1.41,8.136,8.136,0,0,1,.2,1.823.358.358,0,0,0,0,.617M3.2,43.931q0,19.61,0,39.22a2.3,2.3,0,0,0,.17.943,1.717,1.717,0,0,0,1.8.939q29.12,0,58.239-.01a7,7,0,0,0,1.322-.06,1.464,1.464,0,0,0,1.214-.953,5.861,5.861,0,0,0,.244-2q0-30.65.012-61.3c0-.36-.086-.44-.439-.439q-6.226.02-12.452,0a3.549,3.549,0,0,1-1.761-.446,4.808,4.808,0,0,1-2.622-4.461c.006-2.32-.006-4.639,0-6.959a3.21,3.21,0,0,1,.061-.98,1.462,1.462,0,0,1,1.5-1.063c.665.017,1.038.361,1.262,1.09a2.063,2.063,0,0,1,.071.628c0,2.491-.006,4.982-.008,7.473a1.9,1.9,0,0,0,.175.766,1.758,1.758,0,0,0,1.84,1.012q5.691,0,11.382.005c.083,0,.189.032.234-.055.06-.117-.058-.179-.122-.244-.5-.5-1.006-1-1.507-1.5Q62.5,14.21,61.186,12.885c-.964-.974-1.921-1.956-2.888-2.929s-1.945-1.932-2.912-2.9c-.759-.764-1.545-1.505-2.255-2.314a4.744,4.744,0,0,0-3.8-1.8q-21.973.051-43.947.015c-.256,0-.513.024-.768.049A1.531,1.531,0,0,0,3.4,3.822a2.546,2.546,0,0,0-.2,1.318V43.931" transform="translate(-0.183 0)" fill="#060607"/>
      <path id="Trazado_822059" data-name="Trazado 822059" d="M200.119,57.851a.359.359,0,0,1,0-.617,1.663,1.663,0,0,1,0,.617" transform="translate(-131.22 -37.562)" fill="#393a3d"/>
      <path id="Trazado_822060" data-name="Trazado 822060" d="M.1,240.223a.538.538,0,0,1,.018.6.464.464,0,0,1-.018-.6" transform="translate(0 -157.655)" fill="#393a3d"/>
      <path id="Trazado_822061" data-name="Trazado 822061" d="M8.785,49.551V10.761a2.548,2.548,0,0,1,.2-1.318A1.533,1.533,0,0,1,10.2,8.628c.255-.025.512-.049.768-.049q21.973,0,43.947-.015a4.743,4.743,0,0,1,3.8,1.8c.71.808,1.5,1.55,2.255,2.314.967.972,1.945,1.932,2.912,2.9s1.923,1.954,2.888,2.928q1.313,1.327,2.634,2.646c.5.5,1.007,1,1.507,1.5.064.065.181.128.122.244-.045.088-.151.056-.234.056q-5.691,0-11.382-.006a1.758,1.758,0,0,1-1.84-1.011,1.9,1.9,0,0,1-.175-.767c0-2.491.009-4.982.008-7.473a2.075,2.075,0,0,0-.071-.628c-.224-.729-.6-1.072-1.262-1.09a1.462,1.462,0,0,0-1.5,1.063,3.2,3.2,0,0,0-.061.98c-.009,2.32,0,4.639,0,6.959a4.808,4.808,0,0,0,2.622,4.462,3.549,3.549,0,0,0,1.761.446q6.226.027,12.452,0c.353,0,.44.08.439.439q-.017,30.65-.012,61.3a5.861,5.861,0,0,1-.244,2,1.464,1.464,0,0,1-1.214.953,7.053,7.053,0,0,1-1.322.06q-29.12.009-58.239.009a1.718,1.718,0,0,1-1.8-.939,2.3,2.3,0,0,1-.17-.943q0-19.61,0-39.22M26.007,25.9c-.2-1.023-.721-1.336-1.761-1.363-1.866-.048-3.734-.019-5.6-.009a3.915,3.915,0,0,0-1.005.108,3.143,3.143,0,0,0-2.355,3.048c.014,3.119,0,6.238.006,9.358a2.69,2.69,0,0,0,.295,1.218,3.053,3.053,0,0,0,2.928,1.788c2.223-.016,4.447-.013,6.67-.031.969-.008,1.937.069,2.906-.016a2.811,2.811,0,0,0,1.747-.868,3.156,3.156,0,0,0,.887-2.276c-.009-2.275,0-4.55-.005-6.825a.072.072,0,0,0,0-.118.624.624,0,0,1,.236-.391c.334-.347.673-.692.991-1.053a1.527,1.527,0,0,0,.115-1.673,1.341,1.341,0,0,0-1.945-.426c-.311.181-.513.481-.807.675a.681.681,0,0,1-.366-.324,1.208,1.208,0,0,0-.915-.634c-.672-.085-1.349-.128-2.023-.188m0,20.534A1.453,1.453,0,0,0,24.439,45c-2.163.007-4.328-.093-6.491.054a2.817,2.817,0,0,0-2.642,2.867c-.043,3.12-.007,6.241-.024,9.361a3.067,3.067,0,0,0,.419,1.643,2.907,2.907,0,0,0,2.522,1.58c3.293.035,6.587.047,9.88-.006a2.694,2.694,0,0,0,2-1.209,3.624,3.624,0,0,0,.623-2.4q-.011-2.941-.009-5.883a1.428,1.428,0,0,1,.564-1.343,5.391,5.391,0,0,0,.74-.758,1.374,1.374,0,0,0,.256-1.363c-.129-.643-1.127-1.036-1.79-.885-.517.118-.763.541-1.143.809a.759.759,0,0,1-.383-.255,1.588,1.588,0,0,0-1.49-.7A5.23,5.23,0,0,1,26,46.436M15.289,73.2q0,2.255,0,4.51a4.458,4.458,0,0,0,.038.85,3.163,3.163,0,0,0,3.085,2.463c3.222-.068,6.446-.035,9.669-.047a2.422,2.422,0,0,0,1.555-.705,3.351,3.351,0,0,0,1.1-2.776c-.017-2.663-.008-5.327-.014-7.99a6.62,6.62,0,0,0-.1-1.609,2.913,2.913,0,0,0-1.9-2.224,4.772,4.772,0,0,0-1.6-.238c-2.439-.023-4.878-.014-7.317-.008a14.548,14.548,0,0,0-1.948.075A2.9,2.9,0,0,0,15.3,68.3c-.046,1.631-.011,3.265-.011,4.9M49.645,57.4V57.4q6.654,0,13.308,0a9.777,9.777,0,0,0,1.023-.057,1.287,1.287,0,0,0,1.116-.9,1.363,1.363,0,0,0-.265-1.482,2.109,2.109,0,0,0-1.71-.53q-13.393-.024-26.786-.018a4.042,4.042,0,0,0-1.426.262,1.276,1.276,0,0,0-.725,1.5A1.623,1.623,0,0,0,36,57.394q6.825,0,13.65,0m.012-20.5q6.971,0,13.942.006a1.726,1.726,0,0,0,1.18-.422,1.407,1.407,0,0,0,.4-1.374,1.452,1.452,0,0,0-1.2-1.052,5.718,5.718,0,0,0-1.005-.073l-26.945,0a6.731,6.731,0,0,0-.7.07,1.477,1.477,0,0,0-1.2,1.455,1.544,1.544,0,0,0,1.5,1.392q7.014,0,14.028,0M46.388,77.856V77.85h2.823c2.652,0,5.3.025,7.956,0,.984-.009,1.509-.271,1.748-1.291.072-.306-.253-1.31-.49-1.35a8.589,8.589,0,0,0-1.457-.318q-9.647.011-19.294.008c-.613,0-1.227-.009-1.839.021a2.527,2.527,0,0,0-1.07.173,1.564,1.564,0,0,0,0,2.514,2.514,2.514,0,0,0,1.525.243c3.365.012,6.73.006,10.094.006m-.761-29.709v0q-1.454,0-2.908,0c-2.366,0-4.733,0-7.1.018a1.448,1.448,0,0,0-1.492,1.5,1.484,1.484,0,0,0,1.621,1.409q9.3,0,18.6.01A11.928,11.928,0,0,0,56.214,51a1.405,1.405,0,0,0,.086-2.756,5.888,5.888,0,0,0-1.179-.1q-4.747.007-9.494,0m-2.409,23.42v.021q3.442,0,6.884,0a10.739,10.739,0,0,0,1.362-.065,1.81,1.81,0,0,0,1.138-.959,1.61,1.61,0,0,0-.505-1.579,2.127,2.127,0,0,0-1.3-.372q-5.3-.007-10.6,0c-1.439,0-2.879.008-4.319,0a1.645,1.645,0,0,0-1.662.96,1.493,1.493,0,0,0,1.35,2q3.826,0,7.652,0m-.494-40.941V30.6c2.28,0,4.56-.012,6.84.008a1.532,1.532,0,0,0,1.459-1,1.444,1.444,0,0,0-.613-1.676,2.41,2.41,0,0,0-1.371-.3q-6.391,0-12.781,0a4.87,4.87,0,0,0-.976.077A1.507,1.507,0,0,0,34.22,29.6a1.746,1.746,0,0,0,1.536,1.025q3.484-.006,6.967,0" transform="translate(-5.764 -5.62)" fill="#fff"/>
      <path id="Trazado_822062" data-name="Trazado 822062" d="M41.756,117c.38-.268.626-.692,1.143-.809.664-.151,1.662.243,1.79.886a1.375,1.375,0,0,1-.256,1.363,5.427,5.427,0,0,1-.74.758,1.427,1.427,0,0,0-.565,1.343q0,2.941.009,5.882a3.626,3.626,0,0,1-.623,2.4,2.694,2.694,0,0,1-2,1.209c-3.292.053-6.587.042-9.88.007a2.907,2.907,0,0,1-2.522-1.58,3.06,3.06,0,0,1-.419-1.643c.017-3.12-.019-6.241.024-9.361a2.818,2.818,0,0,1,2.642-2.867c2.163-.147,4.327-.046,6.491-.054a1.453,1.453,0,0,1,1.563,1.433,1.424,1.424,0,0,1-1.475,1.466c-1.938.037-3.876.04-5.814.027-.4,0-.5.111-.5.5.015,2.8.008,5.609.01,8.414,0,.715.005.721.737.723q3.955.006,7.911,0c.228,0,.456-.022.683-.021.191,0,.287-.062.287-.272,0-1.259.007-2.518.01-3.777,0-.068.014-.154-.068-.186-.1-.04-.129.049-.189.11-.652.655-1.282,1.338-1.981,1.94a1.324,1.324,0,0,1-1.965.02c-.409-.352-.774-.748-1.147-1.135-.684-.709-1.386-1.4-2.068-2.111a1.3,1.3,0,0,1-.421-1.059,1.6,1.6,0,0,1,.946-1.255,1.56,1.56,0,0,1,1.569.36c.606.625,1.221,1.239,1.822,1.867.165.173.272.245.457.012a8.289,8.289,0,0,1,.637-.631Q39.8,118.983,41.756,117" transform="translate(-18.174 -75.147)" fill="#060607"/>
      <path id="Trazado_822063" data-name="Trazado 822063" d="M43.133,60.488c0,2.275,0,4.55.006,6.825a3.155,3.155,0,0,1-.887,2.276,2.81,2.81,0,0,1-1.747.868c-.969.086-1.938.009-2.906.017-2.223.018-4.447.015-6.67.031A3.053,3.053,0,0,1,28,68.716a2.686,2.686,0,0,1-.295-1.218c0-3.119.008-6.239-.006-9.358a3.143,3.143,0,0,1,2.355-3.048,3.915,3.915,0,0,1,1.005-.108c1.867-.01,3.736-.039,5.6.009,1.039.027,1.564.341,1.761,1.363a1.552,1.552,0,0,1-1.61,1.573c-1.795-.027-3.59-.009-5.385,0-.856,0-.8-.119-.8.81Q30.62,63,30.617,67.273l-.063.022.062.051,0,.092-.058.061.067.015a.335.335,0,0,0,.111.046c3.081,0,6.161,0,9.242.005.264,0,.266-.136.265-.324,0-.744,0-1.489,0-2.233,0-.492-.019-.984-.02-1.477,0-.068.139-.144.01-.2a.325.325,0,0,0-.248.008.961.961,0,0,0-.217.2c-.554.555-1.1,1.113-1.662,1.664a1.454,1.454,0,0,1-2.064.222c-1.124-1.112-2.291-2.185-3.309-3.4a1.347,1.347,0,0,1,.051-1.8,1.578,1.578,0,0,1,2.341.145A19.931,19.931,0,0,0,36.756,62c.162.141.275.161.43.01.3-.3.628-.574.928-.875q1.811-1.811,3.611-3.631c.294-.194.5-.494.807-.675a1.341,1.341,0,0,1,1.945.426,1.527,1.527,0,0,1-.115,1.673c-.318.362-.657.706-.991,1.053a.624.624,0,0,0-.236.391c0,.039,0,.078,0,.117" transform="translate(-18.179 -36.074)" fill="#060607"/>
      <path id="Trazado_822064" data-name="Trazado 822064" d="M27.69,181.754c0-1.632-.035-3.266.011-4.9a2.9,2.9,0,0,1,2.544-2.8,14.539,14.539,0,0,1,1.947-.075c2.439-.006,4.878-.015,7.317.008a4.769,4.769,0,0,1,1.6.238,2.912,2.912,0,0,1,1.9,2.224,6.621,6.621,0,0,1,.1,1.609c.006,2.663,0,5.327.014,7.99a3.353,3.353,0,0,1-1.1,2.776,2.422,2.422,0,0,1-1.555.705c-3.223.013-6.447-.021-9.669.047a3.164,3.164,0,0,1-3.085-2.463,4.516,4.516,0,0,1-.038-.85q0-2.255,0-4.51m7.716,4.855v0c1.468,0,2.937-.014,4.4.01.358.006.422-.108.421-.435-.013-2.891-.02-5.782,0-8.673,0-.448-.132-.546-.552-.543-2.837.017-5.674.009-8.511.008-.559,0-.56,0-.559.566,0,2.92.009,5.839,0,8.759,0,.3.121.315.352.314,1.483-.007,2.965,0,4.448,0" transform="translate(-18.164 -114.176)" fill="#060607"/>
      <path id="Trazado_822065" data-name="Trazado 822065" d="M98.047,144.95q-6.825,0-13.65,0a1.624,1.624,0,0,1-1.817-1.214,1.277,1.277,0,0,1,.726-1.5,4.049,4.049,0,0,1,1.426-.262q13.394.013,26.786.017a2.109,2.109,0,0,1,1.71.53,1.363,1.363,0,0,1,.265,1.482,1.287,1.287,0,0,1-1.117.9,9.679,9.679,0,0,1-1.023.057q-6.654.006-13.308,0Z" transform="translate(-54.166 -93.175)" fill="#060607"/>
      <path id="Trazado_822066" data-name="Trazado 822066" d="M98.032,85.424q-7.014,0-14.028,0a1.545,1.545,0,0,1-1.5-1.392,1.477,1.477,0,0,1,1.2-1.455,6.831,6.831,0,0,1,.7-.07l26.944,0a5.755,5.755,0,0,1,1.006.073,1.454,1.454,0,0,1,1.2,1.052,1.407,1.407,0,0,1-.4,1.374,1.725,1.725,0,0,1-1.18.421q-6.971-.013-13.942-.006" transform="translate(-54.139 -54.147)" fill="#060607"/>
      <path id="Trazado_822067" data-name="Trazado 822067" d="M94.794,204.5c-3.365,0-6.73.006-10.095-.007a2.512,2.512,0,0,1-1.525-.243,1.564,1.564,0,0,1,0-2.514,2.524,2.524,0,0,1,1.07-.173c.612-.029,1.226-.02,1.839-.021q9.647,0,19.294-.008a8.6,8.6,0,0,1,1.457.318c.237.04.562,1.044.49,1.35-.24,1.019-.765,1.281-1.748,1.291-2.652.025-5.3,0-7.956,0H94.794Z" transform="translate(-54.17 -132.266)" fill="#060607"/>
      <path id="Trazado_822068" data-name="Trazado 822068" d="M47.347,119.788q-1.954,1.981-3.908,3.962a8.292,8.292,0,0,0-.637.631c-.185.232-.292.16-.457-.012-.6-.628-1.216-1.243-1.822-1.867a1.56,1.56,0,0,0-1.569-.36,1.6,1.6,0,0,0-.946,1.255,1.3,1.3,0,0,0,.421,1.059c.683.71,1.384,1.4,2.068,2.111.374.388.738.784,1.147,1.135a1.324,1.324,0,0,0,1.965-.02c.7-.6,1.329-1.284,1.981-1.94.06-.061.087-.15.189-.11.082.032.068.117.068.186,0,1.259-.01,2.518-.01,3.777,0,.21-.1.273-.287.272-.228,0-.455.021-.683.021q-3.955,0-7.911,0c-.732,0-.736-.008-.737-.723,0-2.8.005-5.609-.01-8.414,0-.392.1-.506.5-.5,1.938.012,3.877.01,5.814-.027A1.424,1.424,0,0,0,44,118.751a5.242,5.242,0,0,0,1.471.082,1.587,1.587,0,0,1,1.49.7.759.759,0,0,0,.383.255" transform="translate(-23.765 -77.934)" fill="#fff"/>
      <path id="Trazado_822069" data-name="Trazado 822069" d="M36.181,69.926q.006-4.268.013-8.537c0-.929-.058-.807.8-.81,1.795-.006,3.59-.024,5.385,0a1.551,1.551,0,0,0,1.61-1.573c.675.06,1.352.1,2.024.188a1.208,1.208,0,0,1,.915.634.681.681,0,0,0,.366.324q-1.8,1.816-3.611,3.631c-.3.3-.624.579-.929.875-.156.151-.268.132-.43-.01a19.886,19.886,0,0,1-1.636-1.624,1.578,1.578,0,0,0-2.341-.144,1.346,1.346,0,0,0-.051,1.8c1.018,1.214,2.185,2.287,3.309,3.4a1.455,1.455,0,0,0,2.064-.222c.557-.551,1.108-1.11,1.662-1.664a.958.958,0,0,1,.217-.2.325.325,0,0,1,.248-.008c.129.058-.01.134-.01.2,0,.493.018.985.02,1.477,0,.744,0,1.489,0,2.233,0,.188,0,.325-.265.324-3.08-.008-6.161,0-9.241-.005a.334.334,0,0,1-.111-.046c.005-.009.017-.02.015-.027a.254.254,0,0,0-.023-.049c0-.031,0-.061,0-.091a.375.375,0,0,0,0-.074" transform="translate(-23.744 -38.727)" fill="#fff"/>
      <path id="Trazado_822070" data-name="Trazado 822070" d="M94.011,123.72q4.747,0,9.494,0a5.886,5.886,0,0,1,1.179.1,1.405,1.405,0,0,1-.086,2.755,11.885,11.885,0,0,1-1.862.086q-9.3,0-18.6-.01a1.484,1.484,0,0,1-1.621-1.409,1.447,1.447,0,0,1,1.491-1.5c2.366-.019,4.733-.014,7.1-.018q1.454,0,2.908,0Z" transform="translate(-54.149 -81.193)" fill="#060607"/>
      <path id="Trazado_822071" data-name="Trazado 822071" d="M91.588,186.218q-3.826,0-7.652,0a1.493,1.493,0,0,1-1.35-2,1.645,1.645,0,0,1,1.662-.961c1.439.012,2.879,0,4.319,0q5.3,0,10.6,0a2.132,2.132,0,0,1,1.3.372,1.611,1.611,0,0,1,.5,1.579,1.808,1.808,0,0,1-1.138.959,10.74,10.74,0,0,1-1.362.065q-3.442-.005-6.884,0v-.021" transform="translate(-54.134 -120.271)" fill="#060607"/>
      <path id="Trazado_822072" data-name="Trazado 822072" d="M91.124,67.038q-3.484,0-6.967,0a1.746,1.746,0,0,1-1.536-1.025,1.507,1.507,0,0,1,1.061-1.889,4.871,4.871,0,0,1,.976-.077q6.391-.007,12.781,0a2.41,2.41,0,0,1,1.371.3,1.444,1.444,0,0,1,.613,1.676,1.532,1.532,0,0,1-1.459,1c-2.28-.02-4.56-.008-6.84-.008Z" transform="translate(-54.164 -42.032)" fill="#060607"/>
      <path id="Trazado_822073" data-name="Trazado 822073" d="M72.6,70.807c0-.039,0-.078,0-.117a.072.072,0,0,1,0,.117" transform="translate(-47.648 -46.393)" fill="#737980"/>
      <path id="Trazado_822074" data-name="Trazado 822074" d="M36.066,90.771a.375.375,0,0,1,0,.074L36,90.793l.063-.022" transform="translate(-23.628 -59.572)" fill="#dbe4f5"/>
      <path id="Trazado_822075" data-name="Trazado 822075" d="M36.067,91.251a.261.261,0,0,1,.023.048c0,.008-.01.018-.015.027l-.067-.015.058-.061" transform="translate(-23.632 -59.887)" fill="#737980"/>
      <path id="Trazado_822076" data-name="Trazado 822076" d="M41,192.321c-1.483,0-2.965,0-4.448,0-.23,0-.353-.015-.352-.314.012-2.92,0-5.839,0-8.759,0-.567,0-.566.559-.566,2.837,0,5.674.009,8.511-.008.42,0,.555.1.552.543-.021,2.891-.014,5.782,0,8.673,0,.327-.063.441-.421.435-1.468-.024-2.936-.01-4.4-.01v0" transform="translate(-23.757 -119.889)" fill="#fff"/>
    </g>
  </g>
</svg>
