<svg xmlns="http://www.w3.org/2000/svg" xmlns:xlink="http://www.w3.org/1999/xlink" width="1240" height="591.946" viewBox="0 0 1240 591.946">
  <defs>
    <linearGradient id="linear-gradient" x1="0.5" x2="0.5" y2="1" gradientUnits="objectBoundingBox">
      <stop offset="0" stop-color="#defff8"/>
      <stop offset="0.803" stop-color="#eaf5ff"/>
      <stop offset="1" stop-color="#f0feff"/>
    </linearGradient>
    <clipPath id="clip-path">
      <rect id="Rectángulo_378181" data-name="Rectángulo 378181" width="824" height="519.386" fill="none"/>
    </clipPath>
  </defs>
  <g id="Grupo_1073937" data-name="Grupo 1073937" transform="translate(-180 -674)">
    <g id="Grupo_1073898" data-name="Grupo 1073898" transform="translate(1420 1269) rotate(180)">
      <rect id="Rectángulo_376022" data-name="Rectángulo 376022" width="1240" height="590" transform="translate(0 5)" fill="url(#linear-gradient)"/>
    </g>
    <g id="Grupo_1073905" data-name="Grupo 1073905" transform="translate(388 746.56)">
      <g id="Grupo_1073904" data-name="Grupo 1073904" transform="translate(0 0)" clip-path="url(#clip-path)">
        <path id="Trazado_823436" data-name="Trazado 823436" d="M727.174,751.985s59.178,14.138,88.31-49.936c37.794-83.128-15.251-162.095-106.755-167.782-131.976-8.2-58.833-220.542-267.088-162.928-58.559,16.2-185.925-67.43-260.9,74.271C167.988,469.7,129.876,468.521,79.1,509.627c-89.571,72.511-57.326,243.127,18.144,243.9s629.93-1.544,629.93-1.544" transform="translate(-16.2 -234.391)" fill="#fcecdb"/>
        <path id="Trazado_823437" data-name="Trazado 823437" d="M270.3,1362.235s2.751-18.166,37.853-23.052,67.741-44.071,125.628-38.384,105.922,41.371,171.815,30.437,107.153,3,121.932,13.994,75.947-2.58,80.466,17.561Z" transform="translate(-176.06 -843.405)" fill="#a8d29f"/>
        <path id="Trazado_823438" data-name="Trazado 823438" d="M637.93,244.7s-39.618-1.952-18.6,119.728c0,0,14.139,41.3-3.71,67.926H878.355V244.7Z" transform="translate(-399.402 -158.725)" fill="#afcdfb"/>
        <path id="Trazado_823439" data-name="Trazado 823439" d="M745.679,1062.5s-18.355-21.58-1.132-35.288c0,0,12.58-7.675,22.839-7.052,0,0-14.535,24.563-9.833,27.007s14.238-28.548,14.238-28.548,28.629-2.8,37.84,1.665c0,0-24.475,20.183-19.32,21.385s31.59-18.609,31.59-18.609,26.646,4.57,25.225,20.951-10.6,21.439-14.637,21-27.641-9.516-28.155-6.184,13.7,14.221,23.645,14.73c0,0-18.786,20.878-31.271,14.853s-13.551-15.577-21.334-19.16-14.426-3.573-11.213.08,17.3,7.2,21.748,15.138,8.444,13.285-4.473,11.326-33.914-11.484-34.836-22.391Z" transform="translate(-480.167 -660.174)" fill="#599dad"/>
        <path id="Trazado_823440" data-name="Trazado 823440" d="M819.829,1093.514s-72.372-2.811-88.354,18.047c0,0-3.535,10.668-14.411,20.383l-1.7,4.656s12.541-13.326,17.029-14.132c0,0-7.018-25.841,87.433-28.954" transform="translate(-465.962 -709.232)" fill="#599dad"/>
        <path id="Trazado_823441" data-name="Trazado 823441" d="M689.194,1199.74S673.66,1211.317,672.581,1232l2.819.254s4.962-21.389,13.929-29.754-.135-2.764-.135-2.764" transform="translate(-438.093 -777.027)" fill="#599dad"/>
        <path id="Trazado_823442" data-name="Trazado 823442" d="M377.4,927.192s29.2-16.478,15.572-38.841c0,0-10.9-13.732-22.58-17.263,0,0,6.229,33.349,0,34.133s-4.282-37.664-4.282-37.664-30.756-14.909-42.824-13.732c0,0,19.076,32.564,12.847,31.779s-27.641-33.741-27.641-33.741-31.534-5.885-36.6,12.947,3.114,28.248,7.786,29.425,34.649.785,33.87,4.708-21.023,10.2-32.313,6.67c0,0,12.458,30.994,28.809,29.425s21.412-11.77,31.535-12.555,17.519,1.962,12.458,4.708-22.191.9-30.366,7.9-14.794,11.32.389,14.459,42.435,1.177,47.885-10.593Z" transform="translate(-176.061 -552.002)" fill="#6bb7bf"/>
        <path id="Trazado_823443" data-name="Trazado 823443" d="M316.193,907.072s81.756,26.679,91.1,56.5c0,0-.389,13.34,7.786,28.641v5.885s-8.565-20.009-13.237-22.756c0,0,18.3-25.894-85.649-68.266" transform="translate(-205.956 -588.377)" fill="#6bb7bf"/>
        <path id="Trazado_823444" data-name="Trazado 823444" d="M592.527,1142.626s12.608,19.295,5.42,42.782l-3.244-.878s3.148-25.869-3.448-38.88,1.272-3.023,1.272-3.023" transform="translate(-383.404 -738.794)" fill="#6bb7bf"/>
        <path id="Trazado_823445" data-name="Trazado 823445" d="M663.457,817.75s-38.489-21.721-20.527-51.2c0,0,14.369-18.1,29.764-22.755,0,0-8.211,43.959,0,44.993s5.645-49.648,5.645-49.648,40.542-19.652,56.451-18.1c0,0-25.146,42.925-16.936,41.891s36.436-44.476,36.436-44.476,41.568-7.758,48.24,17.067-4.105,37.236-10.264,38.788-45.674,1.034-44.647,6.206,27.712,13.446,42.594,8.792c0,0-16.422,40.856-37.976,38.788s-28.225-15.515-41.568-16.549-23.094,2.586-16.422,6.206,29.252,1.186,40.029,10.419,19.5,14.922-.513,19.059-55.937,1.552-63.122-13.964Z" transform="translate(-415.668 -465.285)" fill="#86d1cd"/>
        <path id="Trazado_823446" data-name="Trazado 823446" d="M811.64,791.227S703.871,826.394,691.555,865.7c0,0,.513,17.584-10.264,37.753v7.758s11.29-26.376,17.448-30c0,0-24.12-34.133,112.9-89.987" transform="translate(-443.766 -513.234)" fill="#6bb7bf"/>
        <path id="Trazado_823447" data-name="Trazado 823447" d="M662.488,1101.73s-16.62,25.434-7.146,56.394l4.276-1.157s-4.151-34.1,4.545-51.251-1.675-3.985-1.675-3.985" transform="translate(-424.962 -711.511)" fill="#6bb7bf"/>
        <path id="Trazado_823448" data-name="Trazado 823448" d="M566.153,1321.968c41.639,0,75.394-34.017,75.394-75.979H490.759c0,41.962,33.755,75.979,75.394,75.979" transform="translate(-319.661 -808.217)" fill="#efcbab"/>
        <path id="Trazado_823449" data-name="Trazado 823449" d="M601.872,1321.386a74.92,74.92,0,0,1-9.367.581c-41.638,0-75.39-34.018-75.39-75.979h18.73c0,38.767,28.808,70.75,66.027,75.4" transform="translate(-336.828 -808.217)" fill="#ffebdc"/>
        <path id="Trazado_823450" data-name="Trazado 823450" d="M640.642,1455.938H487.772a9.338,9.338,0,0,1,9.3-9.374H631.34a9.338,9.338,0,0,1,9.3,9.374" transform="translate(-317.715 -938.321)" fill="#efcbab"/>
        <rect id="Rectángulo_378177" data-name="Rectángulo 378177" width="154.981" height="2.331" transform="translate(168.619 437.771)" fill="#efcdaf"/>
        <path id="Trazado_823451" data-name="Trazado 823451" d="M1481.465,354.634s-13.208-25.114,6.581-34.677c0,0,13.946-4.706,23.818-1.828,0,0-19.531,20.749-15.475,24.173s20.109-24.7,20.109-24.7,28.541,3.6,36.554,9.993c0,0-28.274,14.278-23.507,16.591s34.873-11.168,34.873-11.168,25,10.352,20.047,26.019-15.013,18.571-18.855,17.254-24.894-15.4-26.121-12.261,10.263,16.9,19.86,19.6c0,0-22.875,16.214-33.744,7.573s-9.827-18.194-16.64-23.411-13.3-6.677-10.958-2.4,15.307,10.855,17.922,19.58,5.345,14.829-6.831,10.06-30.586-18.706-29.109-29.55Z" transform="translate(-962.156 -205.752)" fill="#599dad"/>
        <path id="Trazado_823452" data-name="Trazado 823452" d="M1540.113,412.76s-70-18.75-90.131-1.936c0,0-5.773,9.627-18.5,16.7l-2.669,4.168s15.138-10.227,19.691-10.02c0,0-1.218-26.763,91.607-8.909" transform="translate(-930.673 -261.942)" fill="#599dad"/>
        <path id="Trazado_823453" data-name="Trazado 823453" d="M1393.058,469.5s-17.677,7.86-23.235,27.8l2.7.872s9.5-19.77,20.069-25.947.471-2.727.471-2.727" transform="translate(-892.248 -303.922)" fill="#599dad"/>
        <path id="Trazado_823454" data-name="Trazado 823454" d="M1190.869,103.587s-39.113-20.557-22.031-50.561c0,0,13.828-18.524,29.079-23.639,0,0-6.909,44.187,1.329,44.974s4.176-49.8,4.176-49.8,39.943-20.86,55.891-19.786c0,0-23.867,43.66-15.69,42.38s35.106-45.55,35.106-45.55,41.32-9,48.722,15.612-3,37.343-9.113,39.078-45.622,2.4-44.444,7.543,28.1,12.609,42.835,7.51c0,0-15.208,41.331-36.813,39.91s-28.671-14.662-42.039-15.3-23.006,3.278-16.231,6.7,29.273.308,40.318,9.214,19.933,14.33.05,19.066-55.867,3.23-63.507-12.063Z" transform="translate(-758.522 -0.003)" fill="#86d1cd"/>
        <path id="Trazado_823455" data-name="Trazado 823455" d="M1340.846,72.7s-106.683,38.385-117.833,78.042c0,0,1.033,17.561-9.143,38.045l.229,7.754s10.506-26.7,16.555-30.506c0,0-25.117-33.394,110.193-93.335" transform="translate(-790.667 -47.158)" fill="#6bb7bf"/>
        <path id="Trazado_823456" data-name="Trazado 823456" d="M1197.051,393.926s-15.861,25.92-5.476,56.583l4.24-1.285s-5.156-33.961,3.029-51.365-1.793-3.933-1.793-3.933" transform="translate(-773.848 -252.298)" fill="#6bb7bf"/>
        <rect id="Rectángulo_378178" data-name="Rectángulo 378178" width="274.303" height="360.506" transform="translate(255.187 157.997)" fill="#9abcef"/>
        <rect id="Rectángulo_378179" data-name="Rectángulo 378179" width="269.692" height="360.506" transform="translate(264.155 157.997)" fill="#e9f3fe"/>
        <path id="Trazado_823457" data-name="Trazado 823457" d="M1973.524,1361.025h-54.346c-2.912-2.49,2.015-8.143,7.164-8.523a31.545,31.545,0,0,1,8.3.99c.747-10.011,5.018-55.01,21.114-53.2,18.1,2.024,0,19.817-5.115,30.351a251.587,251.587,0,0,0-9.615,24.272c1.469.321,2.991.635,4.544.923,2.4-7.423,11.324-32.389,22.675-30.935,13.326,1.7,7.97,11.714-1.476,17.655-6.93,4.37-15.439,10.58-19.482,13.581a57.34,57.34,0,0,0,10.628.858c9.309-.223,13.853,2.542,15.615,4.029" transform="translate(-1249.511 -843.405)" fill="#a8d29f"/>
        <path id="Trazado_823458" data-name="Trazado 823458" d="M984.034,316.718l0,0H714.338c1.492-20.553-.755-35.477-4.357-46.209-6.916-20.636-18.837-25.814-18.837-25.814H945.49c21.709,0,38.541,13.179,43.123,30.673.171.659.33,1.314.468,1.969,4.35,20.014-4.868,39.012-5.047,39.377" transform="translate(-450.184 -158.726)" fill="#e9f3fe"/>
        <path id="Trazado_823459" data-name="Trazado 823459" d="M1019.227,364.376l0,0H749.53c1.492-20.553-.755-35.477-4.357-46.209,27.561,5.086,95.823,15.924,168.889,14.1,47.269-1.182,84.623-4.369,110.212-7.27,4.349,20.014-4.869,39.012-5.047,39.377" transform="translate(-485.376 -206.384)" fill="#d8e8fd"/>
        <path id="Trazado_823460" data-name="Trazado 823460" d="M1054.7,673.812H911.673a2.688,2.688,0,0,1-2.67-2.691v-1.38a2.688,2.688,0,0,1,2.67-2.69H1054.7a2.688,2.688,0,0,1,2.67,2.69v1.38a2.688,2.688,0,0,1-2.67,2.691" transform="translate(-592.088 -432.687)" fill="#bbd5fc"/>
        <path id="Trazado_823461" data-name="Trazado 823461" d="M999.34,706.186H911.112A2.122,2.122,0,0,1,909,704.062v-2.513a2.122,2.122,0,0,1,2.108-2.124H999.34a2.122,2.122,0,0,1,2.108,2.124v2.513a2.122,2.122,0,0,1-2.108,2.124" transform="translate(-592.089 -453.686)" fill="#bbd5fc"/>
        <path id="Trazado_823462" data-name="Trazado 823462" d="M862.068,684.092v-13.81h-1.808q-1.645,0-1.645-1.38,0-.994,1.289-1.408a9.5,9.5,0,0,1,2.1-.332q1.439-.109,2.316-.11.849,0,1.069.345a4.147,4.147,0,0,1,.219,1.754v14.942h1.864q1.809,0,1.809,1.575,0,1.656-1.809,1.657h-7.51a2.057,2.057,0,0,1-1.329-.428,1.452,1.452,0,0,1-.534-1.2q0-1.6,1.836-1.6Z" transform="translate(-558.928 -432.687)" fill="#bbd5fc"/>
        <path id="Trazado_823463" data-name="Trazado 823463" d="M1054.7,876.458H911.673a2.688,2.688,0,0,1-2.67-2.69v-1.38a2.688,2.688,0,0,1,2.67-2.69H1054.7a2.688,2.688,0,0,1,2.67,2.69v1.38a2.688,2.688,0,0,1-2.67,2.69" transform="translate(-592.088 -564.135)" fill="#d2e4fd"/>
        <path id="Trazado_823464" data-name="Trazado 823464" d="M999.34,908.833H911.112A2.122,2.122,0,0,1,909,906.709V904.2a2.122,2.122,0,0,1,2.108-2.124H999.34a2.122,2.122,0,0,1,2.108,2.124v2.513a2.122,2.122,0,0,1-2.108,2.123" transform="translate(-592.089 -585.134)" fill="#d2e4fd"/>
        <path id="Trazado_823465" data-name="Trazado 823465" d="M869.348,886.454q0,1.38-1.913,1.379H859.49q-1.72,0-1.72-1.391a1.764,1.764,0,0,1,.461-1.025q.677-.781,1.986-2.343,1.985-2.514,3.318-4.345.46-.61,1.308-1.855a4.506,4.506,0,0,0,.7-2.1,2.167,2.167,0,0,0-.606-1.574,2.069,2.069,0,0,0-1.55-.622,2.365,2.365,0,0,0-1.6.586,2.788,2.788,0,0,0-.726,1.464,16.684,16.684,0,0,1-.436,1.611,1.227,1.227,0,0,1-1.186.781,1.355,1.355,0,0,1-1.139-.537,1.842,1.842,0,0,1-.387-1.221,5.937,5.937,0,0,1,.267-1.733,5.2,5.2,0,0,1,2.058-2.88,5.941,5.941,0,0,1,3.415-.952,5.265,5.265,0,0,1,3.681,1.345,4.721,4.721,0,0,1,1.526,3.618,6.341,6.341,0,0,1-1.09,3.374q-.606.954-2.495,3.374-.969,1.247-3.052,3.618h5.232q1.889,0,1.889,1.427" transform="translate(-558.717 -564.135)" fill="#d2e4fd"/>
        <path id="Trazado_823466" data-name="Trazado 823466" d="M1054.7,1045.5H911.673a2.688,2.688,0,0,1-2.67-2.69v-1.38a2.688,2.688,0,0,1,2.67-2.691H1054.7a2.688,2.688,0,0,1,2.67,2.691v1.38a2.688,2.688,0,0,1-2.67,2.69" transform="translate(-592.088 -673.786)" fill="#d2e4fd"/>
        <path id="Trazado_823467" data-name="Trazado 823467" d="M999.34,1077.877H911.112a2.122,2.122,0,0,1-2.108-2.124v-2.513a2.122,2.122,0,0,1,2.108-2.124H999.34a2.122,2.122,0,0,1,2.108,2.124v2.513a2.122,2.122,0,0,1-2.108,2.124" transform="translate(-592.089 -694.786)" fill="#d2e4fd"/>
        <path id="Trazado_823468" data-name="Trazado 823468" d="M868.776,1049.827a5.25,5.25,0,0,1-1.807,4.166,6.335,6.335,0,0,1-4.333,1.5,6.035,6.035,0,0,1-3.466-.972,4.454,4.454,0,0,1-2.278-3.718,1.566,1.566,0,0,1,.4-1.073,1.291,1.291,0,0,1,1.015-.449q.643,0,1.213.873.916,1.447,1.065,1.6a2.752,2.752,0,0,0,2.1.873,2.623,2.623,0,0,0,2.476-1.3,3.476,3.476,0,0,0,.347-1.647q0-2.444-2.847-2.719-1.609-.15-1.609-1.372a1.3,1.3,0,0,1,.934-1.272q1.746-.649,1.77-.674a2.416,2.416,0,0,0,.935-2.171,1.96,1.96,0,0,0-.543-1.459,1.983,1.983,0,0,0-1.456-.536,2.648,2.648,0,0,0-1.776.548,3.6,3.6,0,0,0-.913,1.622,1.129,1.129,0,0,1-1.135.873,1.161,1.161,0,0,1-.975-.524,1.908,1.908,0,0,1-.383-1.147,3.212,3.212,0,0,1,.421-1.547,4.765,4.765,0,0,1,2.13-2.021,6.2,6.2,0,0,1,2.872-.674,4.981,4.981,0,0,1,3.5,1.285,4.374,4.374,0,0,1,1.4,3.38,4.643,4.643,0,0,1-2.08,3.992,4.522,4.522,0,0,1,3.02,4.566" transform="translate(-558.146 -672.399)" fill="#d2e4fd"/>
        <path id="Trazado_823469" data-name="Trazado 823469" d="M1107.468,503.344h-89.1a2.792,2.792,0,0,1-2.772-2.8v-2.264a2.792,2.792,0,0,1,2.772-2.795h89.1a2.792,2.792,0,0,1,2.773,2.795v2.264a2.792,2.792,0,0,1-2.773,2.8" transform="translate(-661.521 -321.403)" fill="#bbd5fc"/>
        <path id="Trazado_823470" data-name="Trazado 823470" d="M1086.121,537.81H950.559a3.424,3.424,0,0,1-3.4-3.427v-1a3.425,3.425,0,0,1,3.4-3.428h135.562a3.425,3.425,0,0,1,3.4,3.428v1a3.425,3.425,0,0,1-3.4,3.427" transform="translate(-616.941 -343.759)" fill="#bbd5fc"/>
        <path id="Trazado_823471" data-name="Trazado 823471" d="M915.185,661.282c-29.38,0-57.26-3.715-78.044-9.025-21-5.365-32.308-14.134-32.308-21.912,0-7.049,9.218-13.532,26.657-18.749-16.713,5-25.651,12.34-25.651,18.749,0,7.112,11.586,14.151,31.786,19.312,20.711,5.292,48.255,8.206,77.56,8.206s56.849-2.914,77.56-8.206c20.2-5.161,31.786-12.2,31.786-19.312,0-7.531-12.2-16.891-31.838-24.426-22.329-8.569-49.856-11.748-77.507-11.748-51.914,0-73.285,6.108-91.826,13.76,18.622-7.686,39.728-16.4,91.826-16.4,27.763,0,55.408,4.741,77.842,13.349,20.053,7.695,32.51,17.451,32.51,25.462,0,7.778-11.564,15.016-32.562,20.381-20.784,5.31-48.41,10.557-77.789,10.557" transform="translate(-524.236 -383.702)" fill="#c65447"/>
        <path id="Trazado_823472" data-name="Trazado 823472" d="M1610.946,984.013s-.967,9.478-2.029,11.271-5.581,7.522-7.506,8.646,1.176-7.549.783-9.237-1.585,3.08-2.433,3.192-.63-4.179-.661-5.74,4.129-5.417,5.595-8.742,6.251.609,6.251.609" transform="translate(-1041.588 -637.024)" fill="#ffb27d"/>
        <path id="Trazado_823473" data-name="Trazado 823473" d="M1272.191,708.495l-2.161-4.11s1.073-7.324-8.034-11.957c0,0-3.328-1.366-5.207,1.37-1.73,2.52,3.3,2.065,3.028,6.375a7.936,7.936,0,0,0,4.586,8.244l2.336,2.727Z" transform="translate(-818.386 -448.926)" fill="#ffb27d"/>
        <path id="Trazado_823474" data-name="Trazado 823474" d="M1371.362,708.2s-7.821,38.681-50.855,51.319c-13.434,3.946-43.953-40.625-43.953-40.625s1.073-4.109,7.795-3.165c0,0,29.716,19.825,33.457,21.979,3.32,1.911,25.15-24.566,35.1-28.837a25.221,25.221,0,0,1,18.454-.671" transform="translate(-831.497 -458.46)" fill="#e58638"/>
        <path id="Trazado_823499" data-name="Trazado 823499" d="M0,0,8.1-.009l-.047,40.44-8.1.009Z" transform="matrix(0.152, -0.988, 0.988, 0.152, 424.131, 250.142)" fill="#c65447"/>
        <path id="Trazado_823475" data-name="Trazado 823475" d="M1191.63,691.735l8.681,5.441,1.22-8.007Z" transform="translate(-776.181 -447.034)" fill="#ffb27d"/>
        <path id="Trazado_823476" data-name="Trazado 823476" d="M1336.62,710.151l-.385,2.531a2.834,2.834,0,0,1-3.227,2.386l-1.849-.286,1.22-8.007,2.01.311a2.684,2.684,0,0,1,2.231,3.064" transform="translate(-867.064 -458.454)" fill="#ffb27d"/>
        <path id="Trazado_823477" data-name="Trazado 823477" d="M1659.724,1398.611s5.339,4.91,4.3,8.4-5.859,5.814-6.511,10.078-3.255,6.59-5.6,6.59h-11.175s-1.725-3,2.442-3.905,5.738-5.915,5.477-10.566a82.612,82.612,0,0,1,.391-10.854l8.854-2.067Z" transform="translate(-1068.48 -905.708)" fill="#233862"/>
        <path id="Trazado_823478" data-name="Trazado 823478" d="M1449.364,1431.064s.958,11.174-1.386,12.337l-30-.061s0-3.489,4.818-4.264,13.281-3.618,14.714-9.949,11.849,1.938,11.849,1.938" transform="translate(-923.618 -925.462)" fill="#233862"/>
        <path id="Trazado_823479" data-name="Trazado 823479" d="M1435.355,984.782s1.582,19.587,3.441,43.132c2.527,31.983,5.567,71.27,5.867,78.712.52,12.924,2.606,33.6,2.606,33.6s4.945,4.911,14.844,2.842c0,0,8.821-29.511,11.34-60.734.039-.512.078-1.028.117-1.543,2.344-31.786,5.989-98.718,5.989-98.718Z" transform="translate(-934.933 -637.024)" fill="#2b478b"/>
        <path id="Trazado_823480" data-name="Trazado 823480" d="M1435.355,984.782s1.582,19.587,3.441,43.132l34.658,54.416c.039-.512.078-1.028.117-1.543,2.344-31.786,5.989-98.718,5.989-98.718Z" transform="translate(-934.933 -637.024)" fill="#233862"/>
        <path id="Trazado_823481" data-name="Trazado 823481" d="M1456.079,972.8s28.517,70.936,47.267,104.273,24.611,42.64,24.611,42.64,10.742-4.264,11.719-7.172c0,0-7.17-64.357-19.727-80.046-7.1-8.865-15.431-35.468-15.821-44.771S1501.589,960,1501.589,960Z" transform="translate(-948.432 -622.712)" fill="#2b478b"/>
        <path id="Trazado_823482" data-name="Trazado 823482" d="M1506.866,641.77s-19.295,9.382-30.418,5.9a26.3,26.3,0,0,1,7.53-6.071c-.385-2.25-.684-4.2-.856-5.858a54.564,54.564,0,0,1-.47-5.986l7.444-5.9,7.059-5.646c-.557,15.877,9.712,23.561,9.712,23.561" transform="translate(-961.7 -401.005)" fill="#ffb27d"/>
        <path id="Trazado_823483" data-name="Trazado 823483" d="M1487.272,777.288c.042,1.189-2.481,2.547-3.594,3.056-8.257,3.651-15.958,6.2-24.685,7.048-10.311,1.061-22.5-1.274-26.7-1.189a1.735,1.735,0,0,1-1.155-.467c-.3-.213-.514-12.736-.3-28.485,0-.637,0-1.274.043-1.911v-.212c.086-6.156.3-12.608.6-19.061.6-14.18,1.712-27.85,3.594-35.406,2.268-8.915,7.4-14.816,12.065-19.1l3.85-3.4a18.372,18.372,0,0,0,11.979-1.442c4.449-2.166,9.241-4.5,10.011-3.906,5.818,4.288,9.754,13.924,11.85,26.236a137.524,137.524,0,0,1,1.755,23.349c0,3.057-.086,6.2-.257,9.3a295.341,295.341,0,0,0,.6,39.863c.171,2.463.3,4.373.342,5.732" transform="translate(-931.938 -436.362)" fill="#ee9849"/>
        <path id="Trazado_823484" data-name="Trazado 823484" d="M1529.031,825.125c-67.565-.136-12.462-73.885-12.462-73.885l10.946-3.583a215.99,215.99,0,0,1,1.268,24.945c0,3.266-.062,6.622-.186,9.933-.742,17.961,0,33.563.433,42.589" transform="translate(-974.039 -484.973)" fill="#e58638"/>
        <path id="Trazado_823485" data-name="Trazado 823485" d="M1508.872,634.7s-4.877,8.957-14.161,11.462a54.55,54.55,0,0,1-.47-5.986l7.444-5.9Z" transform="translate(-973.289 -411.43)" fill="#ed985f"/>
        <path id="Trazado_823486" data-name="Trazado 823486" d="M1477.795,594.552s18.407,3.034,20.135-8.369,5.267-18.692-6.412-21.111-14.627,1.59-16.137,5.257-2.329,23.14,2.414,24.223" transform="translate(-960.238 -366.06)" fill="#ffb27d"/>
        <path id="Trazado_823487" data-name="Trazado 823487" d="M1493.506,550.917c.167-.193.552-.349,1.41-.4a3.458,3.458,0,0,0-1.6-.455c-.179-1.2-.814-3.329-2.866-3.846a2.591,2.591,0,0,1,1.247,1.871c-2.378-2.461-7.472-4.252-21.578-3.129-18.591,1.478-12.464,13.474-10.057,14.9s8.466-2.49,12.949-2.132,5.337,6.889,6.858,7.785.923-.688,2.981-1.626,2.254,2.5,1.66,4.734,2.234,5.183,2.234,5.183l2.858-3.1c2.858-3.1,5.551-16.24,4.252-19.04-.115-.248-.228-.5-.345-.75" transform="translate(-949.124 -353.27)" fill="#2c3a64"/>
        <path id="Trazado_823488" data-name="Trazado 823488" d="M1535.382,672.717s11.646,5.558,17.23,14.1c8.662,13.252,18.7,61.553,18.887,66.026s-7.328,36.05-7.328,36.05-7.62-.506-9.586-4.382c0,0,1.522-32.444.558-34.53s-31.769-43.521-28.305-52.363,8.544-24.9,8.544-24.9" transform="translate(-994.345 -436.362)" fill="#ee9849"/>
        <path id="Trazado_823489" data-name="Trazado 823489" d="M1284.718,712.705s.633-2.521-1.1-3.654-3.332-4.215-4.063-3.8c-1.515.865.829,3.554.4,6.908-.15,1.175,2.563,4.252,4.765.544" transform="translate(-833.113 -457.442)" fill="#ffb27d"/>
        <path id="Trazado_823490" data-name="Trazado 823490" d="M390.138,1294.243s-27.356-70.592-46.542-59.352,46.542,59.352,46.542,59.352" transform="translate(-221.519 -800.232)" fill="#a8d29f"/>
        <path id="Trazado_823491" data-name="Trazado 823491" d="M341.734,1357.405s-36.14-31.474-52.648-25.629,52.648,25.629,52.648,25.629" transform="translate(-186.641 -863.394)" fill="#a8d29f"/>
        <path id="Trazado_823492" data-name="Trazado 823492" d="M1542.432,1386.956s8.328-29.182,18.1-25.739-18.1,25.739-18.1,25.739" transform="translate(-1004.679 -882.777)" fill="#a8d29f"/>
        <path id="Trazado_823493" data-name="Trazado 823493" d="M1564.231,1410.989s21.26-14.064,25.932-9.716-25.932,9.716-25.932,9.716" transform="translate(-1018.878 -908.401)" fill="#a8d29f"/>
        <path id="Trazado_823494" data-name="Trazado 823494" d="M1042.231,1245.113H876.392a2.034,2.034,0,0,1,0-4.067h165.839a2.034,2.034,0,0,1,0,4.067" transform="translate(-569.533 -805.011)" fill="#d2e4fd"/>
        <path id="Trazado_823495" data-name="Trazado 823495" d="M1042.231,1268.283H876.392a2.034,2.034,0,0,1,0-4.068h165.839a2.034,2.034,0,0,1,0,4.068" transform="translate(-569.533 -820.04)" fill="#d2e4fd"/>
        <path id="Trazado_823496" data-name="Trazado 823496" d="M1042.231,1293.959H876.392a2.034,2.034,0,0,1,0-4.068h165.839a2.034,2.034,0,0,1,0,4.068" transform="translate(-569.533 -836.695)" fill="#d2e4fd"/>
        <path id="Trazado_823497" data-name="Trazado 823497" d="M1020.46,1319.636h-144.2a1.9,1.9,0,0,1-1.884-1.9v-.271a1.9,1.9,0,0,1,1.884-1.9h144.2a1.9,1.9,0,0,1,1.884,1.9v.271a1.9,1.9,0,0,1-1.884,1.9" transform="translate(-569.533 -853.35)" fill="#d2e4fd"/>
        <path id="Trazado_823498" data-name="Trazado 823498" d="M823.2,1475.019H.8a.807.807,0,0,1-.8-.808v-.15a.807.807,0,0,1,.8-.808H823.2a.807.807,0,0,1,.8.808v.15a.807.807,0,0,1-.8.808" transform="translate(0 -955.633)" fill="#1c468a"/>
      </g>
    </g>
    <path id="Trazado_823598" data-name="Trazado 823598" d="M28.5,0h153a28.5,28.5,0,0,1,0,57H28.5a28.5,28.5,0,0,1,0-57Z" transform="translate(1000 826)" fill="#ffbf9a"/>
    <path id="Trazado_823599" data-name="Trazado 823599" d="M28.5,0h216a28.5,28.5,0,0,1,0,57H28.5a28.5,28.5,0,0,1,0-57Z" transform="translate(1000 979)" fill="#ffbf9a"/>
    <path id="Trazado_823600" data-name="Trazado 823600" d="M28.5,0h278a28.5,28.5,0,0,1,0,57H28.5a28.5,28.5,0,0,1,0-57Z" transform="translate(1000 1125)" fill="#ffbf9a"/>
    <path id="Trazado_823601" data-name="Trazado 823601" d="M28.5,0h177a28.5,28.5,0,0,1,0,57H28.5a28.5,28.5,0,0,1,0-57Z" transform="translate(390 830)" fill="#ffbf9a"/>
    <path id="Trazado_823602" data-name="Trazado 823602" d="M28.5,0h228a28.5,28.5,0,0,1,0,57H28.5a28.5,28.5,0,0,1,0-57Z" transform="translate(339 977)" fill="#ffbf9a"/>
    <path id="Trazado_823603" data-name="Trazado 823603" d="M28.5,0h276a28.5,28.5,0,0,1,0,57H28.5a28.5,28.5,0,0,1,0-57Z" transform="translate(285 1126)" fill="#ffbf9a"/>
    <path id="Trazado_823604" data-name="Trazado 823604" d="M-46.222-12.8l3.287,9.281,3.27-9.281H-36.2V0h-2.646V-3.5l.264-6.038L-42.038,0h-1.811l-3.445-9.527L-47.03-3.5V0h-2.637V-12.8ZM-29.689.176A4.668,4.668,0,0,1-33.1-1.107a4.561,4.561,0,0,1-1.314-3.419v-.246a5.745,5.745,0,0,1,.554-2.562,4.064,4.064,0,0,1,1.569-1.74,4.4,4.4,0,0,1,2.316-.611A3.947,3.947,0,0,1-26.9-8.455a5,5,0,0,1,1.121,3.489v1.037h-6.056a2.36,2.36,0,0,0,.743,1.494,2.245,2.245,0,0,0,1.569.563,2.742,2.742,0,0,0,2.294-1.063l1.248,1.4A3.813,3.813,0,0,1-27.527-.277,5.075,5.075,0,0,1-29.689.176Zm-.29-7.813a1.587,1.587,0,0,0-1.226.512,2.651,2.651,0,0,0-.6,1.466h3.533v-.2a1.891,1.891,0,0,0-.457-1.311A1.638,1.638,0,0,0-29.979-7.638Zm8.684-4.21V-9.51h1.626v1.863H-21.3V-2.9a1.133,1.133,0,0,0,.2.756,1.015,1.015,0,0,0,.773.229,4.051,4.051,0,0,0,.747-.062V-.053a5.229,5.229,0,0,1-1.538.229,2.425,2.425,0,0,1-2.725-2.7V-7.646h-1.389V-9.51h1.389v-2.338Zm2.382,7a5.64,5.64,0,0,1,.545-2.522A3.989,3.989,0,0,1-16.8-9.079a4.577,4.577,0,0,1,2.377-.606,4.33,4.33,0,0,1,3.142,1.178,4.727,4.727,0,0,1,1.358,3.2l.018.65a4.97,4.97,0,0,1-1.222,3.511A4.247,4.247,0,0,1-14.405.176a4.268,4.268,0,0,1-3.283-1.318,5.058,5.058,0,0,1-1.226-3.586Zm2.54.18a3.555,3.555,0,0,0,.51,2.073,1.682,1.682,0,0,0,1.459.717,1.686,1.686,0,0,0,1.441-.709,3.89,3.89,0,0,0,.519-2.267,3.519,3.519,0,0,0-.519-2.06,1.686,1.686,0,0,0-1.459-.731,1.658,1.658,0,0,0-1.441.726A3.955,3.955,0,0,0-16.374-4.662Zm7.638-.163a5.731,5.731,0,0,1,1-3.542A3.237,3.237,0,0,1-5.01-9.686,2.913,2.913,0,0,1-2.716-8.648V-13.5H-.167V0H-2.461l-.123-1.011A2.989,2.989,0,0,1-5.027.176,3.228,3.228,0,0,1-7.721-1.147,5.916,5.916,0,0,1-8.736-4.825Zm2.54.189A3.754,3.754,0,0,0-5.73-2.585a1.517,1.517,0,0,0,1.354.713,1.7,1.7,0,0,0,1.661-.995V-6.625A1.675,1.675,0,0,0-4.359-7.62Q-6.2-7.62-6.2-4.636Zm7.6-.207a5.64,5.64,0,0,1,.545-2.522A3.989,3.989,0,0,1,3.52-9.079,4.577,4.577,0,0,1,5.9-9.686,4.33,4.33,0,0,1,9.04-8.508a4.727,4.727,0,0,1,1.358,3.2l.018.65A4.97,4.97,0,0,1,9.193-1.147,4.247,4.247,0,0,1,5.915.176,4.268,4.268,0,0,1,2.632-1.143,5.058,5.058,0,0,1,1.406-4.729Zm2.54.18a3.555,3.555,0,0,0,.51,2.073,1.682,1.682,0,0,0,1.459.717,1.686,1.686,0,0,0,1.441-.709,3.89,3.89,0,0,0,.519-2.267,3.519,3.519,0,0,0-.519-2.06A1.686,1.686,0,0,0,5.9-7.638a1.658,1.658,0,0,0-1.441.726A3.955,3.955,0,0,0,3.946-4.662ZM14.66,0H12.111V-13.5H14.66Zm1.7-4.843A5.64,5.64,0,0,1,16.9-7.365,3.989,3.989,0,0,1,18.47-9.079a4.577,4.577,0,0,1,2.377-.606A4.33,4.33,0,0,1,23.99-8.508a4.727,4.727,0,0,1,1.358,3.2l.018.65a4.97,4.97,0,0,1-1.222,3.511A4.247,4.247,0,0,1,20.865.176a4.268,4.268,0,0,1-3.283-1.318,5.058,5.058,0,0,1-1.226-3.586Zm2.54.18a3.555,3.555,0,0,0,.51,2.073,1.682,1.682,0,0,0,1.459.717,1.686,1.686,0,0,0,1.441-.709,3.89,3.89,0,0,0,.519-2.267,3.519,3.519,0,0,0-.519-2.06,1.686,1.686,0,0,0-1.459-.731,1.658,1.658,0,0,0-1.441.726A3.955,3.955,0,0,0,18.9-4.662Zm7.664-.163A5.573,5.573,0,0,1,27.6-8.35,3.375,3.375,0,0,1,30.41-9.686a2.96,2.96,0,0,1,2.435,1.072l.105-.9h2.3V-.316a4.064,4.064,0,0,1-.567,2.171,3.641,3.641,0,0,1-1.6,1.406,5.608,5.608,0,0,1-2.408.483,5.215,5.215,0,0,1-2.039-.417,3.619,3.619,0,0,1-1.5-1.077L28.266.7a2.975,2.975,0,0,0,2.3,1.063,2.178,2.178,0,0,0,1.573-.541A2.027,2.027,0,0,0,32.7-.308v-.51a2.938,2.938,0,0,1-2.312.993,3.366,3.366,0,0,1-2.773-1.34A5.572,5.572,0,0,1,26.561-4.72Zm2.54.189a3.47,3.47,0,0,0,.519,2.029,1.65,1.65,0,0,0,1.424.735A1.764,1.764,0,0,0,32.7-2.744V-6.749a1.76,1.76,0,0,0-1.644-.871,1.66,1.66,0,0,0-1.437.748A3.911,3.911,0,0,0,29.1-4.636ZM39.946,0h-2.54V-9.51h2.54ZM39.2-13.368h2.769l-2.435,2.725H37.468ZM47.646,0a2.821,2.821,0,0,1-.255-.853,3.073,3.073,0,0,1-2.4,1.028,3.376,3.376,0,0,1-2.316-.809,2.6,2.6,0,0,1-.918-2.039,2.687,2.687,0,0,1,1.121-2.32,5.529,5.529,0,0,1,3.239-.817h1.169v-.545a1.567,1.567,0,0,0-.338-1.055,1.331,1.331,0,0,0-1.068-.4,1.513,1.513,0,0,0-1.006.308,1.045,1.045,0,0,0-.365.844h-2.54a2.551,2.551,0,0,1,.51-1.529,3.37,3.37,0,0,1,1.441-1.1,5.253,5.253,0,0,1,2.092-.4A4.15,4.15,0,0,1,48.8-8.8a3.09,3.09,0,0,1,1.033,2.483V-2.2a4.546,4.546,0,0,0,.378,2.048V0Zm-2.1-1.767a2.188,2.188,0,0,0,1.037-.25,1.645,1.645,0,0,0,.7-.672V-4.324h-.949q-1.907,0-2.03,1.318l-.009.149a1.017,1.017,0,0,0,.334.782A1.3,1.3,0,0,0,45.545-1.767Z" transform="translate(1114 860)" fill="#12263f"/>
    <path id="Trazado_823605" data-name="Trazado 823605" d="M-39.432-4.685h-2.1V0h-2.637V-12.8h4.755a5.375,5.375,0,0,1,3.5,1.011,3.488,3.488,0,0,1,1.23,2.856,3.937,3.937,0,0,1-.567,2.184,3.866,3.866,0,0,1-1.718,1.393L-34.2-.123V0h-2.83Zm-2.1-2.136h2.127a2.178,2.178,0,0,0,1.538-.505,1.806,1.806,0,0,0,.545-1.393,1.933,1.933,0,0,0-.514-1.424,2.137,2.137,0,0,0-1.578-.519h-2.118Zm13.061,7a4.668,4.668,0,0,1-3.406-1.283,4.561,4.561,0,0,1-1.314-3.419v-.246a5.745,5.745,0,0,1,.554-2.562,4.064,4.064,0,0,1,1.569-1.74,4.4,4.4,0,0,1,2.316-.611,3.947,3.947,0,0,1,3.072,1.23,5,5,0,0,1,1.121,3.489v1.037h-6.056a2.36,2.36,0,0,0,.743,1.494,2.245,2.245,0,0,0,1.569.563,2.742,2.742,0,0,0,2.294-1.063l1.248,1.4A3.813,3.813,0,0,1-26.31-.277,5.075,5.075,0,0,1-28.472.176Zm-.29-7.813a1.587,1.587,0,0,0-1.226.512,2.651,2.651,0,0,0-.6,1.466h3.533v-.2a1.891,1.891,0,0,0-.457-1.311A1.638,1.638,0,0,0-28.762-7.638Zm10.793,5.01a.818.818,0,0,0-.461-.734,5.241,5.241,0,0,0-1.481-.479Q-23.3-4.553-23.3-6.724a2.613,2.613,0,0,1,1.05-2.114,4.237,4.237,0,0,1,2.747-.848,4.56,4.56,0,0,1,2.9.853,2.687,2.687,0,0,1,1.085,2.215h-2.54a1.229,1.229,0,0,0-.352-.9,1.488,1.488,0,0,0-1.1-.356,1.52,1.52,0,0,0-.993.29.916.916,0,0,0-.352.738.783.783,0,0,0,.4.681,4.114,4.114,0,0,0,1.349.448,11.019,11.019,0,0,1,1.6.426A2.628,2.628,0,0,1-15.5-2.733a2.481,2.481,0,0,1-1.116,2.1,4.815,4.815,0,0,1-2.883.8A5.029,5.029,0,0,1-21.621-.25a3.561,3.561,0,0,1-1.455-1.169,2.716,2.716,0,0,1-.527-1.6h2.408a1.326,1.326,0,0,0,.5,1.037,1.987,1.987,0,0,0,1.248.36,1.839,1.839,0,0,0,1.1-.277A.861.861,0,0,0-17.969-2.628Zm9.8,1.661a3.185,3.185,0,0,1-2.6,1.143A3,3,0,0,1-13.1-.7a3.752,3.752,0,0,1-.822-2.575V-9.51h2.54v6.151q0,1.487,1.354,1.487a1.834,1.834,0,0,0,1.775-.9V-9.51h2.549V0H-8.1ZM-1.112,0H-3.661V-13.5h2.549ZM4.021-11.848V-9.51H5.647v1.863H4.021V-2.9a1.133,1.133,0,0,0,.2.756A1.015,1.015,0,0,0,5-1.916a4.051,4.051,0,0,0,.747-.062V-.053A5.229,5.229,0,0,1,4.206.176a2.425,2.425,0,0,1-2.725-2.7V-7.646H.092V-9.51H1.481v-2.338ZM12.573,0a2.821,2.821,0,0,1-.255-.853A3.073,3.073,0,0,1,9.918.176,3.376,3.376,0,0,1,7.6-.633a2.6,2.6,0,0,1-.918-2.039A2.687,2.687,0,0,1,7.8-4.992a5.529,5.529,0,0,1,3.239-.817h1.169v-.545a1.567,1.567,0,0,0-.338-1.055,1.331,1.331,0,0,0-1.068-.4A1.513,1.513,0,0,0,9.8-7.5a1.045,1.045,0,0,0-.365.844H6.9A2.551,2.551,0,0,1,7.4-8.183a3.37,3.37,0,0,1,1.441-1.1,5.253,5.253,0,0,1,2.092-.4,4.15,4.15,0,0,1,2.791.883,3.09,3.09,0,0,1,1.033,2.483V-2.2a4.546,4.546,0,0,0,.378,2.048V0Zm-2.1-1.767a2.188,2.188,0,0,0,1.037-.25,1.645,1.645,0,0,0,.7-.672V-4.324h-.949q-1.907,0-2.03,1.318l-.009.149a1.017,1.017,0,0,0,.334.782A1.3,1.3,0,0,0,10.472-1.767Zm5.845-3.059a5.731,5.731,0,0,1,1-3.542,3.237,3.237,0,0,1,2.729-1.318,2.913,2.913,0,0,1,2.294,1.037V-13.5h2.549V0H22.592l-.123-1.011A2.989,2.989,0,0,1,20.026.176a3.228,3.228,0,0,1-2.694-1.323A5.916,5.916,0,0,1,16.317-4.825Zm2.54.189a3.754,3.754,0,0,0,.466,2.051,1.517,1.517,0,0,0,1.354.713,1.7,1.7,0,0,0,1.661-.995V-6.625a1.675,1.675,0,0,0-1.644-.995Q18.857-7.62,18.857-4.636Zm7.6-.207A5.64,5.64,0,0,1,27-7.365a3.989,3.989,0,0,1,1.569-1.714,4.577,4.577,0,0,1,2.377-.606,4.33,4.33,0,0,1,3.142,1.178,4.727,4.727,0,0,1,1.358,3.2l.018.65a4.97,4.97,0,0,1-1.222,3.511A4.247,4.247,0,0,1,30.968.176a4.268,4.268,0,0,1-3.283-1.318,5.058,5.058,0,0,1-1.226-3.586Zm2.54.18a3.555,3.555,0,0,0,.51,2.073,1.682,1.682,0,0,0,1.459.717,1.686,1.686,0,0,0,1.441-.709,3.89,3.89,0,0,0,.519-2.267,3.519,3.519,0,0,0-.519-2.06,1.686,1.686,0,0,0-1.459-.731,1.658,1.658,0,0,0-1.441.726A3.955,3.955,0,0,0,29-4.662ZM42.183-2.628a.818.818,0,0,0-.461-.734,5.241,5.241,0,0,0-1.481-.479q-3.393-.712-3.393-2.883A2.613,2.613,0,0,1,37.9-8.837a4.237,4.237,0,0,1,2.747-.848,4.56,4.56,0,0,1,2.9.853,2.687,2.687,0,0,1,1.085,2.215h-2.54a1.229,1.229,0,0,0-.352-.9,1.488,1.488,0,0,0-1.1-.356,1.52,1.52,0,0,0-.993.29.916.916,0,0,0-.352.738.783.783,0,0,0,.4.681,4.114,4.114,0,0,0,1.349.448,11.019,11.019,0,0,1,1.6.426,2.628,2.628,0,0,1,2.013,2.558,2.481,2.481,0,0,1-1.116,2.1,4.815,4.815,0,0,1-2.883.8A5.029,5.029,0,0,1,38.531-.25a3.561,3.561,0,0,1-1.455-1.169,2.716,2.716,0,0,1-.527-1.6h2.408a1.326,1.326,0,0,0,.5,1.037,1.987,1.987,0,0,0,1.248.36,1.839,1.839,0,0,0,1.1-.277A.861.861,0,0,0,42.183-2.628Z" transform="translate(1150 1015)" fill="#12263f"/>
    <path id="Trazado_823606" data-name="Trazado 823606" d="M-124.721-4.263a4.528,4.528,0,0,1-1.525,3.252A5.355,5.355,0,0,1-129.872.176a4.816,4.816,0,0,1-3.872-1.657,6.793,6.793,0,0,1-1.411-4.548v-.782a7.671,7.671,0,0,1,.65-3.252,4.874,4.874,0,0,1,1.859-2.158,5.207,5.207,0,0,1,2.808-.751,5.217,5.217,0,0,1,3.568,1.187A4.866,4.866,0,0,1-124.7-8.455h-2.637a2.673,2.673,0,0,0-.69-1.8,2.555,2.555,0,0,0-1.806-.558,2.24,2.24,0,0,0-1.973.945,5.3,5.3,0,0,0-.672,2.931v.967a5.667,5.667,0,0,0,.628,3.032,2.2,2.2,0,0,0,1.982.958,2.6,2.6,0,0,0,1.824-.558,2.521,2.521,0,0,0,.69-1.727Zm1.169-.58a5.64,5.64,0,0,1,.545-2.522,3.989,3.989,0,0,1,1.569-1.714,4.577,4.577,0,0,1,2.377-.606,4.33,4.33,0,0,1,3.142,1.178,4.727,4.727,0,0,1,1.358,3.2l.018.65a4.97,4.97,0,0,1-1.222,3.511A4.247,4.247,0,0,1-119.043.176a4.268,4.268,0,0,1-3.283-1.318,5.058,5.058,0,0,1-1.226-3.586Zm2.54.18a3.555,3.555,0,0,0,.51,2.073,1.682,1.682,0,0,0,1.459.717,1.686,1.686,0,0,0,1.441-.709,3.89,3.89,0,0,0,.519-2.267,3.519,3.519,0,0,0-.519-2.06,1.686,1.686,0,0,0-1.459-.731,1.658,1.658,0,0,0-1.441.726A3.955,3.955,0,0,0-121.012-4.662Zm10.371-4.847.079,1.1a3.32,3.32,0,0,1,2.733-1.274,2.759,2.759,0,0,1,2.25.888,4.142,4.142,0,0,1,.756,2.654V0h-2.54V-6.082a1.648,1.648,0,0,0-.352-1.173,1.574,1.574,0,0,0-1.169-.365,1.747,1.747,0,0,0-1.608.914V0h-2.54V-9.51Zm11.7,7.638A1.666,1.666,0,0,0-97.8-2.259a1.355,1.355,0,0,0,.457-1.028h2.382a3.258,3.258,0,0,1-.527,1.771A3.48,3.48,0,0,1-96.908-.268,4.442,4.442,0,0,1-98.9.176a4.129,4.129,0,0,1-3.217-1.3A5.13,5.13,0,0,1-103.293-4.7v-.167a5.071,5.071,0,0,1,1.169-3.507,4.08,4.08,0,0,1,3.208-1.31A4,4,0,0,1-96.056-8.67a3.594,3.594,0,0,1,1.094,2.7h-2.382A1.745,1.745,0,0,0-97.8-7.174a1.524,1.524,0,0,0-1.16-.464,1.53,1.53,0,0,0-1.34.647,3.749,3.749,0,0,0-.453,2.1v.264a3.8,3.8,0,0,0,.448,2.113A1.549,1.549,0,0,0-98.943-1.872ZM-90.831,0h-2.549V-13.5h2.549Zm7.787-.967a3.185,3.185,0,0,1-2.6,1.143A3,3,0,0,1-87.979-.7,3.752,3.752,0,0,1-88.8-3.278V-9.51h2.54v6.151q0,1.487,1.354,1.487a1.834,1.834,0,0,0,1.775-.9V-9.51h2.549V0h-2.391Zm9.527-1.661a.818.818,0,0,0-.461-.734,5.241,5.241,0,0,0-1.481-.479q-3.393-.712-3.393-2.883A2.613,2.613,0,0,1-77.8-8.837a4.237,4.237,0,0,1,2.747-.848,4.56,4.56,0,0,1,2.9.853,2.687,2.687,0,0,1,1.085,2.215h-2.54a1.229,1.229,0,0,0-.352-.9,1.488,1.488,0,0,0-1.1-.356,1.52,1.52,0,0,0-.993.29.916.916,0,0,0-.352.738.783.783,0,0,0,.4.681,4.114,4.114,0,0,0,1.349.448,11.019,11.019,0,0,1,1.6.426,2.628,2.628,0,0,1,2.013,2.558,2.481,2.481,0,0,1-1.116,2.1,4.815,4.815,0,0,1-2.883.8A5.029,5.029,0,0,1-77.168-.25a3.561,3.561,0,0,1-1.455-1.169,2.716,2.716,0,0,1-.527-1.6h2.408a1.326,1.326,0,0,0,.5,1.037,1.987,1.987,0,0,0,1.248.36,1.839,1.839,0,0,0,1.1-.277A.861.861,0,0,0-73.516-2.628ZM-66.731,0H-69.28V-9.51h2.549Zm-2.7-11.971a1.251,1.251,0,0,1,.382-.94,1.436,1.436,0,0,1,1.042-.369,1.44,1.44,0,0,1,1.037.369,1.244,1.244,0,0,1,.387.94,1.247,1.247,0,0,1-.391.949,1.443,1.443,0,0,1-1.033.369,1.443,1.443,0,0,1-1.033-.369A1.247,1.247,0,0,1-69.429-11.971Zm4.395,7.128a5.64,5.64,0,0,1,.545-2.522,3.989,3.989,0,0,1,1.569-1.714,4.577,4.577,0,0,1,2.377-.606A4.33,4.33,0,0,1-57.4-8.508a4.727,4.727,0,0,1,1.358,3.2l.018.65a4.97,4.97,0,0,1-1.222,3.511A4.247,4.247,0,0,1-60.526.176a4.268,4.268,0,0,1-3.283-1.318,5.058,5.058,0,0,1-1.226-3.586Zm2.54.18a3.555,3.555,0,0,0,.51,2.073,1.682,1.682,0,0,0,1.459.717,1.686,1.686,0,0,0,1.441-.709,3.89,3.89,0,0,0,.519-2.267,3.519,3.519,0,0,0-.519-2.06,1.686,1.686,0,0,0-1.459-.731,1.658,1.658,0,0,0-1.441.726A3.955,3.955,0,0,0-62.495-4.662ZM-52.124-9.51l.079,1.1a3.32,3.32,0,0,1,2.733-1.274,2.759,2.759,0,0,1,2.25.888,4.142,4.142,0,0,1,.756,2.654V0h-2.54V-6.082A1.648,1.648,0,0,0-49.2-7.255a1.574,1.574,0,0,0-1.169-.365,1.747,1.747,0,0,0-1.608.914V0h-2.54V-9.51ZM-40,.176a4.668,4.668,0,0,1-3.406-1.283,4.561,4.561,0,0,1-1.314-3.419v-.246a5.745,5.745,0,0,1,.554-2.562A4.064,4.064,0,0,1-42.6-9.075a4.4,4.4,0,0,1,2.316-.611,3.947,3.947,0,0,1,3.072,1.23,5,5,0,0,1,1.121,3.489v1.037h-6.056a2.36,2.36,0,0,0,.743,1.494,2.245,2.245,0,0,0,1.569.563,2.742,2.742,0,0,0,2.294-1.063l1.248,1.4A3.813,3.813,0,0,1-37.841-.277,5.075,5.075,0,0,1-40,.176Zm-.29-7.813a1.587,1.587,0,0,0-1.226.512,2.651,2.651,0,0,0-.6,1.466h3.533v-.2a1.891,1.891,0,0,0-.457-1.311A1.638,1.638,0,0,0-40.293-7.638ZM-29.5-2.628a.818.818,0,0,0-.461-.734,5.241,5.241,0,0,0-1.481-.479q-3.393-.712-3.393-2.883a2.613,2.613,0,0,1,1.05-2.114,4.237,4.237,0,0,1,2.747-.848,4.56,4.56,0,0,1,2.9.853,2.687,2.687,0,0,1,1.085,2.215H-29.6a1.229,1.229,0,0,0-.352-.9,1.488,1.488,0,0,0-1.1-.356,1.52,1.52,0,0,0-.993.29.916.916,0,0,0-.352.738.783.783,0,0,0,.4.681,4.114,4.114,0,0,0,1.349.448,11.019,11.019,0,0,1,1.6.426,2.628,2.628,0,0,1,2.013,2.558,2.481,2.481,0,0,1-1.116,2.1,4.815,4.815,0,0,1-2.883.8A5.029,5.029,0,0,1-33.152-.25a3.561,3.561,0,0,1-1.455-1.169,2.716,2.716,0,0,1-.527-1.6h2.408a1.326,1.326,0,0,0,.5,1.037,1.987,1.987,0,0,0,1.248.36,1.839,1.839,0,0,0,1.1-.277A.861.861,0,0,0-29.5-2.628Zm12.138-.967L-15.6-9.51h2.725L-16.7,1.477l-.211.5a2.9,2.9,0,0,1-2.812,1.863,4,4,0,0,1-1.125-.167V1.749l.387.009a2.09,2.09,0,0,0,1.077-.22,1.443,1.443,0,0,0,.558-.729l.3-.782L-21.863-9.51h2.733ZM-2.052-7.128a6.9,6.9,0,0,0-.914-.07,1.86,1.86,0,0,0-1.89.976V0H-7.4V-9.51H-5l.07,1.134a2.354,2.354,0,0,1,2.118-1.31,2.662,2.662,0,0,1,.791.114ZM3.379.176A4.668,4.668,0,0,1-.026-1.107,4.561,4.561,0,0,1-1.34-4.526v-.246A5.745,5.745,0,0,1-.787-7.334,4.064,4.064,0,0,1,.782-9.075,4.4,4.4,0,0,1,3.1-9.686,3.947,3.947,0,0,1,6.17-8.455,5,5,0,0,1,7.291-4.966v1.037H1.235a2.36,2.36,0,0,0,.743,1.494,2.245,2.245,0,0,0,1.569.563A2.742,2.742,0,0,0,5.84-2.936l1.248,1.4A3.813,3.813,0,0,1,5.542-.277,5.075,5.075,0,0,1,3.379.176Zm-.29-7.813a1.587,1.587,0,0,0-1.226.512,2.651,2.651,0,0,0-.6,1.466H4.794v-.2a1.891,1.891,0,0,0-.457-1.311A1.638,1.638,0,0,0,3.089-7.638Zm9.6,5.766a1.666,1.666,0,0,0,1.143-.387,1.355,1.355,0,0,0,.457-1.028h2.382a3.258,3.258,0,0,1-.527,1.771A3.48,3.48,0,0,1,14.722-.268a4.442,4.442,0,0,1-1.991.444,4.129,4.129,0,0,1-3.217-1.3A5.13,5.13,0,0,1,8.336-4.7v-.167A5.071,5.071,0,0,1,9.505-8.376a4.08,4.08,0,0,1,3.208-1.31A4,4,0,0,1,15.574-8.67a3.594,3.594,0,0,1,1.094,2.7H14.287a1.745,1.745,0,0,0-.457-1.206,1.524,1.524,0,0,0-1.16-.464,1.53,1.53,0,0,0-1.34.647,3.749,3.749,0,0,0-.453,2.1v.264a3.8,3.8,0,0,0,.448,2.113A1.549,1.549,0,0,0,12.687-1.872Zm5.036-2.971a5.64,5.64,0,0,1,.545-2.522,3.989,3.989,0,0,1,1.569-1.714,4.577,4.577,0,0,1,2.377-.606,4.33,4.33,0,0,1,3.142,1.178,4.727,4.727,0,0,1,1.358,3.2l.018.65A4.97,4.97,0,0,1,25.51-1.147,4.247,4.247,0,0,1,22.232.176a4.268,4.268,0,0,1-3.283-1.318,5.058,5.058,0,0,1-1.226-3.586Zm2.54.18a3.555,3.555,0,0,0,.51,2.073,1.682,1.682,0,0,0,1.459.717,1.686,1.686,0,0,0,1.441-.709,3.89,3.89,0,0,0,.519-2.267,3.519,3.519,0,0,0-.519-2.06,1.686,1.686,0,0,0-1.459-.731,1.658,1.658,0,0,0-1.441.726A3.955,3.955,0,0,0,20.263-4.662ZM30.678-9.51l.079,1.063a3.342,3.342,0,0,1,2.733-1.239,2.536,2.536,0,0,1,2.522,1.45,3.265,3.265,0,0,1,2.856-1.45,2.836,2.836,0,0,1,2.3.9,4.141,4.141,0,0,1,.756,2.711V0H39.379V-6.064a1.811,1.811,0,0,0-.316-1.182,1.4,1.4,0,0,0-1.116-.374,1.585,1.585,0,0,0-1.582,1.09L36.374,0h-2.54V-6.056a1.789,1.789,0,0,0-.325-1.2A1.416,1.416,0,0,0,32.4-7.62a1.646,1.646,0,0,0-1.564.9V0H28.3V-9.51ZM48.256.176a4.668,4.668,0,0,1-3.406-1.283,4.561,4.561,0,0,1-1.314-3.419v-.246a5.745,5.745,0,0,1,.554-2.562,4.064,4.064,0,0,1,1.569-1.74,4.4,4.4,0,0,1,2.316-.611,3.947,3.947,0,0,1,3.072,1.23,5,5,0,0,1,1.121,3.489v1.037H46.112a2.36,2.36,0,0,0,.743,1.494,2.245,2.245,0,0,0,1.569.563,2.742,2.742,0,0,0,2.294-1.063l1.248,1.4A3.813,3.813,0,0,1,50.418-.277,5.075,5.075,0,0,1,48.256.176Zm-.29-7.813a1.587,1.587,0,0,0-1.226.512,2.651,2.651,0,0,0-.6,1.466h3.533v-.2a1.891,1.891,0,0,0-.457-1.311A1.638,1.638,0,0,0,47.966-7.638Zm7.98-1.872.079,1.1a3.32,3.32,0,0,1,2.733-1.274,2.759,2.759,0,0,1,2.25.888,4.142,4.142,0,0,1,.756,2.654V0h-2.54V-6.082a1.648,1.648,0,0,0-.352-1.173A1.574,1.574,0,0,0,57.7-7.62a1.747,1.747,0,0,0-1.608.914V0h-2.54V-9.51Zm7.348,4.685a5.731,5.731,0,0,1,1-3.542,3.237,3.237,0,0,1,2.729-1.318,2.913,2.913,0,0,1,2.294,1.037V-13.5h2.549V0H69.57l-.123-1.011A2.989,2.989,0,0,1,67,.176,3.228,3.228,0,0,1,64.31-1.147,5.916,5.916,0,0,1,63.294-4.825Zm2.54.189A3.754,3.754,0,0,0,66.3-2.585a1.517,1.517,0,0,0,1.354.713,1.7,1.7,0,0,0,1.661-.995V-6.625a1.675,1.675,0,0,0-1.644-.995Q65.834-7.62,65.834-4.636ZM79.343,0a2.821,2.821,0,0,1-.255-.853,3.073,3.073,0,0,1-2.4,1.028,3.376,3.376,0,0,1-2.316-.809,2.6,2.6,0,0,1-.918-2.039,2.687,2.687,0,0,1,1.121-2.32,5.529,5.529,0,0,1,3.239-.817h1.169v-.545a1.567,1.567,0,0,0-.338-1.055,1.331,1.331,0,0,0-1.068-.4A1.513,1.513,0,0,0,76.57-7.5a1.045,1.045,0,0,0-.365.844h-2.54a2.551,2.551,0,0,1,.51-1.529,3.37,3.37,0,0,1,1.441-1.1,5.253,5.253,0,0,1,2.092-.4A4.15,4.15,0,0,1,80.5-8.8a3.09,3.09,0,0,1,1.033,2.483V-2.2A4.546,4.546,0,0,0,81.91-.149V0Zm-2.1-1.767a2.188,2.188,0,0,0,1.037-.25,1.645,1.645,0,0,0,.7-.672V-4.324h-.949q-1.907,0-2.03,1.318l-.009.149a1.017,1.017,0,0,0,.334.782A1.3,1.3,0,0,0,77.243-1.767Zm10.2-.105a1.666,1.666,0,0,0,1.143-.387,1.355,1.355,0,0,0,.457-1.028h2.382a3.258,3.258,0,0,1-.527,1.771A3.48,3.48,0,0,1,89.473-.268a4.442,4.442,0,0,1-1.991.444,4.129,4.129,0,0,1-3.217-1.3A5.13,5.13,0,0,1,83.087-4.7v-.167a5.071,5.071,0,0,1,1.169-3.507,4.08,4.08,0,0,1,3.208-1.31A4,4,0,0,1,90.325-8.67a3.594,3.594,0,0,1,1.094,2.7H89.038a1.745,1.745,0,0,0-.457-1.206,1.524,1.524,0,0,0-1.16-.464,1.53,1.53,0,0,0-1.34.647,3.749,3.749,0,0,0-.453,2.1v.264a3.8,3.8,0,0,0,.448,2.113A1.549,1.549,0,0,0,87.438-1.872ZM95.55,0H93V-9.51H95.55Zm-2.7-11.971a1.251,1.251,0,0,1,.382-.94,1.436,1.436,0,0,1,1.042-.369,1.44,1.44,0,0,1,1.037.369,1.244,1.244,0,0,1,.387.94,1.247,1.247,0,0,1-.391.949,1.443,1.443,0,0,1-1.033.369,1.443,1.443,0,0,1-1.033-.369A1.247,1.247,0,0,1,92.852-11.971Zm4.395,7.128a5.64,5.64,0,0,1,.545-2.522A3.989,3.989,0,0,1,99.36-9.079a4.577,4.577,0,0,1,2.377-.606,4.33,4.33,0,0,1,3.142,1.178,4.727,4.727,0,0,1,1.358,3.2l.018.65a4.97,4.97,0,0,1-1.222,3.511A4.247,4.247,0,0,1,101.755.176a4.268,4.268,0,0,1-3.283-1.318,5.058,5.058,0,0,1-1.226-3.586Zm2.54.18a3.555,3.555,0,0,0,.51,2.073,1.682,1.682,0,0,0,1.459.717,1.686,1.686,0,0,0,1.441-.709,3.89,3.89,0,0,0,.519-2.267,3.519,3.519,0,0,0-.519-2.06,1.686,1.686,0,0,0-1.459-.731,1.658,1.658,0,0,0-1.441.726A3.955,3.955,0,0,0,99.787-4.662ZM110.158-9.51l.079,1.1a3.32,3.32,0,0,1,2.733-1.274,2.759,2.759,0,0,1,2.25.888,4.142,4.142,0,0,1,.756,2.654V0h-2.54V-6.082a1.648,1.648,0,0,0-.352-1.173,1.574,1.574,0,0,0-1.169-.365,1.747,1.747,0,0,0-1.608.914V0h-2.54V-9.51ZM122.278.176a4.668,4.668,0,0,1-3.406-1.283,4.561,4.561,0,0,1-1.314-3.419v-.246a5.745,5.745,0,0,1,.554-2.562,4.064,4.064,0,0,1,1.569-1.74A4.4,4.4,0,0,1,122-9.686a3.947,3.947,0,0,1,3.072,1.23,5,5,0,0,1,1.121,3.489v1.037h-6.056a2.36,2.36,0,0,0,.743,1.494,2.245,2.245,0,0,0,1.569.563,2.742,2.742,0,0,0,2.294-1.063l1.248,1.4A3.813,3.813,0,0,1,124.44-.277,5.075,5.075,0,0,1,122.278.176Zm-.29-7.813a1.587,1.587,0,0,0-1.226.512,2.651,2.651,0,0,0-.6,1.466h3.533v-.2a1.891,1.891,0,0,0-.457-1.311A1.638,1.638,0,0,0,121.988-7.638Zm10.793,5.01a.818.818,0,0,0-.461-.734,5.241,5.241,0,0,0-1.481-.479q-3.393-.712-3.393-2.883a2.613,2.613,0,0,1,1.05-2.114,4.237,4.237,0,0,1,2.747-.848,4.56,4.56,0,0,1,2.9.853,2.687,2.687,0,0,1,1.085,2.215h-2.54a1.229,1.229,0,0,0-.352-.9,1.488,1.488,0,0,0-1.1-.356,1.52,1.52,0,0,0-.993.29.916.916,0,0,0-.352.738.783.783,0,0,0,.4.681,4.114,4.114,0,0,0,1.349.448,11.019,11.019,0,0,1,1.6.426,2.628,2.628,0,0,1,2.013,2.558,2.481,2.481,0,0,1-1.116,2.1,4.815,4.815,0,0,1-2.883.8,5.029,5.029,0,0,1-2.123-.426,3.561,3.561,0,0,1-1.455-1.169,2.716,2.716,0,0,1-.527-1.6h2.408a1.326,1.326,0,0,0,.5,1.037,1.987,1.987,0,0,0,1.248.36,1.839,1.839,0,0,0,1.1-.277A.861.861,0,0,0,132.781-2.628Z" transform="translate(1192 1160)" fill="#12263f"/>
    <path id="Trazado_823607" data-name="Trazado 823607" d="M-12.81-10.661h-3.92V0h-2.637V-10.661h-3.867V-12.8H-12.81ZM-8.732,0h-2.54V-9.51h2.54Zm-.747-13.368H-6.71l-2.435,2.725H-11.21ZM-3.5-11.848V-9.51h1.626v1.863H-3.5V-2.9a1.133,1.133,0,0,0,.2.756,1.015,1.015,0,0,0,.773.229,4.051,4.051,0,0,0,.747-.062V-.053A5.229,5.229,0,0,1-3.318.176a2.425,2.425,0,0,1-2.725-2.7V-7.646H-7.431V-9.51h1.389v-2.338ZM5.234-.967A3.185,3.185,0,0,1,2.632.176,3,3,0,0,1,.3-.7,3.752,3.752,0,0,1-.523-3.278V-9.51h2.54v6.151q0,1.487,1.354,1.487a1.834,1.834,0,0,0,1.775-.9V-9.51H7.695V0H5.3ZM12.292,0H9.743V-13.5h2.549Zm1.7-4.843a5.64,5.64,0,0,1,.545-2.522A3.989,3.989,0,0,1,16.1-9.079a4.577,4.577,0,0,1,2.377-.606,4.33,4.33,0,0,1,3.142,1.178,4.727,4.727,0,0,1,1.358,3.2l.018.65a4.97,4.97,0,0,1-1.222,3.511A4.247,4.247,0,0,1,18.5.176a4.268,4.268,0,0,1-3.283-1.318,5.058,5.058,0,0,1-1.226-3.586Zm2.54.18a3.555,3.555,0,0,0,.51,2.073,1.682,1.682,0,0,0,1.459.717,1.686,1.686,0,0,0,1.441-.709,3.89,3.89,0,0,0,.519-2.267,3.519,3.519,0,0,0-.519-2.06,1.686,1.686,0,0,0-1.459-.731,1.658,1.658,0,0,0-1.441.726A3.955,3.955,0,0,0,16.528-4.662Z" transform="translate(497 864)" fill="#12263f"/>
    <path id="Trazado_823608" data-name="Trazado 823608" d="M-46.982,0h-2.637V-12.8h2.637Zm4.614-9.51.079,1.1a3.32,3.32,0,0,1,2.733-1.274,2.759,2.759,0,0,1,2.25.888,4.142,4.142,0,0,1,.756,2.654V0h-2.54V-6.082a1.648,1.648,0,0,0-.352-1.173A1.574,1.574,0,0,0-40.61-7.62a1.747,1.747,0,0,0-1.608.914V0h-2.54V-9.51Zm10.784-2.338V-9.51h1.626v1.863h-1.626V-2.9a1.133,1.133,0,0,0,.2.756,1.015,1.015,0,0,0,.773.229,4.051,4.051,0,0,0,.747-.062V-.053A5.229,5.229,0,0,1-31.4.176a2.425,2.425,0,0,1-2.725-2.7V-7.646h-1.389V-9.51h1.389v-2.338Zm8.385,4.72a6.9,6.9,0,0,0-.914-.07A1.86,1.86,0,0,0-26-6.223V0h-2.54V-9.51h2.4l.07,1.134a2.354,2.354,0,0,1,2.118-1.31,2.662,2.662,0,0,1,.791.114Zm.51,2.285a5.64,5.64,0,0,1,.545-2.522,3.989,3.989,0,0,1,1.569-1.714A4.577,4.577,0,0,1-18.2-9.686a4.33,4.33,0,0,1,3.142,1.178,4.727,4.727,0,0,1,1.358,3.2l.018.65A4.97,4.97,0,0,1-14.9-1.147,4.247,4.247,0,0,1-18.18.176a4.268,4.268,0,0,1-3.283-1.318,5.058,5.058,0,0,1-1.226-3.586Zm2.54.18a3.555,3.555,0,0,0,.51,2.073,1.682,1.682,0,0,0,1.459.717,1.686,1.686,0,0,0,1.441-.709,3.89,3.89,0,0,0,.519-2.267,3.519,3.519,0,0,0-.519-2.06A1.686,1.686,0,0,0-18.2-7.638a1.658,1.658,0,0,0-1.441.726A3.955,3.955,0,0,0-20.149-4.662Zm7.638-.163a5.731,5.731,0,0,1,1-3.542A3.237,3.237,0,0,1-8.785-9.686,2.913,2.913,0,0,1-6.491-8.648V-13.5h2.549V0H-6.236l-.123-1.011A2.989,2.989,0,0,1-8.8.176,3.228,3.228,0,0,1-11.5-1.147,5.916,5.916,0,0,1-12.511-4.825Zm2.54.189a3.754,3.754,0,0,0,.466,2.051,1.517,1.517,0,0,0,1.354.713,1.7,1.7,0,0,0,1.661-.995V-6.625A1.675,1.675,0,0,0-8.134-7.62Q-9.971-7.62-9.971-4.636ZM3.722-.967A3.185,3.185,0,0,1,1.121.176,3,3,0,0,1-1.213-.7a3.752,3.752,0,0,1-.822-2.575V-9.51H.505v6.151q0,1.487,1.354,1.487a1.834,1.834,0,0,0,1.775-.9V-9.51H6.183V0H3.792Zm8.332-.905A1.666,1.666,0,0,0,13.2-2.259a1.355,1.355,0,0,0,.457-1.028h2.382a3.258,3.258,0,0,1-.527,1.771A3.48,3.48,0,0,1,14.089-.268,4.442,4.442,0,0,1,12.1.176a4.129,4.129,0,0,1-3.217-1.3A5.13,5.13,0,0,1,7.7-4.7v-.167A5.071,5.071,0,0,1,8.873-8.376a4.08,4.08,0,0,1,3.208-1.31A4,4,0,0,1,14.941-8.67a3.594,3.594,0,0,1,1.094,2.7H13.654A1.745,1.745,0,0,0,13.2-7.174a1.524,1.524,0,0,0-1.16-.464,1.53,1.53,0,0,0-1.34.647,3.749,3.749,0,0,0-.453,2.1v.264a3.8,3.8,0,0,0,.448,2.113A1.549,1.549,0,0,0,12.054-1.872Zm9.387,0a1.666,1.666,0,0,0,1.143-.387,1.355,1.355,0,0,0,.457-1.028h2.382A3.258,3.258,0,0,1,24.9-1.516,3.48,3.48,0,0,1,23.476-.268a4.442,4.442,0,0,1-1.991.444,4.129,4.129,0,0,1-3.217-1.3A5.13,5.13,0,0,1,17.09-4.7v-.167a5.071,5.071,0,0,1,1.169-3.507,4.08,4.08,0,0,1,3.208-1.31A4,4,0,0,1,24.328-8.67a3.594,3.594,0,0,1,1.094,2.7H23.041a1.745,1.745,0,0,0-.457-1.206,1.524,1.524,0,0,0-1.16-.464,1.53,1.53,0,0,0-1.34.647,3.749,3.749,0,0,0-.453,2.1v.264a3.8,3.8,0,0,0,.448,2.113A1.549,1.549,0,0,0,21.441-1.872ZM29.553,0H27V-9.51h2.549Zm-2.7-11.971a1.251,1.251,0,0,1,.382-.94,1.436,1.436,0,0,1,1.042-.369,1.44,1.44,0,0,1,1.037.369,1.244,1.244,0,0,1,.387.94,1.247,1.247,0,0,1-.391.949,1.443,1.443,0,0,1-1.033.369,1.443,1.443,0,0,1-1.033-.369A1.247,1.247,0,0,1,26.855-11.971ZM31.25-4.843a5.64,5.64,0,0,1,.545-2.522,3.989,3.989,0,0,1,1.569-1.714,4.577,4.577,0,0,1,2.377-.606,4.33,4.33,0,0,1,3.142,1.178,4.727,4.727,0,0,1,1.358,3.2l.018.65a4.97,4.97,0,0,1-1.222,3.511A4.247,4.247,0,0,1,35.758.176a4.268,4.268,0,0,1-3.283-1.318A5.058,5.058,0,0,1,31.25-4.729Zm2.54.18a3.555,3.555,0,0,0,.51,2.073,1.682,1.682,0,0,0,1.459.717A1.686,1.686,0,0,0,37.2-2.581a3.89,3.89,0,0,0,.519-2.267,3.519,3.519,0,0,0-.519-2.06,1.686,1.686,0,0,0-1.459-.731,1.658,1.658,0,0,0-1.441.726A3.955,3.955,0,0,0,33.79-4.662ZM36.242-13.5H39.01l-2.435,2.725H34.51Zm7.919,3.99.079,1.1a3.32,3.32,0,0,1,2.733-1.274,2.759,2.759,0,0,1,2.25.888,4.142,4.142,0,0,1,.756,2.654V0h-2.54V-6.082a1.648,1.648,0,0,0-.352-1.173,1.574,1.574,0,0,0-1.169-.365,1.747,1.747,0,0,0-1.608.914V0H41.77V-9.51Z" transform="translate(470 1013)" fill="#12263f"/>
    <path id="Trazado_823609" data-name="Trazado 823609" d="M-26.455-6.108a7.725,7.725,0,0,1-.668,3.313A5.03,5.03,0,0,1-29.035-.6a5.288,5.288,0,0,1-2.852.773,5.324,5.324,0,0,1-2.839-.765,5.08,5.08,0,0,1-1.934-2.184,7.5,7.5,0,0,1-.694-3.265v-.633A7.685,7.685,0,0,1-36.672-10,5.072,5.072,0,0,1-34.748-12.2a5.3,5.3,0,0,1,2.843-.769,5.3,5.3,0,0,1,2.843.769A5.072,5.072,0,0,1-27.136-10a7.663,7.663,0,0,1,.681,3.318Zm-2.672-.58a5.385,5.385,0,0,0-.721-3.059A2.349,2.349,0,0,0-31.9-10.793,2.349,2.349,0,0,0-33.952-9.76a5.324,5.324,0,0,0-.729,3.028v.624a5.453,5.453,0,0,0,.721,3.041,2.342,2.342,0,0,0,2.074,1.081,2.321,2.321,0,0,0,2.039-1.042,5.421,5.421,0,0,0,.721-3.037Zm12.99,2.021A5.758,5.758,0,0,1-17.112-1.1,3.231,3.231,0,0,1-19.837.176a2.969,2.969,0,0,1-2.47-1.187L-22.421,0h-2.285V-13.5h2.54v4.843a2.893,2.893,0,0,1,2.312-1.028,3.258,3.258,0,0,1,2.729,1.279,5.767,5.767,0,0,1,.989,3.6Zm-2.54-.185a3.783,3.783,0,0,0-.457-2.1A1.545,1.545,0,0,0-20.5-7.62a1.676,1.676,0,0,0-1.67.993v3.753a1.7,1.7,0,0,0,1.688,1,1.568,1.568,0,0,0,1.617-1.213A6.257,6.257,0,0,0-18.677-4.852Zm6.794-4.658V.519a3.4,3.4,0,0,1-.835,2.448,3.174,3.174,0,0,1-2.408.875,5.165,5.165,0,0,1-1.257-.149V1.679a4.768,4.768,0,0,0,.8.079q1.151,0,1.151-1.222V-9.51Zm-2.751-2.461a1.251,1.251,0,0,1,.382-.94,1.436,1.436,0,0,1,1.042-.369,1.436,1.436,0,0,1,1.042.369,1.251,1.251,0,0,1,.382.94,1.247,1.247,0,0,1-.391.949,1.443,1.443,0,0,1-1.033.369,1.443,1.443,0,0,1-1.033-.369A1.247,1.247,0,0,1-14.634-11.971ZM-5.52.176A4.668,4.668,0,0,1-8.925-1.107a4.561,4.561,0,0,1-1.314-3.419v-.246a5.745,5.745,0,0,1,.554-2.562,4.064,4.064,0,0,1,1.569-1.74A4.4,4.4,0,0,1-5.8-9.686a3.947,3.947,0,0,1,3.072,1.23A5,5,0,0,1-1.608-4.966v1.037H-7.664a2.36,2.36,0,0,0,.743,1.494,2.245,2.245,0,0,0,1.569.563A2.742,2.742,0,0,0-3.059-2.936l1.248,1.4A3.813,3.813,0,0,1-3.357-.277,5.075,5.075,0,0,1-5.52.176Zm-.29-7.813a1.587,1.587,0,0,0-1.226.512,2.651,2.651,0,0,0-.6,1.466H-4.1v-.2a1.891,1.891,0,0,0-.457-1.311A1.638,1.638,0,0,0-5.81-7.638Zm8.684-4.21V-9.51H4.5v1.863H2.874V-2.9a1.133,1.133,0,0,0,.2.756,1.015,1.015,0,0,0,.773.229A4.051,4.051,0,0,0,4.6-1.978V-.053A5.229,5.229,0,0,1,3.059.176a2.425,2.425,0,0,1-2.725-2.7V-7.646H-1.055V-9.51H.334v-2.338ZM8.6,0H6.047V-9.51H8.6ZM5.9-11.971a1.251,1.251,0,0,1,.382-.94,1.436,1.436,0,0,1,1.042-.369,1.44,1.44,0,0,1,1.037.369,1.244,1.244,0,0,1,.387.94,1.247,1.247,0,0,1-.391.949,1.443,1.443,0,0,1-1.033.369,1.443,1.443,0,0,1-1.033-.369A1.247,1.247,0,0,1,5.9-11.971ZM14.247-3.1,16.014-9.51h2.654L15.46,0H13.034L9.826-9.51H12.48Zm5.01-1.74A5.64,5.64,0,0,1,19.8-7.365a3.989,3.989,0,0,1,1.569-1.714,4.577,4.577,0,0,1,2.377-.606A4.33,4.33,0,0,1,26.89-8.508a4.727,4.727,0,0,1,1.358,3.2l.018.65a4.97,4.97,0,0,1-1.222,3.511A4.247,4.247,0,0,1,23.766.176a4.268,4.268,0,0,1-3.283-1.318,5.058,5.058,0,0,1-1.226-3.586Zm2.54.18a3.555,3.555,0,0,0,.51,2.073,1.682,1.682,0,0,0,1.459.717,1.686,1.686,0,0,0,1.441-.709,3.89,3.89,0,0,0,.519-2.267,3.519,3.519,0,0,0-.519-2.06,1.686,1.686,0,0,0-1.459-.731,1.658,1.658,0,0,0-1.441.726A3.955,3.955,0,0,0,21.8-4.662ZM34.98-2.628a.818.818,0,0,0-.461-.734,5.241,5.241,0,0,0-1.481-.479q-3.393-.712-3.393-2.883A2.613,2.613,0,0,1,30.7-8.837a4.237,4.237,0,0,1,2.747-.848,4.56,4.56,0,0,1,2.9.853,2.687,2.687,0,0,1,1.085,2.215h-2.54a1.229,1.229,0,0,0-.352-.9,1.488,1.488,0,0,0-1.1-.356,1.52,1.52,0,0,0-.993.29.916.916,0,0,0-.352.738.783.783,0,0,0,.4.681,4.114,4.114,0,0,0,1.349.448,11.019,11.019,0,0,1,1.6.426A2.628,2.628,0,0,1,37.45-2.733a2.481,2.481,0,0,1-1.116,2.1,4.815,4.815,0,0,1-2.883.8A5.029,5.029,0,0,1,31.329-.25a3.561,3.561,0,0,1-1.455-1.169,2.716,2.716,0,0,1-.527-1.6h2.408a1.326,1.326,0,0,0,.5,1.037,1.987,1.987,0,0,0,1.248.36,1.839,1.839,0,0,0,1.1-.277A.861.861,0,0,0,34.98-2.628Z" transform="translate(437 1162)" fill="#12263f"/>
    <path id="Trazado_823610" data-name="Trazado 823610" d="M9.893-6.035H4.5v3.4h6.367V0H1.074V-14.219h9.814v2.646H4.5v3H9.893ZM15.586,0h-3.3V-15h3.3Zm7.139.2a5.432,5.432,0,0,1-3.936-1.45,5.008,5.008,0,0,1-1.5-3.774V-5.3a6.489,6.489,0,0,1,.6-2.861,4.395,4.395,0,0,1,1.753-1.919,5.292,5.292,0,0,1,2.734-.679A4.574,4.574,0,0,1,25.889-9.38a5.43,5.43,0,0,1,1.289,3.853v1.279H20.635a2.372,2.372,0,0,0,.771,1.4,2.3,2.3,0,0,0,1.543.508,2.958,2.958,0,0,0,2.441-1.094l1.5,1.777A4.2,4.2,0,0,1,25.151-.308,5.891,5.891,0,0,1,22.725.2Zm-.371-8.418q-1.445,0-1.719,1.914h3.32v-.254a1.63,1.63,0,0,0-.4-1.226A1.593,1.593,0,0,0,22.354-8.223Zm9.258-2.344.107,1.24a3.633,3.633,0,0,1,3.018-1.436A2.675,2.675,0,0,1,37.441-9.17a3.516,3.516,0,0,1,3.105-1.592q3.213,0,3.3,3.887V0h-3.3V-6.67a2.014,2.014,0,0,0-.273-1.182,1.164,1.164,0,0,0-1-.371,1.559,1.559,0,0,0-1.455.869l.01.137V0h-3.3V-6.65a2.117,2.117,0,0,0-.264-1.2,1.161,1.161,0,0,0-1.006-.371,1.578,1.578,0,0,0-1.445.869V0H28.525V-10.566ZM50.84.2A5.432,5.432,0,0,1,46.9-1.255a5.008,5.008,0,0,1-1.5-3.774V-5.3A6.489,6.489,0,0,1,46-8.164a4.395,4.395,0,0,1,1.753-1.919,5.292,5.292,0,0,1,2.734-.679A4.574,4.574,0,0,1,54-9.38a5.43,5.43,0,0,1,1.289,3.853v1.279H48.75a2.372,2.372,0,0,0,.771,1.4,2.3,2.3,0,0,0,1.543.508,2.958,2.958,0,0,0,2.441-1.094l1.5,1.777A4.2,4.2,0,0,1,53.267-.308,5.891,5.891,0,0,1,50.84.2Zm-.371-8.418q-1.445,0-1.719,1.914h3.32v-.254a1.63,1.63,0,0,0-.4-1.226A1.593,1.593,0,0,0,50.469-8.223Zm9.17-2.344.107,1.24a3.583,3.583,0,0,1,3.018-1.436,3.015,3.015,0,0,1,2.466.986,4.7,4.7,0,0,1,.845,2.969V0h-3.3V-6.67a1.783,1.783,0,0,0-.322-1.177,1.491,1.491,0,0,0-1.172-.376,1.569,1.569,0,0,0-1.436.762V0H56.553V-10.566Zm12.09-2.627v2.627h1.738v2.285H71.729v4.834a1.234,1.234,0,0,0,.215.83,1.152,1.152,0,0,0,.85.234,4.828,4.828,0,0,0,.82-.059V-.088A6.074,6.074,0,0,1,71.758.2a3.448,3.448,0,0,1-2.51-.8,3.282,3.282,0,0,1-.811-2.432V-8.281H67.09v-2.285h1.348v-2.627Zm2.324,7.813A6.236,6.236,0,0,1,74.668-8.2a4.4,4.4,0,0,1,1.768-1.9,5.323,5.323,0,0,1,2.705-.664,4.858,4.858,0,0,1,3.74,1.47,5.64,5.64,0,0,1,1.367,4v.117a5.472,5.472,0,0,1-1.372,3.921A4.871,4.871,0,0,1,79.16.2a4.927,4.927,0,0,1-3.623-1.353,5.29,5.29,0,0,1-1.475-3.667Zm3.291.205A3.932,3.932,0,0,0,77.8-3.027a1.529,1.529,0,0,0,1.357.684q1.758,0,1.8-2.705v-.332q0-2.842-1.816-2.842-1.65,0-1.787,2.451ZM91.23-2.969a.76.76,0,0,0-.439-.674,6.685,6.685,0,0,0-1.67-.527,7.615,7.615,0,0,1-2.031-.718,3.4,3.4,0,0,1-1.221-1.079,2.577,2.577,0,0,1-.42-1.455,2.92,2.92,0,0,1,1.2-2.4,4.948,4.948,0,0,1,3.145-.942,5.482,5.482,0,0,1,3.359.947,2.962,2.962,0,0,1,1.27,2.49h-3.3q0-1.27-1.338-1.27a1.326,1.326,0,0,0-.869.288.892.892,0,0,0-.352.718.819.819,0,0,0,.43.713,4.06,4.06,0,0,0,1.372.449,11.857,11.857,0,0,1,1.655.42A3.007,3.007,0,0,1,94.4-3.066,2.767,2.767,0,0,1,93.12-.713,5.631,5.631,0,0,1,89.795.2a5.747,5.747,0,0,1-2.422-.488,4.05,4.05,0,0,1-1.66-1.328,3.007,3.007,0,0,1-.6-1.768h3.076a1.272,1.272,0,0,0,.488,1.069,2.009,2.009,0,0,0,1.2.337,1.58,1.58,0,0,0,1.011-.273A.875.875,0,0,0,91.23-2.969Zm9.277-2.393a6.455,6.455,0,0,1,1.084-3.955,3.568,3.568,0,0,1,3.027-1.445A3.035,3.035,0,0,1,107-9.648V-15h3.3V0h-2.959l-.166-1.133A3.116,3.116,0,0,1,104.6.2a3.562,3.562,0,0,1-2.988-1.445A6.659,6.659,0,0,1,100.508-5.361Zm3.291.205q0,2.813,1.641,2.813A1.62,1.62,0,0,0,107-3.262V-7.285a1.576,1.576,0,0,0-1.543-.937q-1.523,0-1.65,2.461ZM117.285.2a5.432,5.432,0,0,1-3.936-1.45,5.008,5.008,0,0,1-1.5-3.774V-5.3a6.489,6.489,0,0,1,.6-2.861,4.395,4.395,0,0,1,1.753-1.919,5.292,5.292,0,0,1,2.734-.679,4.574,4.574,0,0,1,3.516,1.382,5.43,5.43,0,0,1,1.289,3.853v1.279H115.2a2.372,2.372,0,0,0,.771,1.4,2.3,2.3,0,0,0,1.543.508,2.958,2.958,0,0,0,2.441-1.094l1.5,1.777a4.2,4.2,0,0,1-1.743,1.353A5.891,5.891,0,0,1,117.285.2Zm-.371-8.418q-1.445,0-1.719,1.914h3.32v-.254a1.63,1.63,0,0,0-.4-1.226A1.593,1.593,0,0,0,116.914-8.223ZM126.533,0h-3.3V-15h3.3Zm10.479,0h-3.3V-10.566h3.3Zm-3.5-13.291a1.469,1.469,0,0,1,.508-1.152,1.916,1.916,0,0,1,1.318-.449,1.916,1.916,0,0,1,1.318.449,1.469,1.469,0,0,1,.508,1.152,1.469,1.469,0,0,1-.508,1.152,1.916,1.916,0,0,1-1.318.449,1.916,1.916,0,0,1-1.318-.449A1.469,1.469,0,0,1,133.516-13.291Zm8.545,2.725.107,1.24a3.583,3.583,0,0,1,3.018-1.436,3.015,3.015,0,0,1,2.466.986,4.7,4.7,0,0,1,.845,2.969V0h-3.3V-6.67a1.783,1.783,0,0,0-.322-1.177,1.491,1.491,0,0,0-1.172-.376,1.569,1.569,0,0,0-1.436.762V0h-3.291V-10.566ZM151.045,0V-8.281h-1.533v-2.285h1.533v-.84a3.651,3.651,0,0,1,1.064-2.8,4.206,4.206,0,0,1,2.988-1,6.544,6.544,0,0,1,1.543.205l.01,2.422a3.007,3.007,0,0,0-.811-.088q-1.494,0-1.494,1.289v.811h2.061v2.285h-2.061V0Zm6.1-5.381a6.236,6.236,0,0,1,.615-2.817,4.4,4.4,0,0,1,1.768-1.9,5.323,5.323,0,0,1,2.705-.664,4.858,4.858,0,0,1,3.74,1.47,5.64,5.64,0,0,1,1.367,4v.117a5.472,5.472,0,0,1-1.372,3.921A4.871,4.871,0,0,1,162.256.2a4.927,4.927,0,0,1-3.623-1.353,5.29,5.29,0,0,1-1.475-3.667Zm3.291.205a3.932,3.932,0,0,0,.459,2.148,1.529,1.529,0,0,0,1.357.684q1.758,0,1.8-2.705v-.332q0-2.842-1.816-2.842-1.65,0-1.787,2.451Zm14.746-2.412L174.1-7.666a1.947,1.947,0,0,0-1.992.977V0h-3.291V-10.566H171.9l.107,1.357a2.548,2.548,0,0,1,2.314-1.553,3.209,3.209,0,0,1,.918.117Zm4.3-2.979.107,1.24a3.633,3.633,0,0,1,3.018-1.436,2.675,2.675,0,0,1,2.705,1.592,3.516,3.516,0,0,1,3.105-1.592q3.213,0,3.3,3.887V0h-3.3V-6.67a2.014,2.014,0,0,0-.273-1.182,1.164,1.164,0,0,0-1-.371,1.559,1.559,0,0,0-1.455.869l.01.137V0h-3.3V-6.65a2.117,2.117,0,0,0-.264-1.2,1.161,1.161,0,0,0-1.006-.371,1.578,1.578,0,0,0-1.445.869V0H176.4V-10.566ZM198.711.2a5.432,5.432,0,0,1-3.936-1.45,5.008,5.008,0,0,1-1.5-3.774V-5.3a6.489,6.489,0,0,1,.6-2.861,4.395,4.395,0,0,1,1.753-1.919,5.292,5.292,0,0,1,2.734-.679,4.574,4.574,0,0,1,3.516,1.382,5.43,5.43,0,0,1,1.289,3.853v1.279h-6.543a2.372,2.372,0,0,0,.771,1.4,2.3,2.3,0,0,0,1.543.508,2.958,2.958,0,0,0,2.441-1.094l1.5,1.777a4.2,4.2,0,0,1-1.743,1.353A5.891,5.891,0,0,1,198.711.2Zm-.371-8.418q-1.445,0-1.719,1.914h3.32v-.254a1.63,1.63,0,0,0-.4-1.226A1.593,1.593,0,0,0,198.34-8.223Zm10.713,2.861a6.455,6.455,0,0,1,1.084-3.955,3.568,3.568,0,0,1,3.027-1.445,3.035,3.035,0,0,1,2.383,1.113V-15h3.3V0h-2.959l-.166-1.133A3.116,3.116,0,0,1,213.145.2a3.562,3.562,0,0,1-2.988-1.445A6.659,6.659,0,0,1,209.053-5.361Zm3.291.205q0,2.813,1.641,2.813a1.62,1.62,0,0,0,1.563-.918V-7.285A1.576,1.576,0,0,0,214-8.223q-1.523,0-1.65,2.461ZM225.83.2a5.432,5.432,0,0,1-3.936-1.45,5.008,5.008,0,0,1-1.5-3.774V-5.3a6.489,6.489,0,0,1,.6-2.861,4.395,4.395,0,0,1,1.753-1.919,5.292,5.292,0,0,1,2.734-.679,4.574,4.574,0,0,1,3.516,1.382,5.43,5.43,0,0,1,1.289,3.853v1.279H223.74a2.372,2.372,0,0,0,.771,1.4,2.3,2.3,0,0,0,1.543.508A2.958,2.958,0,0,0,228.5-3.437L230-1.66a4.2,4.2,0,0,1-1.743,1.353A5.891,5.891,0,0,1,225.83.2Zm-.371-8.418q-1.445,0-1.719,1.914h3.32v-.254a1.63,1.63,0,0,0-.4-1.226A1.593,1.593,0,0,0,225.459-8.223Zm10.713,2.842a6.236,6.236,0,0,1,.615-2.817,4.4,4.4,0,0,1,1.768-1.9,5.323,5.323,0,0,1,2.705-.664A4.858,4.858,0,0,1,245-9.292a5.64,5.64,0,0,1,1.367,4v.117A5.472,5.472,0,0,1,245-1.255,4.871,4.871,0,0,1,241.279.2a4.927,4.927,0,0,1-3.623-1.353,5.29,5.29,0,0,1-1.475-3.667Zm3.291.205a3.932,3.932,0,0,0,.459,2.148,1.529,1.529,0,0,0,1.357.684q1.758,0,1.8-2.705v-.332q0-2.842-1.816-2.842-1.65,0-1.787,2.451Zm18.164-.029a6.372,6.372,0,0,1-1.108,3.931A3.554,3.554,0,0,1,253.525.2a3.046,3.046,0,0,1-2.393-1.064V4.063h-3.291V-10.566h3.076l.1.977a3.046,3.046,0,0,1,2.49-1.172,3.582,3.582,0,0,1,3.037,1.44,6.45,6.45,0,0,1,1.084,3.96Zm-3.291-.205q0-2.812-1.641-2.812a1.549,1.549,0,0,0-1.562.84v4.16a1.6,1.6,0,0,0,1.582.879q1.572,0,1.621-2.715ZM264.189.2a5.432,5.432,0,0,1-3.936-1.45,5.008,5.008,0,0,1-1.5-3.774V-5.3a6.489,6.489,0,0,1,.6-2.861,4.395,4.395,0,0,1,1.753-1.919,5.292,5.292,0,0,1,2.734-.679,4.574,4.574,0,0,1,3.516,1.382,5.43,5.43,0,0,1,1.289,3.853v1.279H262.1a2.372,2.372,0,0,0,.771,1.4,2.3,2.3,0,0,0,1.543.508,2.958,2.958,0,0,0,2.441-1.094l1.5,1.777a4.2,4.2,0,0,1-1.743,1.353A5.891,5.891,0,0,1,264.189.2Zm-.371-8.418q-1.445,0-1.719,1.914h3.32v-.254a1.63,1.63,0,0,0-.4-1.226A1.593,1.593,0,0,0,263.818-8.223Zm12.539.635-1.084-.078a1.947,1.947,0,0,0-1.992.977V0H269.99V-10.566h3.086l.107,1.357a2.548,2.548,0,0,1,2.314-1.553,3.209,3.209,0,0,1,.918.117ZM283.2,0a3.716,3.716,0,0,1-.312-.947A3.06,3.06,0,0,1,280.352.2a3.749,3.749,0,0,1-2.539-.9,2.875,2.875,0,0,1-1.045-2.271,2.955,2.955,0,0,1,1.27-2.6,6.468,6.468,0,0,1,3.691-.879h1.016v-.559q0-1.462-1.26-1.462a1.03,1.03,0,0,0-1.172,1.158h-3.291a2.95,2.95,0,0,1,1.3-2.487,5.479,5.479,0,0,1,3.325-.956,4.8,4.8,0,0,1,3.193.986,3.429,3.429,0,0,1,1.2,2.705v4.678a4.79,4.79,0,0,0,.449,2.227V0Zm-2.061-2.148a1.836,1.836,0,0,0,1.021-.264,1.653,1.653,0,0,0,.581-.6V-4.7h-.957q-1.719,0-1.719,1.543a.942.942,0,0,0,.3.728A1.1,1.1,0,0,0,281.143-2.148Zm11.191-.2a1.464,1.464,0,0,0,1.074-.376,1.379,1.379,0,0,0,.371-1.05h3.086A3.653,3.653,0,0,1,295.62-.918,4.631,4.631,0,0,1,292.412.2a4.689,4.689,0,0,1-3.633-1.445,5.7,5.7,0,0,1-1.328-4v-.137a6.436,6.436,0,0,1,.591-2.827,4.3,4.3,0,0,1,1.7-1.885,5.081,5.081,0,0,1,2.637-.659,4.573,4.573,0,0,1,3.271,1.143,4.053,4.053,0,0,1,1.211,3.1h-3.086a1.806,1.806,0,0,0-.4-1.26,1.382,1.382,0,0,0-1.074-.439q-1.279,0-1.494,1.631a11.51,11.51,0,0,0-.068,1.426,4.52,4.52,0,0,0,.381,2.207A1.319,1.319,0,0,0,292.334-2.344ZM301.729,0h-3.3V-10.566h3.3Zm-3.5-13.291a1.469,1.469,0,0,1,.508-1.152,1.916,1.916,0,0,1,1.318-.449,1.916,1.916,0,0,1,1.318.449,1.469,1.469,0,0,1,.508,1.152,1.469,1.469,0,0,1-.508,1.152,1.916,1.916,0,0,1-1.318.449,1.916,1.916,0,0,1-1.318-.449A1.469,1.469,0,0,1,298.232-13.291Zm5.107,7.91a6.236,6.236,0,0,1,.615-2.817,4.4,4.4,0,0,1,1.768-1.9,5.323,5.323,0,0,1,2.705-.664,4.859,4.859,0,0,1,3.74,1.47,5.64,5.64,0,0,1,1.367,4v.117a5.472,5.472,0,0,1-1.372,3.921A4.871,4.871,0,0,1,308.447.2a4.927,4.927,0,0,1-3.623-1.353,5.29,5.29,0,0,1-1.475-3.667Zm3.291.205a3.931,3.931,0,0,0,.459,2.148,1.529,1.529,0,0,0,1.357.684q1.758,0,1.8-2.705v-.332q0-2.842-1.816-2.842-1.65,0-1.787,2.451Zm11.377-5.391.107,1.24a3.583,3.583,0,0,1,3.018-1.436,3.015,3.015,0,0,1,2.466.986,4.7,4.7,0,0,1,.845,2.969V0h-3.3V-6.67a1.783,1.783,0,0,0-.322-1.177,1.491,1.491,0,0,0-1.172-.376,1.569,1.569,0,0,0-1.436.762V0h-3.291V-10.566ZM331.377.2a5.432,5.432,0,0,1-3.936-1.45,5.008,5.008,0,0,1-1.5-3.774V-5.3a6.489,6.489,0,0,1,.6-2.861,4.395,4.395,0,0,1,1.753-1.919,5.292,5.292,0,0,1,2.734-.679,4.574,4.574,0,0,1,3.516,1.382,5.43,5.43,0,0,1,1.289,3.853v1.279h-6.543a2.372,2.372,0,0,0,.771,1.4,2.3,2.3,0,0,0,1.543.508,2.958,2.958,0,0,0,2.441-1.094l1.5,1.777A4.2,4.2,0,0,1,333.8-.308,5.891,5.891,0,0,1,331.377.2Zm-.371-8.418q-1.445,0-1.719,1.914h3.32v-.254a1.63,1.63,0,0,0-.4-1.226A1.593,1.593,0,0,0,331.006-8.223Zm11.68,5.254a.76.76,0,0,0-.439-.674,6.685,6.685,0,0,0-1.67-.527,7.615,7.615,0,0,1-2.031-.718,3.4,3.4,0,0,1-1.221-1.079,2.577,2.577,0,0,1-.42-1.455,2.92,2.92,0,0,1,1.2-2.4,4.948,4.948,0,0,1,3.145-.942,5.482,5.482,0,0,1,3.359.947,2.962,2.962,0,0,1,1.27,2.49h-3.3q0-1.27-1.338-1.27a1.326,1.326,0,0,0-.869.288.892.892,0,0,0-.352.718.819.819,0,0,0,.43.713,4.06,4.06,0,0,0,1.372.449,11.856,11.856,0,0,1,1.655.42,3.007,3.007,0,0,1,2.383,2.939,2.767,2.767,0,0,1-1.284,2.354A5.631,5.631,0,0,1,341.25.2a5.747,5.747,0,0,1-2.422-.488,4.05,4.05,0,0,1-1.66-1.328,3.007,3.007,0,0,1-.6-1.768h3.076a1.272,1.272,0,0,0,.488,1.069,2.009,2.009,0,0,0,1.2.337,1.58,1.58,0,0,0,1.011-.273A.875.875,0,0,0,342.686-2.969Z" transform="translate(622 725)" fill="#12263f"/>
  </g>
</svg>
