<svg xmlns="http://www.w3.org/2000/svg" xmlns:xlink="http://www.w3.org/1999/xlink" width="190" height="190" viewBox="0 0 190 190">
  <defs>
    <clipPath id="clip-path">
      <rect id="Rect치ngulo_378090" data-name="Rect치ngulo 378090" width="190" height="190" transform="translate(1125 2520.811)" fill="#fff" stroke="#707070" stroke-width="1"/>
    </clipPath>
    <clipPath id="clip-path-2">
      <rect id="Rect치ngulo_378115" data-name="Rect치ngulo 378115" width="182" height="181.872" fill="none"/>
    </clipPath>
  </defs>
  <g id="Enmascarar_grupo_392" data-name="Enmascarar grupo 392" transform="translate(-1125 -2520.811)" clip-path="url(#clip-path)">
    <g id="Grupo_1073817" data-name="Grupo 1073817" transform="translate(1129 2528.938)">
      <g id="Grupo_1073816" data-name="Grupo 1073816" clip-path="url(#clip-path-2)">
        <path id="Trazado_822957" data-name="Trazado 822957" d="M41.108,39.24a21.587,21.587,0,0,1,3.5-4.334,15.138,15.138,0,0,1,2.669-2.055.9.9,0,0,0,.476-1.2,21.516,21.516,0,0,1-.744-6.777,19.023,19.023,0,0,1,1.076-5.166,20.338,20.338,0,0,1,3.5-6.229,19.838,19.838,0,0,1,5.539-4.814,18.42,18.42,0,0,1,10.1-2.81A22.789,22.789,0,0,1,74.695,7.2a.89.89,0,0,0,1.179-.34A15.886,15.886,0,0,1,79.69,3.432,19.031,19.031,0,0,1,87.62.2a16.837,16.837,0,0,1,4.3-.123,23.809,23.809,0,0,1,6.05,1.179,18.294,18.294,0,0,1,8.367,5.726c.379.46.676.31,1.084.169a19.394,19.394,0,0,1,7.789-1.308,25.385,25.385,0,0,1,5.883,1.067,18.834,18.834,0,0,1,8.4,5.581,22.818,22.818,0,0,1,3.166,4.557,21.664,21.664,0,0,1,2.207,7.48,19.977,19.977,0,0,1-.618,7.368.616.616,0,0,0,.281.806,20.447,20.447,0,0,1,5.893,5.907c.272.413.506.541.906.1a9.882,9.882,0,0,1,6.079-3.275,15.513,15.513,0,0,1,5.244.175,11.1,11.1,0,0,1,6.583,4.421,6.007,6.007,0,0,1,1.237,2.555c.236,1.39,1.164,1.514,2.176,1.548a12.876,12.876,0,0,1,8.713,3.72,14.586,14.586,0,0,1,4.513,8.19,8.647,8.647,0,0,1-.087,4.727.834.834,0,0,0,.343,1.02,14.162,14.162,0,0,1,5.678,9.474,14.479,14.479,0,0,1-8.869,15.485,17.108,17.108,0,0,1-7.24,1.191,16.488,16.488,0,0,1-3.1-.707c-.863-.224-1.136-.061-1.136.792q-.005,11.368-.012,22.737c0,.465.06.708.606.739.683.039,1.358.205,2.039.3a2.893,2.893,0,0,0,2.773-1.04,15.792,15.792,0,0,1,8.156-4.7,10.819,10.819,0,0,1,4.253-.357,3.215,3.215,0,0,1,2.718,3.211c.019.212,0,.428,0,.642q0,34.2-.006,68.395c0,1.426-.291,2.746-1.7,3.524a3.156,3.156,0,0,1-1.335.38c-.335.024-.672.016-1.008.016q-86.867,0-173.736.007a3.973,3.973,0,0,1-3.252-1.033,3.218,3.218,0,0,1-.889-2.278q.025-13.569.01-27.137,0-21,0-41.991a4.507,4.507,0,0,1,.348-2.115,2.859,2.859,0,0,1,2.343-1.563,15.8,15.8,0,0,1,10.682,3.356,12.847,12.847,0,0,1,2.651,2.561c.264.367.486.334.821.275a22.171,22.171,0,0,1,3.016-.467c.7-.024.685-.32.684-.82q-.017-6.967-.007-13.936c0-2.811,0-5.623,0-8.435,0-1.125-.241-1.32-1.341-1.06a18.816,18.816,0,0,1-4.236.745A14.579,14.579,0,0,1,1.185,78.88,14.191,14.191,0,0,1,.729,68.73a11.787,11.787,0,0,1,3.259-5.218,12.428,12.428,0,0,1,1.958-1.873c.332-.19.252-.627.2-.927A13.514,13.514,0,0,1,8.262,50.691a14.56,14.56,0,0,1,9.548-6.5,7.157,7.157,0,0,1,2.508-.228c.514.07.729-.152.861-.644a10.594,10.594,0,0,1,2.659-4.64A10.894,10.894,0,0,1,29.9,35.393a11.847,11.847,0,0,1,10.824,3.347,4.756,4.756,0,0,1,.379.5m11.782,27.11a22.4,22.4,0,0,0,.168,2.913,14.725,14.725,0,0,0,25.912,7.5c1.286-1.565,2.61-1.644,4.27-.5.227.156.448.319.662.492a11.126,11.126,0,0,0,6.975,2.367,11.4,11.4,0,0,0,7.763-2.75c1.827-1.572,3.5-.778,4.565.467A14.411,14.411,0,0,0,116.431,81.9a13.529,13.529,0,0,0,7.164-2.91,14.341,14.341,0,0,0,5.543-12.726,3.974,3.974,0,0,1,2.062-4.006,14.408,14.408,0,0,0,6.483-15.106,14.21,14.21,0,0,0-7.887-10.5c-1.653-.861-2.766-2.176-1.791-4.492a14.881,14.881,0,0,0,1.067-7.168A14.653,14.653,0,0,0,107.711,13.35a4.807,4.807,0,0,1-1.456.53,2.926,2.926,0,0,1-2.932-1.48,15.273,15.273,0,0,0-6.538-5.416,20.142,20.142,0,0,0-5.211-1.273,11.219,11.219,0,0,0-4.107.58A14.2,14.2,0,0,0,78.936,12.2c-1.268,1.839-2.46,2.128-4.479,1.184a15.264,15.264,0,0,0-7.335-1.693,14.536,14.536,0,0,0-10.974,5.442,13.89,13.89,0,0,0-3.227,9.41,17.015,17.015,0,0,0,1.335,6.133,2.6,2.6,0,0,1-1.128,3.483,9.655,9.655,0,0,1-1.029.594,14.654,14.654,0,0,0-7.367,8.659,14.2,14.2,0,0,0-.166,8.007,13.937,13.937,0,0,0,6.494,8.926,3.2,3.2,0,0,1,1.834,3.367,4.791,4.791,0,0,0,0,.641m123.235,71.727V130.1c0-5.8-.01-11.61.012-17.414,0-.8-.191-.935-.945-.631a12.5,12.5,0,0,0-5.85,4.524c-1.154,1.679-2,1.918-4,1.417a13.4,13.4,0,0,0-6.285-.426,11.79,11.79,0,0,0-9.143,13.832,2.891,2.891,0,0,1-1.3,2.99,3.823,3.823,0,0,1-2.346.53,11.064,11.064,0,0,0-8.343,3.906,11.656,11.656,0,0,0-2.034,12.1,12.275,12.275,0,0,0,3.193,4.628,2.787,2.787,0,0,1-.263,4.382,9.841,9.841,0,0,0-2.736,3.183c-.587.921-.432,1.136.639,1.136q19.2,0,38.4.018c.787,0,1.022-.163,1.018-.995-.034-8.4-.021-16.8-.021-25.206m-170.18-.09q0,12.7-.007,25.391c0,.533-.022.9.734.9q19.478-.034,38.957-.005c.8,0,.789-.329.52-.889a8.782,8.782,0,0,0-2.093-2.753,16.623,16.623,0,0,1-1.37-1.348,2.457,2.457,0,0,1-.621-2.17,4.917,4.917,0,0,1,1.434-2.077,11.758,11.758,0,0,0-6.452-19.959c-.85-.123-1.717-.031-2.543-.237-1.869-.468-2.643-1.906-2.282-4.247a11.251,11.251,0,0,0-.43-5.063,11.613,11.613,0,0,0-14.757-7.606c-2.086.67-3.129.366-4.341-1.4a11.954,11.954,0,0,0-5.787-4.447c-.958-.365-.962-.367-.962.7q0,12.6,0,25.208M50.073,82.115a6.278,6.278,0,0,0,1.445-.163c1.26-.348,1.307-.415.442-1.379-3.3-3.673-4.632-8.1-4.91-12.908a1.918,1.918,0,0,0-.862-1.674,6.416,6.416,0,0,1-.645-.511,21,21,0,0,1-7.325-16.613,19.647,19.647,0,0,0-.155-3.012c-.669-4.422-4.842-5.523-7.918-4.436A5.4,5.4,0,0,0,26.5,47a3.072,3.072,0,0,1-4.017,3.108,8.741,8.741,0,0,0-10.115,5.416,9.888,9.888,0,0,0-.029,6.109c.473,1.85.055,2.91-1.591,3.828A8.844,8.844,0,0,0,6.285,75.51a8.6,8.6,0,0,0,9.432,6.476,12.607,12.607,0,0,0,4.125-1.4c1.816-.825,3.486-.307,4.233,1.524.092.226.172.457.273.679A8.45,8.45,0,0,0,32.8,87.911a8.54,8.54,0,0,0,7.768-5.5c1.015-2.3,2.516-2.792,4.709-1.6a10.684,10.684,0,0,0,4.794,1.307m99.5-41.087a4.116,4.116,0,0,0-2.158.392,5.7,5.7,0,0,0-3.557,5.5,33.151,33.151,0,0,1-.483,7.105,20.6,20.6,0,0,1-7.6,12.065,1.66,1.66,0,0,0-.742,1.373,20.822,20.822,0,0,1-4.58,12.861c-.308.391-1.056.8-.808,1.188.3.481,1.109.492,1.731.591a1.564,1.564,0,0,0,.275,0,13.119,13.119,0,0,0,5.583-1.513,2.85,2.85,0,0,1,4.215,1.538c.079.2.153.4.236.6,2.481,5.843,10.214,6.786,14.243,2.692a11.021,11.021,0,0,0,2.168-3.357,2.957,2.957,0,0,1,2.417-1.868,3.375,3.375,0,0,1,2.231.663,8.874,8.874,0,0,0,6.6.958,8.755,8.755,0,0,0,6.494-10.747,8.4,8.4,0,0,0-4.11-5.375c-2.133-1.284-2.472-2.143-1.805-4.525a9.275,9.275,0,0,0-.222-5.67,8.858,8.858,0,0,0-10.14-5.447c-2.467.509-3.864-.671-3.971-3.2a5.884,5.884,0,0,0-6.01-5.821M96.908,108.76h0q0-11.963.012-23.928c0-.746-.123-.924-.905-.679a15.09,15.09,0,0,1-9.971-.042c-.816-.3-.885-.019-.883.688q.022,19.023,0,38.046a104.045,104.045,0,0,1-.313,12.319,60.24,60.24,0,0,1-1.1,6.708c-.976,4.1-2.5,8.033-3.793,12.038a10.905,10.905,0,0,0-.806,2.978,15.9,15.9,0,0,1-1.833,6.461c-.123.258-.56.425-.344.77.185.3.558.134.843.134q13.2.012,26.4.006c.092,0,.184-.007.275,0,.784.076.685-.247.422-.786-.174-.355-.665-.466-.693-.784-.125-1.434-.912-2.681-1.073-4.1a26.2,26.2,0,0,0-1.351-5.752c-.979-2.789-1.861-5.614-2.75-8.433a41.916,41.916,0,0,1-2.083-11.72c-.161-7.972-.048-15.951-.048-23.926M90.944,176h83.44c.153,0,.305,0,.458,0,1.486-.026,1.265.2,1.282-1.238.012-1.1,0-2.2,0-3.3,0-1.329,0-1.329-1.284-1.329H7.321a2.721,2.721,0,0,1-.458,0c-.8-.14-.968.234-.934.967.059,1.251.008,2.506.018,3.759.011,1.311-.167,1.143,1.19,1.143q41.9.005,83.806,0m53.726-52.458a4.283,4.283,0,0,0-1.547,1.615c-1.268,1.872-2.253,2.235-4.434,1.578a11.259,11.259,0,0,0-3.5-.591c-4.421.111-7.963,1.847-10.279,5.764a12.7,12.7,0,0,0-1.527,8.134c.253,2.184-.784,3.684-2.971,3.673a14.644,14.644,0,0,0-2.268.2,10.322,10.322,0,0,0-5.554,2.572,12.1,12.1,0,0,0-.6,17.191,1.785,1.785,0,0,0,1.29.588q7.792-.012,15.586,0a.752.752,0,0,0,.88-.679,13.337,13.337,0,0,1,2.836-5.578c.428-.5.242-.861-.062-1.295a16.447,16.447,0,0,1-2.938-13.349c1.523-7.027,5.761-11.644,12.715-13.614,1.084-.307,1.8-.6,1.592-1.869a1.2,1.2,0,0,1,.074-.357c.226-1.275.45-2.55.7-3.987m-107.261.081a22.392,22.392,0,0,1,.753,4.689c.047.865.41,1.1,1.155,1.279a17.514,17.514,0,0,1,13.54,17.354,16.2,16.2,0,0,1-3.205,9.66,1.119,1.119,0,0,0,.023,1.609,12.736,12.736,0,0,1,2.615,5.188.945.945,0,0,0,1.114.875q7.7-.034,15.4,0a1.5,1.5,0,0,0,1.206-.5,12.226,12.226,0,0,0,3.311-8.439,11.526,11.526,0,0,0-9.906-11.452,15.778,15.778,0,0,1-2.45-.224c-2.153-.646-2.668-1.883-2.322-4.295a11.417,11.417,0,0,0-.45-5.058,11.626,11.626,0,0,0-14.6-7.622c-2.329.719-3.231.4-4.7-1.577a3.823,3.823,0,0,0-1.482-1.479m18.377-.951V86.734a.507.507,0,0,0-.461.056,14.322,14.322,0,0,1-10.087.452c-.843-.275-1.142-.047-1.144.852-.01,2.535,0,5.072,0,7.607q0,12.052-.01,24.1c0,.668.073.864.857.712a14.841,14.841,0,0,1,5.779.191,21.606,21.606,0,0,1,5.071,1.96m70.476-.026c.968-.44,1.831-.859,2.715-1.228a12.736,12.736,0,0,1,8.076-.817c.6.144.954.012.951-.81-.034-10.452-.022-20.9-.022-31.356,0-.153,0-.306,0-.459,0-.786-.49-.913-1.118-.788-.291.057-.585.128-.871.2a13.027,13.027,0,0,1-5.912.409,17.511,17.511,0,0,1-3.816-1.175ZM102.773,84.35v.844q0,22.415,0,44.831a51.854,51.854,0,0,0,.361,6.255,46.623,46.623,0,0,0,2.157,9c.238.723.465.533.8.138.61-.716,1.163-1.489,1.835-2.14a2.338,2.338,0,0,0,.731-1.858q-.029-26.679-.015-53.357c0-.183-.013-.368,0-.55.032-.362-.119-.538-.475-.648a38.2,38.2,0,0,1-5.4-2.519M79.3,84.136a19.459,19.459,0,0,1-5.155,2.622.85.85,0,0,0-.725,1q.019,26.991.01,53.982a1.212,1.212,0,0,0,.173.875c.946,1.1,1.894,2.191,2.91,3.367.622-2.532,1.5-4.862,1.94-7.331a45.038,45.038,0,0,0,.818-7.692c.057-14.3.028-28.594.028-42.892V84.136M67.525,138.875v-.961q0-24.419,0-48.839a3.219,3.219,0,0,1,0-.367c.056-.476-.081-.679-.628-.731-1.362-.129-2.718-.334-4.067-.562-1.1-.186-1.1-.221-1.1.886q0,19.151-.011,38.3a4.38,4.38,0,0,0,.606,2.353,17.6,17.6,0,0,1,2.323,8.438c.029.574.246.877.767.931a11.022,11.022,0,0,1,2.108.55m47.021-25.5V137.2c0,1.592,0,1.591,1.574,1.189a3.576,3.576,0,0,1,.714-.15c.492-.02.54-.3.588-.718.184-1.6.051-3.247.68-4.775.156-.377-.329-.762-.007-1.032.957-.8,1.11-2.051,1.735-3.037a3.214,3.214,0,0,0,.521-1.7q-.025-19.478,0-38.956c0-.68-.183-.843-.853-.682a17.592,17.592,0,0,1-3.96.64c-.795.006-1.015.186-1.011,1.007.034,8.127.021,16.255.021,24.381m29.3-8.8c0,3.789.016,7.578-.014,11.366-.006.753.206.825.814.507a15.941,15.941,0,0,1,5.717-1.825,6.8,6.8,0,0,0,2.58-.855,11.92,11.92,0,0,1,1.9-.9,1,1,0,0,0,.755-1.147q-.029-9.166,0-18.333c0-.662-.08-.85-.792-.564a12.838,12.838,0,0,1-10.052-.026c-.887-.37-.92-.059-.914.684.026,3.7.012,7.394.01,11.091M38.156,116.784a4.554,4.554,0,0,0,.063-.464q0-11.542.014-23.082c0-.743-.283-.611-.756-.423a13.075,13.075,0,0,1-9.286.3c-1.712-.581-1.706-.6-1.706,1.23q0,8.656,0,17.312c0,.387-.1.845.378,1.033,1.8.707,3.406,1.948,5.442,2.026a10.55,10.55,0,0,1,2.31.523,23.587,23.587,0,0,1,3.54,1.542" transform="translate(0 0)"/>
        <path id="Trazado_822958" data-name="Trazado 822958" d="M68.891,68.407a4.791,4.791,0,0,1,0-.641A3.2,3.2,0,0,0,67.061,64.4a13.938,13.938,0,0,1-6.494-8.925,14.2,14.2,0,0,1,.166-8.007,14.653,14.653,0,0,1,7.367-8.66,9.532,9.532,0,0,0,1.029-.594,2.594,2.594,0,0,0,1.128-3.483A17.037,17.037,0,0,1,68.922,28.6a13.9,13.9,0,0,1,3.227-9.41,14.541,14.541,0,0,1,10.974-5.442,15.281,15.281,0,0,1,7.335,1.693c2.019.943,3.211.654,4.479-1.184a14.192,14.192,0,0,1,8.532-5.905,11.2,11.2,0,0,1,4.107-.58,20.142,20.142,0,0,1,5.211,1.273,15.265,15.265,0,0,1,6.538,5.416,2.927,2.927,0,0,0,2.932,1.48,4.828,4.828,0,0,0,1.456-.53A14.653,14.653,0,0,1,145.074,27.05a14.877,14.877,0,0,1-1.067,7.167c-.974,2.316.138,3.631,1.791,4.492a14.21,14.21,0,0,1,7.887,10.5A14.408,14.408,0,0,1,147.2,64.311a3.975,3.975,0,0,0-2.062,4.006A14.341,14.341,0,0,1,139.6,81.043a13.53,13.53,0,0,1-7.164,2.911,14.413,14.413,0,0,1-13.227-5.064c-1.065-1.246-2.737-2.04-4.564-.468a11.4,11.4,0,0,1-7.763,2.75A11.126,11.126,0,0,1,99.9,78.806c-.214-.172-.435-.336-.662-.492-1.66-1.143-2.984-1.065-4.27.5a14.339,14.339,0,0,1-10.491,5.279A14.426,14.426,0,0,1,69.059,71.319a22.391,22.391,0,0,1-.168-2.913" transform="translate(-16.001 -2.057)" fill="#549b2c"/>
        <path id="Trazado_822959" data-name="Trazado 822959" d="M225.157,178.707c0,8.4-.014,16.8.021,25.205,0,.833-.231,1-1.019,1q-19.2-.037-38.4-.018c-1.071,0-1.226-.216-.639-1.137a9.848,9.848,0,0,1,2.736-3.183,2.786,2.786,0,0,0,.263-4.381,12.281,12.281,0,0,1-3.193-4.628,11.654,11.654,0,0,1,2.034-12.1,11.064,11.064,0,0,1,8.342-3.907,3.821,3.821,0,0,0,2.347-.53,2.891,2.891,0,0,0,1.3-2.99,11.79,11.79,0,0,1,9.143-13.832,13.4,13.4,0,0,1,6.284.426c2,.5,2.848.263,4-1.417a12.5,12.5,0,0,1,5.85-4.524c.754-.3.948-.172.945.632-.022,5.8-.012,11.609-.012,17.414v7.974" transform="translate(-49.032 -40.629)" fill="#549b2c"/>
        <path id="Trazado_822960" data-name="Trazado 822960" d="M8.1,178.6q0-12.6,0-25.208c0-1.069,0-1.066.962-.7a11.95,11.95,0,0,1,5.787,4.447c1.212,1.763,2.255,2.067,4.341,1.4A11.612,11.612,0,0,1,33.95,166.14a11.25,11.25,0,0,1,.429,5.063c-.361,2.341.412,3.779,2.282,4.246.826.207,1.693.114,2.542.238a11.758,11.758,0,0,1,6.452,19.959,4.915,4.915,0,0,0-1.434,2.076,2.46,2.46,0,0,0,.621,2.171,16.74,16.74,0,0,0,1.37,1.348,8.784,8.784,0,0,1,2.094,2.753c.269.561.282.89-.52.889q-19.479-.022-38.958.005c-.756,0-.734-.365-.733-.9q.013-12.7.006-25.391" transform="translate(-2.156 -40.611)" fill="#549b2c"/>
        <path id="Trazado_822961" data-name="Trazado 822961" d="M52.244,97.012A10.693,10.693,0,0,1,47.451,95.7c-2.193-1.191-3.693-.7-4.709,1.6a8.538,8.538,0,0,1-7.768,5.5,8.45,8.45,0,0,1-8.455-5.121c-.1-.222-.18-.453-.273-.679-.747-1.83-2.417-2.348-4.233-1.524a12.624,12.624,0,0,1-4.125,1.4,8.6,8.6,0,0,1-9.432-6.476,8.842,8.842,0,0,1,4.458-10.048c1.645-.919,2.063-1.978,1.59-3.828a9.888,9.888,0,0,1,.029-6.109A8.742,8.742,0,0,1,24.65,65,3.071,3.071,0,0,0,28.666,61.9a5.4,5.4,0,0,1,3.65-5.582c3.077-1.087,7.249.014,7.918,4.436a19.545,19.545,0,0,1,.155,3.011,21,21,0,0,0,7.325,16.614,6.523,6.523,0,0,0,.645.511,1.918,1.918,0,0,1,.863,1.673c.277,4.809,1.614,9.236,4.91,12.909.864.963.818,1.03-.442,1.378a6.24,6.24,0,0,1-1.445.164" transform="translate(-2.171 -14.896)" fill="#4c8b27"/>
        <path id="Trazado_822962" data-name="Trazado 822962" d="M196.624,55.917a5.885,5.885,0,0,1,6.01,5.821c.106,2.53,1.5,3.711,3.97,3.2a8.858,8.858,0,0,1,10.14,5.447,9.27,9.27,0,0,1,.223,5.67c-.667,2.382-.328,3.241,1.8,4.525a8.4,8.4,0,0,1,4.111,5.375A8.755,8.755,0,0,1,216.388,96.7a8.872,8.872,0,0,1-6.595-.958,3.376,3.376,0,0,0-2.231-.663,2.959,2.959,0,0,0-2.418,1.868,10.993,10.993,0,0,1-2.168,3.357c-4.028,4.094-11.761,3.152-14.242-2.692-.084-.2-.156-.4-.236-.6a2.849,2.849,0,0,0-4.215-1.538,13.111,13.111,0,0,1-5.584,1.512,1.489,1.489,0,0,1-.274,0c-.623-.1-1.429-.11-1.731-.591-.247-.393.5-.8.808-1.188a20.822,20.822,0,0,0,4.58-12.861,1.662,1.662,0,0,1,.742-1.373,20.6,20.6,0,0,0,7.6-12.065,33.151,33.151,0,0,0,.483-7.105,5.7,5.7,0,0,1,3.557-5.5,4.114,4.114,0,0,1,2.158-.392" transform="translate(-47.05 -14.889)" fill="#4c8b27"/>
        <path id="Trazado_822963" data-name="Trazado 822963" d="M124.827,139.254c0,7.975-.114,15.954.048,23.926a41.88,41.88,0,0,0,2.083,11.72c.889,2.82,1.77,5.645,2.749,8.434a26.187,26.187,0,0,1,1.351,5.752c.161,1.421.948,2.668,1.073,4.1.027.318.518.428.692.784.263.538.362.862-.422.785-.09-.009-.183,0-.274,0q-13.2,0-26.4-.006c-.285,0-.658.161-.842-.134-.216-.345.222-.513.343-.77a15.9,15.9,0,0,0,1.833-6.461,10.874,10.874,0,0,1,.807-2.978c1.29-4,2.816-7.936,3.792-12.038a60.442,60.442,0,0,0,1.1-6.708,104.2,104.2,0,0,0,.312-12.319q.056-19.024,0-38.046c0-.707.068-.989.884-.688a15.092,15.092,0,0,0,9.97.042c.783-.246.908-.067.905.679q-.03,11.964-.012,23.928Z" transform="translate(-27.92 -30.494)" fill="#c18d58"/>
        <path id="Trazado_822964" data-name="Trazado 822964" d="M93.1,237.752q-41.9,0-83.806,0c-1.357,0-1.18.168-1.19-1.144-.01-1.253.04-2.508-.018-3.758-.034-.734.134-1.108.933-.968a2.645,2.645,0,0,0,.458,0H176.992c1.285,0,1.285,0,1.285,1.329,0,1.1.01,2.2,0,3.3-.016,1.436.205,1.213-1.281,1.238-.153,0-.306,0-.459,0H93.1" transform="translate(-2.151 -61.755)" fill="#966846"/>
        <path id="Trazado_822965" data-name="Trazado 822965" d="M184.111,168.391c-.253,1.436-.478,2.712-.7,3.987a1.2,1.2,0,0,0-.074.357c.21,1.266-.507,1.562-1.592,1.869-6.953,1.971-11.192,6.587-12.716,13.614a16.451,16.451,0,0,0,2.938,13.349c.3.434.489.794.062,1.294a13.336,13.336,0,0,0-2.836,5.579.753.753,0,0,1-.88.679q-7.793-.013-15.586,0a1.784,1.784,0,0,1-1.29-.587,12.1,12.1,0,0,1,.6-17.191,10.322,10.322,0,0,1,5.554-2.572,14.553,14.553,0,0,1,2.268-.2c2.188.01,3.225-1.489,2.971-3.673a12.7,12.7,0,0,1,1.527-8.134c2.316-3.918,5.859-5.654,10.279-5.765a11.281,11.281,0,0,1,3.5.591c2.182.657,3.166.293,4.435-1.578a4.27,4.27,0,0,1,1.547-1.615" transform="translate(-39.442 -44.852)" fill="#4c8b27"/>
        <path id="Trazado_822966" data-name="Trazado 822966" d="M50.99,168.5a3.813,3.813,0,0,1,1.482,1.479c1.467,1.98,2.368,2.3,4.7,1.577a11.626,11.626,0,0,1,14.6,7.622,11.416,11.416,0,0,1,.45,5.058c-.346,2.411.169,3.648,2.322,4.295a15.78,15.78,0,0,0,2.45.225A11.525,11.525,0,0,1,86.9,200.208a12.223,12.223,0,0,1-3.311,8.439,1.5,1.5,0,0,1-1.206.5q-7.7-.022-15.4,0a.945.945,0,0,1-1.114-.875,12.735,12.735,0,0,0-2.615-5.188,1.12,1.12,0,0,1-.023-1.609,16.189,16.189,0,0,0,3.205-9.659A17.513,17.513,0,0,0,52.9,174.469c-.745-.176-1.109-.414-1.155-1.279a22.346,22.346,0,0,0-.754-4.689" transform="translate(-13.582 -44.881)" fill="#4c8b27"/>
        <path id="Trazado_822967" data-name="Trazado 822967" d="M89.933,170.576a11.086,11.086,0,0,0-2.107-.551c-.522-.054-.74-.357-.768-.93a17.6,17.6,0,0,0-2.323-8.438,4.387,4.387,0,0,1-.606-2.353q.024-19.15.011-38.3c0-1.106-.006-1.073,1.1-.886,1.35.228,2.706.433,4.068.562.546.052.684.255.628.731a3.046,3.046,0,0,0,0,.366q0,24.419,0,48.839Z" transform="translate(-22.408 -31.701)" fill="#966846"/>
        <path id="Trazado_822968" data-name="Trazado 822968" d="M156.127,145.061c0-8.127.014-16.255-.021-24.381,0-.822.216-1,1.011-1.007a17.634,17.634,0,0,0,3.96-.64c.67-.161.853,0,.852.682q-.022,19.477,0,38.955a3.214,3.214,0,0,1-.521,1.7c-.625.987-.778,2.235-1.735,3.037-.323.27.162.654.007,1.032-.629,1.528-.5,3.177-.68,4.775-.048.419-.1.7-.588.719a3.527,3.527,0,0,0-.714.15c-1.574.4-1.574.4-1.574-1.189V145.061" transform="translate(-41.58 -31.69)" fill="#966846"/>
        <path id="Trazado_822969" data-name="Trazado 822969" d="M196.07,138.2c0-3.7.015-7.394-.012-11.091-.006-.743.027-1.055.913-.684a12.84,12.84,0,0,0,10.053.026c.712-.285.795-.1.792.564q-.026,9.167,0,18.333a1,1,0,0,1-.756,1.147,11.943,11.943,0,0,0-1.9.9,6.8,6.8,0,0,1-2.58.855,15.932,15.932,0,0,0-5.717,1.825c-.607.318-.819.245-.814-.507.03-3.789.014-7.578.015-11.366" transform="translate(-52.221 -33.633)" fill="#966846"/>
        <path id="Trazado_822970" data-name="Trazado 822970" d="M47.769,150.428a23.587,23.587,0,0,0-3.54-1.542,10.55,10.55,0,0,0-2.31-.523c-2.037-.078-3.64-1.32-5.442-2.026-.479-.188-.378-.646-.378-1.033q0-8.656,0-17.312c0-1.826-.005-1.811,1.706-1.23a13.075,13.075,0,0,0,9.286-.3c.473-.188.758-.32.756.423q-.03,11.541-.014,23.082a4.555,4.555,0,0,1-.063.464" transform="translate(-9.613 -33.644)" fill="#966846"/>
      </g>
    </g>
  </g>
</svg>
