<svg xmlns="http://www.w3.org/2000/svg" xmlns:xlink="http://www.w3.org/1999/xlink" width="190" height="190" viewBox="0 0 190 190">
  <defs>
    <clipPath id="clip-path">
      <rect id="Rect치ngulo_378099" data-name="Rect치ngulo 378099" width="190" height="190" transform="translate(1125 2521.23)" fill="#fff" stroke="#707070" stroke-width="1"/>
    </clipPath>
    <clipPath id="clip-path-2">
      <rect id="Rect치ngulo_378116" data-name="Rect치ngulo 378116" width="184.667" height="184.657" fill="none"/>
    </clipPath>
  </defs>
  <g id="Enmascarar_grupo_393" data-name="Enmascarar grupo 393" transform="translate(-1125 -2521.23)" clip-path="url(#clip-path)">
    <g id="Grupo_1073819" data-name="Grupo 1073819" transform="translate(1128 2523.23)">
      <g id="Grupo_1073818" data-name="Grupo 1073818" clip-path="url(#clip-path-2)">
        <path id="Trazado_822971" data-name="Trazado 822971" d="M5.853,71.62q.446-1.7.89-3.393a2.494,2.494,0,0,0,2.411-1.77A82.964,82.964,0,0,1,13.61,55.405c.825-1.6,1.559-3.277,2.415-4.868a82.257,82.257,0,0,1,9.939-14.422A87.9,87.9,0,0,1,50.2,16.2,85.886,85.886,0,0,1,68.247,8.643,88.288,88.288,0,0,1,82.7,5.685c3.1-.354,6.206-.516,9.313-.67a72.746,72.746,0,0,1,8.159.3c2.565.161,5.107.474,7.633.853a79.439,79.439,0,0,1,13.482,3.3,87.313,87.313,0,0,1,28.961,16.166,90.809,90.809,0,0,1,20.775,25.082A87.621,87.621,0,0,1,181.589,84.58c.244,2.585.4,5.17.49,7.756a88.261,88.261,0,0,1-.5,10.332,72.093,72.093,0,0,1-1.631,10.221,89.109,89.109,0,0,1-14.742,32.677,88.274,88.274,0,0,1-46.351,32.946,96.964,96.964,0,0,1-13.08,2.865c-2.806.42-5.629.572-8.445.827-1.711.155-3.448.027-5.172.028a73.028,73.028,0,0,1-8.39-.547,90.4,90.4,0,0,1-10.62-1.809,87.1,87.1,0,0,1-18.013-6.391A89.718,89.718,0,0,1,45,167.725a84.218,84.218,0,0,1-7.678-5.618c-2.1-1.757-4.093-3.65-6.049-5.582-1.984-1.96-3.983-3.912-5.764-6.048a90.281,90.281,0,0,1-19.844-44.6,66.636,66.636,0,0,1-.776-9.824c0-3.066-.065-6.134.19-9.194.172-2.058.51-4.1.559-6.172a1.5,1.5,0,0,0-1.31-1.7l.625-3.63c.427-.3,1-.115,1.428-.475,1.136-.957.919-2.369-.527-3.268m55.189,70.022a2.442,2.442,0,0,0-2.185.348c-1.867,1.762-3.83,3.43-5.524,5.365a1.88,1.88,0,0,0,.427,3.091c.841.582,1.668,1.185,2.532,1.74,2.182,1.4,4.452,2.632,6.759,3.809,1.824.93,3.706,1.756,5.589,2.525a56.311,56.311,0,0,0,7.25,2.223,53.775,53.775,0,0,0,7.915,1.569c1.039.107,2.088.211,3.113.3.928.081,1.971.325,2.911.367a63.389,63.389,0,0,0,9.823-.162,81.322,81.322,0,0,0,8.558-1.423,68.3,68.3,0,0,0,18.519-6.942,65.656,65.656,0,0,0,12.724-9.021,76.074,76.074,0,0,0,8.654-9.191,71.084,71.084,0,0,0,4.984-7.257,68.836,68.836,0,0,0,6.7-15.08,67.176,67.176,0,0,0,1.954-8.123,21.441,21.441,0,0,0,.61-4.428,1.726,1.726,0,0,0-1.619-1.859q.154-1.891.31-3.784c1.389-.412,1.742-.865,1.687-2.107-.047-1.059-.9-1.282-1.642-1.623q-.12-1.762-.242-3.526c1.528-.6,1.707-1.845,1.491-3.227-.326-2.088-.662-4.177-1.073-6.25a62.3,62.3,0,0,0-2.808-9.7,66.689,66.689,0,0,0-8.253-15.5,1.8,1.8,0,0,0-3.02-.247c-1.245,1.209-2.46,2.446-3.724,3.64-1.614,1.526-3.179,3.108-4.677,4.761-1.691,1.865-3.547,3.581-5.33,5.363Q125.5,75.239,117.536,83.19c-.85.847-1.553,1.7-.833,2.976a7.959,7.959,0,0,1-2.373,2.671,1.8,1.8,0,0,1-.838-.687,2.3,2.3,0,0,0-3.009-.813c-1.025-.718-1.627-1.855-2.6-2.621a3.243,3.243,0,0,0,.39-1.019c.112-1.537-1.217-2.314-2.94-1.7-1.007-.74-1.574-1.919-2.622-2.618a2,2,0,0,0-.387-2.861c-1.344-1.264-2.549-2.655-3.777-4.027,2.219-2.462,4.6-4.769,6.935-7.113,1.855-1.86,3.727-3.7,5.591-5.555a1.022,1.022,0,0,1,.367.01c1.392.6,2.334-.083,3.268-1.031,3.453-3.5,6.941-6.973,10.418-10.451,2.7-2.7,5.4-5.383,8.088-8.086,1.409-1.418,1.348-2.465-.23-3.615a63.272,63.272,0,0,0-7.746-4.7,67.172,67.172,0,0,0-20.661-6.817c-1.952-.323-3.935-.428-5.9-.629a51.633,51.633,0,0,0-5.472-.2c-1.772.008-3.588.086-5.38.209a60.19,60.19,0,0,0-10.492,1.614,69.716,69.716,0,0,0-23.4,10.563,75.814,75.814,0,0,0-9.505,7.858c-1.388,1.357-2.58,2.875-3.863,4.317a28.2,28.2,0,0,0-2.072,2.405c-1.03,1.462-2.058,2.926-3.1,4.38a63.64,63.64,0,0,0-4.82,8.726c-.74,1.472-1.114,2.757.354,3.96a8.1,8.1,0,0,0-1.15,3.211,5.123,5.123,0,0,1-.636.055,1.9,1.9,0,0,0-1.854,1.273c-.311.7.15,1.295.617,1.8a4.437,4.437,0,0,0,.74.532A10.225,10.225,0,0,0,27.554,78.8c-1.482.073-1.873.389-2.165,1.83-.187.921-.3,1.857-.493,2.775a52.344,52.344,0,0,0-.827,8.162,55.668,55.668,0,0,0,.381,8.858,75.972,75.972,0,0,0,1.616,9.482,70.1,70.1,0,0,0,10.423,23.306c.962,1.419,2.069,1.553,3.351.419.139-.122.276-.246.406-.376,6.194-6.2,12.369-12.419,18.595-18.587,1.105-1.1,1.694-2.165.9-3.654a32,32,0,0,1,3.9-3.443,6.355,6.355,0,0,0,9.608-.925c.924-1.355,2-2.582,2.939-3.934,2.553-3.694,5.249-7.288,7.923-10.9.336-.454.54-1.082,1.236-1.358-.232,4.306-.061,8.516-.141,12.723a3.144,3.144,0,0,1-.377,1.221c-2.111,4.732-4.2,9.474-6.341,14.193-.733,1.617-1.2,3.393-2.318,4.795-2.808,3.518-5.7,6.968-8.557,10.451-1.313,1.6-2.787,3.108-3.308,5.215a12.981,12.981,0,0,0-2.574,2.536l-.687.048M177.865,94.172a80.486,80.486,0,0,0-.97-13.325A88.8,88.8,0,0,0,173.08,65.5a75.3,75.3,0,0,0-8.194-17.183c-2.556-3.877-5.535-7.443-8.409-11.084a34.129,34.129,0,0,0-3.1-3.284,1.619,1.619,0,0,0-2.068-.467c-1.364.741-1.565,1.982-.378,3.169a84.343,84.343,0,0,1,7.651,9.185,75.51,75.51,0,0,1,6.868,11.173c1.209,2.377,2.251,4.828,3.231,7.307a80.652,80.652,0,0,1,5.263,23.085,76.085,76.085,0,0,1-.093,12.7,81.945,81.945,0,0,1-1.409,10.112A78.3,78.3,0,0,1,161.6,136.879a63.747,63.747,0,0,1-5.564,7.552c-1.276,1.452-2.49,3-3.812,4.414a80.932,80.932,0,0,1-9.2,8.365,89.363,89.363,0,0,1-9.944,6.69,73.452,73.452,0,0,1-16.846,7.141,82.957,82.957,0,0,1-22.253,3.271,92.329,92.329,0,0,1-11.209-.733A64.184,64.184,0,0,1,69.643,170.8c-2.061-.681-4.061-1.533-6.07-2.359-1.411-.579-2.86-1.138-4.251-1.767A73.382,73.382,0,0,1,46.3,159.032c-1.688-1.231-3.359-2.49-5.086-3.666a1.623,1.623,0,0,0-2.367.389,1.571,1.571,0,0,0,.248,2.3,33.214,33.214,0,0,0,4.426,3.577,80.709,80.709,0,0,0,22.217,11.806,84.077,84.077,0,0,0,23.136,4.509,86.608,86.608,0,0,0,15.059-.506,81.311,81.311,0,0,0,17.2-3.913,82.682,82.682,0,0,0,24.832-13.667A79.257,79.257,0,0,0,161.733,143.3c3.46-4.982,6.77-10.013,9.049-15.689a97.914,97.914,0,0,0,4.554-13.521,77.1,77.1,0,0,0,2.274-15.122c.066-1.7.132-3.42.255-4.8" transform="translate(-1.122 -1.29)" fill="#fc5c3d"/>
        <path id="Trazado_822972" data-name="Trazado 822972" d="M3.206,77.7A1.5,1.5,0,0,1,4.516,79.4c-.049,2.072-.387,4.114-.559,6.172-.255,3.059-.185,6.127-.19,9.194a66.543,66.543,0,0,0,.776,9.824,90.3,90.3,0,0,0,19.844,44.6c1.78,2.137,3.78,4.088,5.764,6.048,1.955,1.932,3.945,3.825,6.048,5.582a84.137,84.137,0,0,0,7.679,5.618A89.749,89.749,0,0,0,54.015,172.2a87.123,87.123,0,0,0,18.014,6.39,90.288,90.288,0,0,0,10.62,1.81,73.207,73.207,0,0,0,8.39.547c1.725,0,3.463.127,5.173-.028,2.815-.256,5.638-.407,8.444-.827a97.026,97.026,0,0,0,13.08-2.865,88.284,88.284,0,0,0,46.352-32.946A89.107,89.107,0,0,0,178.829,111.6a72.005,72.005,0,0,0,1.631-10.221,87.951,87.951,0,0,0,.5-10.332c-.094-2.586-.244-5.172-.49-7.756A87.6,87.6,0,0,0,169.9,49.426a90.815,90.815,0,0,0-20.776-25.083A87.331,87.331,0,0,0,120.164,8.177a79.51,79.51,0,0,0-13.482-3.3c-2.526-.379-5.068-.691-7.633-.853a72.728,72.728,0,0,0-8.159-.3c-3.106.155-6.211.316-9.312.67A88.29,88.29,0,0,0,67.125,7.353a85.923,85.923,0,0,0-18.047,7.558A87.93,87.93,0,0,0,24.842,34.825,82.242,82.242,0,0,0,14.9,49.247c-.856,1.591-1.59,3.271-2.414,4.868A83.127,83.127,0,0,0,8.031,65.167,2.492,2.492,0,0,1,5.62,66.936c-.106-.11-.207-.226-.319-.329-1.121-1.021-1.13-1.362-.685-2.782.543-1.733,1.265-3.4,1.8-5.138A50.4,50.4,0,0,1,8.508,53.9a85.223,85.223,0,0,1,5.444-10.086,82.227,82.227,0,0,1,4.915-7.225c1.205-1.605,2.546-3.115,3.836-4.658,2.245-2.685,4.767-5.089,7.215-7.569,1.187-1.2,2.576-2.181,3.826-3.3a76.8,76.8,0,0,1,9.411-6.787c2.186-1.435,4.5-2.672,6.816-3.886A86.175,86.175,0,0,1,63.652,4.613a95.516,95.516,0,0,1,12.3-3.087A60.983,60.983,0,0,1,82.771.535C85.279.373,87.773.016,90.3,0c1.616-.009,3.226.029,4.841.147,1.483.107,2.978.094,4.471.207,3.131.238,6.218.727,9.313,1.236a11.379,11.379,0,0,0,3.4.477c.636-.082,1.177.5,1.881.588,2.412.29,4.629,1.345,6.963,1.951,2.5.648,4.743,1.915,7.151,2.766a33.212,33.212,0,0,1,5.212,2.3c2.271,1.276,4.548,2.557,6.782,3.9,2.63,1.582,5.165,3.315,7.642,5.123a59.844,59.844,0,0,1,6.56,5.517c2.14,2.091,4.272,4.192,6.341,6.352a56.45,56.45,0,0,1,5.9,7.191c2.041,2.988,4.074,5.994,5.847,9.157a84.691,84.691,0,0,1,7.43,16.585,109.369,109.369,0,0,1,2.908,11.457,55.2,55.2,0,0,1,.992,6.1c.2,2.567.553,5.118.617,7.7.042,1.676.147,3.36.113,5.038-.05,2.491-.309,4.973-.5,7.458a86.331,86.331,0,0,1-1.339,8.9c-.405,2.233-1.042,4.429-1.651,6.619-.681,2.442-1.373,4.885-2.2,7.282a62.454,62.454,0,0,1-4.352,9.93c-1.336,2.423-2.626,4.873-4.126,7.2a98.788,98.788,0,0,1-6.42,9.147,121.986,121.986,0,0,1-9.885,10.354,85.14,85.14,0,0,1-12.608,9.576,81.125,81.125,0,0,1-12.068,6.507,95.312,95.312,0,0,1-16.214,5.4,65.557,65.557,0,0,1-8.459,1.552c-2.971.3-5.919.855-8.915.908-1.779.032-3.56.036-5.34,0-1.915-.042-3.842-.075-5.74-.236-1.718-.145-3.45-.424-5.168-.625A74.735,74.735,0,0,1,70,181.857c-3.037-.767-6.021-1.714-8.986-2.737a80.689,80.689,0,0,1-12-5.462,90.131,90.131,0,0,1-13.34-8.568A100.652,100.652,0,0,1,25.146,155.5,97.1,97.1,0,0,1,8.956,131.777a78.894,78.894,0,0,1-6.3-17.894c-.789-3.491-1.468-7.005-1.962-10.54-.233-1.667-.756-3.389-.261-5.119C-.336,95.174.165,92.071.106,89a41.673,41.673,0,0,1,.7-7.861c.1-.593.124-1.2.2-1.8a1.831,1.831,0,0,1,2.2-1.636" transform="translate(0 0)" fill="#010101"/>
        <path id="Trazado_822973" data-name="Trazado 822973" d="M5.578,94.935c1.445.9,1.662,2.311.527,3.268-.427.359-1,.175-1.428.475-.214-.167-.432-.332-.644-.5a1.75,1.75,0,0,1-.661-2.028,1.666,1.666,0,0,1,1.749-1.2c.152.005.3-.01.456-.015" transform="translate(-0.847 -24.605)" fill="#010101"/>
        <path id="Trazado_822974" data-name="Trazado 822974" d="M134.4,111.5a7.693,7.693,0,0,0,1.431,1.655q3.474,3.679,6.969,7.336c2.323,2.425,2.075,7.939-2.335,9.6a5.638,5.638,0,0,1-6.275-1.324c-2.5-2.4-4.9-4.917-7.337-7.386a5.473,5.473,0,0,0-1.248-1.059c-.666-1.318-1.887-2.139-2.875-3.164-.384-.4-.49.056-.482.377.051,2.02-.089,4.045.111,6.063-.607,1.668.645,2.46,1.616,3.354,1.577,1.452,3.2,2.852,4.784,4.3,2.37,2.169,4.66,4.432,7.1,6.515a9.453,9.453,0,0,1,2.614,4.371c1.129,3.174,2.38,6.31,3.409,9.516.982,3.063,2.053,6.093,3.065,9.144a6.239,6.239,0,0,1-2.144,6.858,6.471,6.471,0,0,1-7.362.557,7.4,7.4,0,0,1-3-3.94c-1.744-5.012-3.54-10.009-5.153-15.064a8.8,8.8,0,0,0-2.684-4.185c-2.574-2.239-5.047-4.595-7.567-6.9-.672-.613-.908-.565-1.244.246-1.274,3.071-2.679,6.081-4.057,9.105-.839,1.842-1.678,3.683-2.558,5.506a11.645,11.645,0,0,1-2.6,2.919q-5.629,5.722-11.335,11.367a6.523,6.523,0,0,1-6.341,1.8.856.856,0,0,1-.317-.15c-1.05-.8-2.382-1.232-3.142-2.4a6.183,6.183,0,0,1-1.065-3.977c.023-.274,0-.553-.007-.829.521-2.108,1.994-3.612,3.308-5.215,2.854-3.483,5.749-6.932,8.557-10.451,1.119-1.4,1.585-3.177,2.318-4.795,2.139-4.72,4.231-9.46,6.341-14.193a3.148,3.148,0,0,0,.377-1.221c.08-4.208-.091-8.417.141-12.723-.7.276-.9.9-1.236,1.358-2.674,3.609-5.37,7.2-7.923,10.9-.934,1.351-2.015,2.578-2.939,3.933a6.355,6.355,0,0,1-9.608.925,6.766,6.766,0,0,1-1.9-5.113,7.694,7.694,0,0,1,1.661-3.711c1.587-2.18,3.278-4.285,4.92-6.425,1.727-2.253,3.431-4.524,5.175-6.764,1.875-2.407,3.823-4.758,5.667-7.188,1.338-1.764,2.685-3.516,4.072-5.243a8.962,8.962,0,0,1,6.09-3.261,11.743,11.743,0,0,1,9.226,2.619c1.228,1.372,2.434,2.763,3.777,4.027a2,2,0,0,1,.387,2.861c-1.635.965-1.965.6-2.964-.327-.674-.627-1.273-1.336-1.907-2.005a9.962,9.962,0,0,0-3.7-2.963c-3.207-1.122-6.351-.939-8.776,2.23-5.775,7.544-11.626,15.03-17.43,22.553a21.021,21.021,0,0,0-2.181,2.968,2.572,2.572,0,0,0,1.474,3.643c1.371.46,2.374.026,3.486-1.5q6.167-8.46,12.337-16.917c.833-1.142,1.67-2.282,2.5-3.429a1.915,1.915,0,0,1,2.223-.67c.826.218,1.016.981,1.122,1.727a5.955,5.955,0,0,1,.016.83q.008,8.631.018,17.262a7.151,7.151,0,0,1-.642,3.006q-1.361,3.009-2.708,6.024c-1.187,2.657-2.319,5.339-3.565,7.967-1.071,2.257-1.8,4.689-3.466,6.65q-3.551,4.185-7.011,8.448a27.1,27.1,0,0,0-3.491,4.509,1.709,1.709,0,0,0-.019,1.641c1.072,2.186,3.15,2.534,4.924.766q6.175-6.156,12.32-12.343a4.772,4.772,0,0,0,.993-1.428q1.7-3.777,3.4-7.557,2.039-4.536,4.079-9.071c.553-1.225.954-1.446,2.2-1.348a2.119,2.119,0,0,1,1.247.719q5.724,5.156,11.441,10.319a3.888,3.888,0,0,1,1.165,1.732c.823,2.568,1.745,5.1,2.624,7.653,1.145,3.322,2.338,6.628,3.423,9.971a3.177,3.177,0,0,0,2.362,2.288c2.429.187,3.8-1.536,3.028-3.926-1.022-3.168-2.121-6.31-3.2-9.46-.932-2.723-1.84-5.455-2.843-8.153a7.451,7.451,0,0,0-1.8-3.389c-4.643-4.126-9.2-8.353-13.791-12.535a3.112,3.112,0,0,1-1.115-2.607c.06-1.1,0-2.215.024-3.322.065-3.381-.14-6.764.108-10.145a1.18,1.18,0,0,1,.533-.993c1.059-.742,1.793-.659,2.829.376q6.954,6.947,13.746,14.054a4.607,4.607,0,0,0,1.721,1.353,2.276,2.276,0,0,0,3.036-2.074c.108-1.257-.687-1.915-1.393-2.653-2.722-2.845-5.47-5.665-8.2-8.5-1.393-1.443-1.447-1.941-.4-3.411a2.3,2.3,0,0,1,3.009.813,1.794,1.794,0,0,0,.838.686" transform="translate(-21.194 -23.954)" fill="#010101"/>
        <path id="Trazado_822975" data-name="Trazado 822975" d="M131.871,111.3c-1.051,1.471-1,1.968.4,3.411,2.735,2.833,5.483,5.653,8.2,8.5.706.737,1.5,1.4,1.393,2.652a2.276,2.276,0,0,1-3.035,2.074,4.594,4.594,0,0,1-1.722-1.353q-6.793-7.105-13.746-14.053c-1.036-1.036-1.769-1.119-2.829-.377a1.183,1.183,0,0,0-.533.994c-.247,3.38-.043,6.764-.108,10.144-.021,1.108.036,2.218-.023,3.323a3.11,3.11,0,0,0,1.114,2.606c4.594,4.183,9.148,8.41,13.792,12.536a7.455,7.455,0,0,1,1.8,3.389c1,2.7,1.91,5.429,2.843,8.153,1.078,3.149,2.178,6.292,3.2,9.46.771,2.39-.6,4.113-3.027,3.926a3.173,3.173,0,0,1-2.361-2.287c-1.086-3.343-2.279-6.65-3.423-9.971-.88-2.549-1.8-5.085-2.625-7.653a3.888,3.888,0,0,0-1.165-1.732q-5.719-5.159-11.441-10.319a2.121,2.121,0,0,0-1.246-.719c-1.245-.1-1.646.123-2.2,1.348q-2.048,4.533-4.08,9.071-1.7,3.779-3.4,7.558a4.768,4.768,0,0,1-.993,1.428q-6.163,6.168-12.319,12.343c-1.774,1.769-3.852,1.421-4.925-.766a1.713,1.713,0,0,1,.019-1.641,27.167,27.167,0,0,1,3.491-4.509q3.456-4.264,7.01-8.447c1.665-1.962,2.4-4.393,3.467-6.65,1.247-2.628,2.379-5.31,3.566-7.967q1.347-3.015,2.708-6.024a7.127,7.127,0,0,0,.641-3.006q-.019-8.631-.016-17.262a5.951,5.951,0,0,0-.016-.83c-.106-.746-.3-1.509-1.122-1.727a1.914,1.914,0,0,0-2.223.67c-.827,1.147-1.664,2.288-2.5,3.43Q98.27,119.473,92.1,127.931c-1.113,1.526-2.116,1.96-3.486,1.5a2.572,2.572,0,0,1-1.474-3.644,21.212,21.212,0,0,1,2.179-2.968c5.805-7.522,11.657-15.007,17.43-22.552,2.426-3.168,5.569-3.352,8.776-2.23a9.969,9.969,0,0,1,3.7,2.963c.633.67,1.232,1.378,1.906,2.006,1,.931,1.33,1.292,2.965.327,1.048.7,1.614,1.878,2.622,2.618a7.134,7.134,0,0,1-.415.7,1.323,1.323,0,0,0,.3,2.026c.868.765,1.232.785,2.668-.005.976.765,1.579,1.9,2.6,2.621" transform="translate(-22.508 -25.247)" fill="#efbf1f"/>
        <path id="Trazado_822976" data-name="Trazado 822976" d="M189.8,104.074c-.123,1.379-.189,3.1-.255,4.8a77.1,77.1,0,0,1-2.274,15.122,97.914,97.914,0,0,1-4.554,13.521c-2.279,5.676-5.589,10.707-9.049,15.689a79.257,79.257,0,0,1-15.768,16.555,82.682,82.682,0,0,1-24.832,13.667,81.311,81.311,0,0,1-17.2,3.913,86.608,86.608,0,0,1-15.059.506,84.077,84.077,0,0,1-23.136-4.509A80.709,80.709,0,0,1,55.46,171.53a33.214,33.214,0,0,1-4.426-3.577,1.571,1.571,0,0,1-.248-2.3,1.623,1.623,0,0,1,2.367-.389c1.727,1.176,3.4,2.435,5.086,3.666a73.382,73.382,0,0,0,13.022,7.645c1.391.629,2.84,1.188,4.251,1.767,2.009.825,4.009,1.678,6.07,2.359A64.184,64.184,0,0,0,94.71,183.48a92.329,92.329,0,0,0,11.209.733,82.957,82.957,0,0,0,22.253-3.271,73.452,73.452,0,0,0,16.846-7.141,89.363,89.363,0,0,0,9.944-6.69,80.932,80.932,0,0,0,9.2-8.365c1.322-1.415,2.536-2.962,3.812-4.414a63.747,63.747,0,0,0,5.564-7.552,78.3,78.3,0,0,0,10.843-26.659,81.945,81.945,0,0,0,1.409-10.112,76.085,76.085,0,0,0,.093-12.7,80.652,80.652,0,0,0-5.263-23.085c-.981-2.48-2.022-4.931-3.231-7.307a75.51,75.51,0,0,0-6.868-11.173,84.344,84.344,0,0,0-7.651-9.185c-1.188-1.187-.986-2.428.378-3.169a1.619,1.619,0,0,1,2.068.467,34.129,34.129,0,0,1,3.1,3.284c2.874,3.641,5.853,7.207,8.409,11.084a75.3,75.3,0,0,1,8.194,17.183,88.8,88.8,0,0,1,3.814,15.342,80.486,80.486,0,0,1,.97,13.325" transform="translate(-13.061 -11.192)" fill="#fec9c1"/>
        <path id="Trazado_822977" data-name="Trazado 822977" d="M120.021,66.575c-.088-.345-.056-.7-.168-1.059a1.683,1.683,0,0,1,.452-1.751q5.236-5.181,10.456-10.379c2.47-2.465,4.907-4.962,7.39-7.413.549-.542.136-.674-.23-.91a65.758,65.758,0,0,0-9.027-4.833c-2.634-1.163-5.353-2.1-8.075-3.033-1.465-.5-3.066-.5-4.432-1.136-.972-.454-2.025-.054-2.993-.7-.446-.3-1.487-.11-2.255-.129-1.1-.027-2.188-.166-3.273-.258-2.026-.171-4.066-.3-6.081-.279A61.107,61.107,0,0,0,89.6,35.876a63.373,63.373,0,0,0-14.669,4.843,71.9,71.9,0,0,0-7.087,3.763,69.721,69.721,0,0,0-9.228,6.995,66.519,66.519,0,0,0-6.384,6.5A80.862,80.862,0,0,0,46.3,66.3a64.356,64.356,0,0,0-3.75,7.111,2.575,2.575,0,0,1-2.68,1.675c-1.468-1.2-1.094-2.488-.353-3.96a63.561,63.561,0,0,1,4.82-8.726c1.043-1.453,2.07-2.918,3.1-4.38a28.075,28.075,0,0,1,2.072-2.4c1.284-1.442,2.476-2.96,3.863-4.317a75.86,75.86,0,0,1,9.5-7.858,69.726,69.726,0,0,1,23.4-10.563A60.193,60.193,0,0,1,96.77,31.258c1.793-.123,3.609-.2,5.381-.209a51.62,51.62,0,0,1,5.472.2c1.967.2,3.95.307,5.9.629A67.2,67.2,0,0,1,134.185,38.7a63.328,63.328,0,0,1,7.746,4.7c1.577,1.15,1.639,2.2.23,3.615-2.688,2.7-5.392,5.389-8.088,8.086-3.477,3.48-6.965,6.948-10.418,10.451-.935.948-1.876,1.631-3.268,1.031a1.04,1.04,0,0,0-.367-.01" transform="translate(-10.074 -8.047)" fill="#010101"/>
        <path id="Trazado_822978" data-name="Trazado 822978" d="M78.441,175.45a2.2,2.2,0,0,1-.742,2.665c-1.082,1.047-2.127,2.137-3.245,3.145-.537.484.038.474.2.582a67.471,67.471,0,0,0,8.68,4.678,48.874,48.874,0,0,0,7.326,2.957,44.38,44.38,0,0,0,6.753,1.662c1.608.189,3.19.582,4.79.848.9.149,1.816.118,2.724.2a59.255,59.255,0,0,0,10.42.008,68.186,68.186,0,0,0,13.057-2.3,66.073,66.073,0,0,0,23.285-12.024,84.4,84.4,0,0,0,8.249-8.071,44.333,44.333,0,0,0,4.8-6.155,75.9,75.9,0,0,0,5.24-9.219,71.5,71.5,0,0,0,2.962-7.541,47.362,47.362,0,0,0,1.692-6.942,34.574,34.574,0,0,0,.967-5.694c.01-1,.835-1.619,2.058-1.694a1.725,1.725,0,0,1,1.619,1.859,21.392,21.392,0,0,1-.611,4.427,67.08,67.08,0,0,1-1.953,8.124,68.831,68.831,0,0,1-6.7,15.079,71,71,0,0,1-4.984,7.257,76.022,76.022,0,0,1-8.655,9.191,65.631,65.631,0,0,1-12.723,9.022,68.322,68.322,0,0,1-18.519,6.942,81.707,81.707,0,0,1-8.558,1.423,63.573,63.573,0,0,1-9.823.162c-.941-.042-1.983-.287-2.911-.367-1.025-.089-2.074-.193-3.113-.3a53.771,53.771,0,0,1-7.915-1.569,56.309,56.309,0,0,1-7.25-2.223c-1.883-.769-3.765-1.595-5.589-2.525a77.528,77.528,0,0,1-6.759-3.809c-.864-.555-1.692-1.157-2.532-1.74a1.879,1.879,0,0,1-.427-3.09c1.694-1.936,3.656-3.6,5.524-5.366a2.444,2.444,0,0,1,2.185-.348c-.064.39.285.515.474.742" transform="translate(-18.047 -34.357)" fill="#010101"/>
        <path id="Trazado_822979" data-name="Trazado 822979" d="M34.442,104.631c1.3.5,1.677,1.384,1.319,3.158-.347,1.716-.522,3.456-.751,5.189a62.761,62.761,0,0,0-.328,9.242,61.8,61.8,0,0,0,.7,7.033,16.423,16.423,0,0,0,.629,2.968c.189.585.131,1.363.3,2.054a31.475,31.475,0,0,0,1.542,5.393c.392.881.486,1.825.908,2.684.439.893.722,1.859,1.135,2.765a66.494,66.494,0,0,0,4.951,9.562c.657.983.647.979,1.471.154q8.766-8.773,17.54-17.539c.867-.865,1.3-.912,2.441-.367.079.038.219-.053.33-.084.795,1.49.207,2.559-.9,3.654-6.225,6.168-12.4,12.386-18.594,18.587-.13.13-.268.254-.407.376-1.282,1.135-2.388,1-3.351-.419a70.08,70.08,0,0,1-10.423-23.306,75.972,75.972,0,0,1-1.616-9.482,55.755,55.755,0,0,1-.381-8.858,52.353,52.353,0,0,1,.827-8.162c.2-.918.307-1.854.493-2.774.293-1.442.685-1.757,2.165-1.831" transform="translate(-8.01 -27.118)" fill="#010101"/>
        <path id="Trazado_822980" data-name="Trazado 822980" d="M200.06,105.189c-1.682-.153-2.031-1.29-2.184-2.735a48.964,48.964,0,0,0-2.626-11.888c-.529-1.434-.916-2.965-1.48-4.393a59.341,59.341,0,0,0-5.158-10.294c-1.086-1.692-1.069-1.7-2.53-.234Q173.8,87.96,161.512,100.262a28.058,28.058,0,0,1-3.079,2.9,1.9,1.9,0,0,1-2.52-.259c-.721-1.271-.016-2.127.833-2.974q7.966-7.944,15.918-15.905c1.783-1.782,3.639-3.5,5.329-5.363,1.5-1.653,3.063-3.235,4.678-4.761,1.263-1.194,2.479-2.431,3.724-3.641a1.8,1.8,0,0,1,3.02.247,66.7,66.7,0,0,1,8.254,15.5,62.213,62.213,0,0,1,2.808,9.7c.411,2.073.747,4.161,1.073,6.25.216,1.382.037,2.628-1.491,3.227" transform="translate(-40.333 -18.028)" fill="#010101"/>
        <path id="Trazado_822981" data-name="Trazado 822981" d="M142.949,111.588c-1.436.79-1.8.77-2.668.005a1.323,1.323,0,0,1-.3-2.026,6.987,6.987,0,0,0,.414-.7c1.722-.61,3.052.167,2.94,1.7a3.28,3.28,0,0,1-.39,1.019" transform="translate(-36.191 -28.162)" fill="#010101"/>
        <path id="Trazado_822982" data-name="Trazado 822982" d="M215.238,126.145c-.81-.293-1.77-.443-1.816-1.581-.047-1.16.444-1.7,1.861-2.149.745.341,1.6.565,1.642,1.623.055,1.242-.3,1.694-1.688,2.107" transform="translate(-55.314 -31.728)" fill="#010101"/>
        <path id="Trazado_822983" data-name="Trazado 822983" d="M37.765,94.824c.211.563.893.806.965,1.476.147,1.351-.475,2.01-2.1,2.179a4.4,4.4,0,0,1-.741-.531c-.467-.5-.928-1.1-.617-1.8a1.9,1.9,0,0,1,1.854-1.272,5.269,5.269,0,0,0,.636-.055" transform="translate(-9.116 -24.577)" fill="#010101"/>
        <path id="Trazado_822984" data-name="Trazado 822984" d="M81.354,190.179c-.189-.227-.539-.353-.474-.742l.686-.048a1.135,1.135,0,0,1-.212.79" transform="translate(-20.961 -49.086)" fill="#fec9c1"/>
        <path id="Trazado_822985" data-name="Trazado 822985" d="M133.115,68.354a10.149,10.149,0,0,1-1.105,5.395,6.415,6.415,0,0,1-1.116,1.668,14.121,14.121,0,0,1-4.688,3.694,11.755,11.755,0,0,1-5.1,1.3,11.438,11.438,0,0,1-6.995-2.233,9.034,9.034,0,0,1-2.728-2.949,21.318,21.318,0,0,1-1.83-3.24,11.794,11.794,0,0,1,1.322-10.306,12.092,12.092,0,0,1,8.708-5.575,12.237,12.237,0,0,1,4.763.45,11.148,11.148,0,0,1,7.68,6.233,9.379,9.379,0,0,1,1.094,5.564m-3.651-.293a8.107,8.107,0,0,0-8.191-8.285,8.543,8.543,0,0,0-8.626,8.893c.076,4.09,4.289,8.235,8.7,8.031,4.055-.187,8.352-3.6,8.113-8.639" transform="translate(-28.227 -14.517)" fill="#010101"/>
        <path id="Trazado_822986" data-name="Trazado 822986" d="M136.524,132.2c-.2-2.018-.06-4.042-.111-6.063-.008-.321.1-.775.482-.377.988,1.025,2.209,1.847,2.875,3.164l-3.246,3.276" transform="translate(-35.356 -32.553)" fill="#fc5c3d"/>
        <path id="Trazado_822987" data-name="Trazado 822987" d="M130.771,69.376c.239,5.038-4.058,8.452-8.113,8.639-4.415.2-8.628-3.941-8.7-8.031a8.543,8.543,0,0,1,8.626-8.893,8.107,8.107,0,0,1,8.191,8.285" transform="translate(-29.534 -15.833)" fill="#efbf1f"/>
      </g>
    </g>
  </g>
</svg>
