<svg xmlns="http://www.w3.org/2000/svg" xmlns:xlink="http://www.w3.org/1999/xlink" width="190" height="190" viewBox="0 0 190 190">
  <defs>
    <clipPath id="clip-path">
      <rect id="Rect치ngulo_378104" data-name="Rect치ngulo 378104" width="190" height="190" transform="translate(1125 2521.23)" fill="#fff" stroke="#707070" stroke-width="1"/>
    </clipPath>
    <clipPath id="clip-path-2">
      <rect id="Rect치ngulo_378117" data-name="Rect치ngulo 378117" width="178.667" height="170.963" fill="none"/>
    </clipPath>
  </defs>
  <g id="Enmascarar_grupo_394" data-name="Enmascarar grupo 394" transform="translate(-1125 -2521.23)" clip-path="url(#clip-path)">
    <g id="Grupo_1073821" data-name="Grupo 1073821" transform="translate(1131 2530.231)">
      <g id="Grupo_1073820" data-name="Grupo 1073820" clip-path="url(#clip-path-2)">
        <path id="Trazado_822988" data-name="Trazado 822988" d="M50.144,30.638c3.146-.208,6.255-.735,9.381-1.119.626-.077.34-.426.18-.757-.619-1.289-1.279-2.563-1.806-3.89a16.822,16.822,0,0,1-.709-9.958A18.745,18.745,0,0,1,63.709,4.19a16.82,16.82,0,0,1,8.307-3.9A18.373,18.373,0,0,1,85.383,2.848,18.869,18.869,0,0,1,91.9,9.77a18.2,18.2,0,0,1,2.291,8.256,19.218,19.218,0,0,1-3.513,11.656,18.1,18.1,0,0,1-3.941,3.95c-.52.4-.63.6-.091,1.07Q91.3,38.759,95.9,42.869a.847.847,0,0,0,1.022.159c3.747-1.295,7.5-2.589,11.284-3.757a8.412,8.412,0,0,1,7.244.639c.47.293.992.5,1.491.752a10.1,10.1,0,0,1,2.629,9.891,13.593,13.593,0,0,1-1.544,3.205.792.792,0,0,0-.418.47q-.324.325-.65.649l-.453.389-1.72,1.12-.639.288-2.17.876-.651.223-1.953.635-1.736.649-4.288,1.57c-2.626.87-5.208,1.857-7.894,2.564a8.981,8.981,0,0,1-8.343-1.79C85.09,59.8,83.1,58.16,80.94,56.741c-1.136-.747-1.467-.67-1.926.57a40.233,40.233,0,0,1-2.183,4.912c-.44.829-.166,1.226.566,1.567,2.98,1.389,5.992,2.717,8.921,4.209a43.021,43.021,0,0,1,6.97,3.8,13.185,13.185,0,0,1,2.358,2.856,6.616,6.616,0,0,0,.946,2.436c.019.1.056.139.135.04,5.576-.045,11.152-.153,16.727.015a32.05,32.05,0,0,1,5.458,1.419l1.3.651a1.647,1.647,0,0,0,.855.47,18.011,18.011,0,0,1,4.395,4.49c0,.246.193.339.365.448l.936,1.721q.278.554.555,1.108l1.4,4.531q0,.325.006.651a7.437,7.437,0,0,0,.213,2.386l-.068,1.071c-.407.85-.163,1.784-.373,2.679a17.138,17.138,0,0,1-6.46,10.158q-2.977,2.243-5.947,4.491-3.348,2.439-6.7,4.877c-.446.325-.886.659-1.33.988-1.574,1.117-3.209,2.161-4.7,3.382-.778.637-1.871.9-2.352,1.891-.118.056-.133.164-.053.233s.2.07.144-.105a3.3,3.3,0,0,0,1.588.171q11.41-.014,22.822-.056c1.691-.006,1.691-.019,1.509-1.8a54.206,54.206,0,0,0-.018-6.079c.035-.788.1-1.578.1-2.366.005-2.176,1.616-3.2,3.567-2.251.722.354,1.428.742,2.142,1.115l2.243,1.231.049.029a8.893,8.893,0,0,0,2.048,1.1l7.16,4.146.435.188a2.438,2.438,0,0,0,.9.6l1.7.921c2.4,1.47,4.784,2.966,7.317,4.2,2.054,1.224,4.1,2.459,6.162,3.669,3.2,1.88,6.382,3.8,9.63,5.6,1.915,1.059,3.76,2.228,5.649,3.325a12.586,12.586,0,0,1,1.756,1.181,2.24,2.24,0,0,1-.263,3.624c-3.244,2.162-6.626,4.09-10,6.032s-6.682,3.957-10.036,5.911c-2.947,1.717-5.926,3.381-8.877,5.092-4.484,2.6-8.919,5.287-13.457,7.79-1.492.822-2.914,1.78-4.484,2.476a4.137,4.137,0,0,1-1.621.423,2.853,2.853,0,0,1-2.018-2.675c-.006-.123-.013-.245-.019-.368q0-3.978,0-7.957c0-.423.1-.985-.537-.942-1.11.074-2.171-.435-3.281-.208q-10.446-.022-20.893-.043-13.317-.01-26.634,0c-.36,0-.72.026-1.079.04l-1.3.01-1.085.01-5.2-.284a3.645,3.645,0,0,0-1.721-.427,3.058,3.058,0,0,0-1.092-.461L61.372,156.5C50.151,150.669,45.7,134.67,54.048,124.1a29.859,29.859,0,0,1,5.747-5.232,1.714,1.714,0,0,0,.332-.4.85.85,0,0,0,.662-.4,1.49,1.49,0,0,0,.857-.684c.64-.159,1.011-.714,1.532-1.047.568-.454,1.294-.7,1.723-1.337a3.137,3.137,0,0,0,1.517-1.083A25.044,25.044,0,0,0,69.79,111.7c.157-.115.4-.25.255-.518-.105-.2-.318-.112-.483-.114-1.12-.015-2.241-.025-3.361-.025q-31.663,0-63.326.011a3.35,3.35,0,0,1-2.842-1.729A6.9,6.9,0,0,1,.25,106.96L.9,105.442a28.832,28.832,0,0,0,1.945-4.522A9.107,9.107,0,0,0,3.89,98.492l.924-2.322a1.393,1.393,0,0,0,.413-1.123,28.825,28.825,0,0,0,1.99-4.56,2.917,2.917,0,0,0,.568-1.32A33.248,33.248,0,0,0,9.362,85.31a6.9,6.9,0,0,0,1.093-2.432c.747-1.48,1.244-3.071,2.1-4.508a2.457,2.457,0,0,1,1.748-1.247c1.066.037,2.142.03,3.209.034q13.055.047,26.108.038c.4-.03.842-.011.831-.607l.931-2.81c.288-.163.22-.413.161-.66a4.69,4.69,0,0,0,.706-2.159c.369-.118.135-.438.219-.652.217-.568.67-1.047.64-1.708.3-.145.2-.435.24-.673a1.627,1.627,0,0,0,.359-1.1c.091-.522.464-.963.436-1.519A10.345,10.345,0,0,0,48.8,63.36q.315-1.193.628-2.386.031-.529.062-1.059a4.724,4.724,0,0,0,.388-2.411c.231-1.588,1.066-3.094.66-4.771q.022-.321.046-.644c.407-.381.1-.876.209-1.3.5-1.364.4-1.422-.861-1.55s-1.482.688-1.783,1.536c-1.379,2.705-2.689,5.449-4.161,8.1a8.008,8.008,0,0,1-4.926,4.3c-.154-.045-.206.053-.245.173l-1.489.263a7.787,7.787,0,0,1-6.284-2.447l-.2-.2a9.919,9.919,0,0,1-2.229-4.112,16.774,16.774,0,0,1-.072-3.712c.651-2.875,2.181-5.383,3.326-8.047,1.193-2.777,2.562-5.479,3.9-8.192a8.844,8.844,0,0,1,3.2-3.854c2.215-1.338,4.78-1.4,7.254-1.785a18.478,18.478,0,0,0,3.92-.625M38.413,82.563c0-.095-.008-.19-.011-.285-2.372.019-4.737-.092-7.114-.043-4.517.093-9.039.018-13.559.013-.145,0-.322.05-.429-.016-.744-.456-.978.022-1.217.6-1.128,2.75-2.2,5.525-3.438,8.226-.752,1.648-1.428,3.331-2.142,4.991-1.273,2.953-2.281,6.019-3.66,8.932-.253.536-.1.827.493.866.288.019.578.005.867.005q34.552-.012,69.1-.02a12.146,12.146,0,0,1,1.624.051,2.363,2.363,0,0,1,2.045,2.379,2.985,2.985,0,0,1-1.63,2.81c-5.647,4.062-11.3,8.111-16.921,12.212-2.7,1.972-5.124,4.169-6.326,7.481a16.77,16.77,0,0,0,.82,14.24c2.894,5.39,7.52,8.478,13.649,8.52,19.38.132,38.763.053,58.145.058,2.632,0,3.542.861,3.582,3.475.029,1.842-.023,3.685-.037,5.527,0,.283-.079.621.193.8.288.185.511-.075.757-.22.7-.412,1.433-.769,2.138-1.175q17.359-10,34.71-20.008c.258-.149.721-.159.68-.585-.035-.36-.434-.445-.708-.6q-6.064-3.491-12.131-6.976c-2.22-1.279-4.455-2.534-6.645-3.861-1.92-1.163-3.936-2.149-5.858-3.315-4.041-2.453-8.171-4.759-12.267-7.119-.2-.118-.377-.408-.661-.244-.325.187-.152.516-.152.787-.006,2.169.016,4.337-.017,6.5-.05,3.211-1.5,3.5-3.433,3.509q-18.269.056-36.538.031a2.009,2.009,0,0,1-1.763-1.073c-.767-1.611-.389-2.841,1.1-3.945q12.879-9.556,25.774-19.092a17.472,17.472,0,0,0,3.279-2.822c3.129-3.822,3.51-8.123,2.121-12.7A10.942,10.942,0,0,0,113,82.453c-5.011-.416-10.047-.079-15.07-.168-.579-.01-.755.236-.7.794.161,1.519.213,3.053.449,4.56.214,1.378.32,2.758.442,4.143.2,2.29.778,4.511.444,6.88a10.039,10.039,0,0,1-7.179,8.233,8.826,8.826,0,0,1-10.065-4.577A18.014,18.014,0,0,1,79.9,96.773c-.47-3.086-.779-6.2-1.139-9.3a1.058,1.058,0,0,0-.728-.969c-3.079-1.168-6.159-2.333-9.23-3.521-.733-.284-1.069-.031-1.4.649-1,2.081-2.018,4.154-3.133,6.173-2.41,4.365-5.665,7.831-10.6,9.3a82.907,82.907,0,0,1-9.855,1.775c-3.092.529-6.195.992-9.287,1.523a10.987,10.987,0,0,1-6.2-.487,8.869,8.869,0,0,1-5.69-9.451c.767-5.045,4.4-7.512,9.123-8.5,2.219-.464,4.436-.938,6.655-1.407M32.192,97.4a7.657,7.657,0,0,0,1.192-.008c5.309-.857,10.606-1.8,15.928-2.575a12.95,12.95,0,0,0,9.332-5.764,43.134,43.134,0,0,0,2.989-5.266c4.888-9.965,8.981-20.292,13.741-30.315.165-.347.24-.647-.134-.95-.859-.7-1.631-1.514-2.543-2.126a7.276,7.276,0,0,1-2.178-2.317,1.246,1.246,0,0,1-.176-1.017,2.655,2.655,0,0,1,4.419-1.526c2.253,1.769,4.522,3.518,6.764,5.3,1.252,1,2.712,1.689,3.882,2.822.778.754,1.865,1.187,2.645,1.939,2.465,2.374,5.085,3.479,8.549,2.091,4.687-1.878,9.486-3.469,14.212-5.253a5.478,5.478,0,0,0,3.354-2.589,4.277,4.277,0,0,0-.474-5.022,3.761,3.761,0,0,0-3.932-.656c-1.072.331-2.135.689-3.2,1.051-3.314,1.128-6.637,2.234-9.932,3.417a2.3,2.3,0,0,1-2.537-.5c-1.5-1.388-3.142-2.613-4.589-4.08A28.012,28.012,0,0,0,86.7,41.427c-1.3-1-2.542-2.092-3.726-3.184a4.207,4.207,0,0,0-4.233-1.029,15.9,15.9,0,0,1-5.651.181,18.219,18.219,0,0,1-8.334-3.353,1.44,1.44,0,0,0-1.945.034c-2.427,1.736-3.692,4.246-4.639,6.938a38.13,38.13,0,0,0-1.93,8.362c-.183,1.625-.519,3.226-.654,4.85-.184,2.2-.454,4.391-.829,6.561a65.535,65.535,0,0,1-2.536,9.252c-.771,2.342-1.668,4.646-2.466,6.978-.876,2.562-1.879,5.076-2.753,7.637a2.186,2.186,0,0,1-1.837,1.653,14.539,14.539,0,0,0-2.215.585c-3.206.714-6.424,1.374-9.63,2.085a9.712,9.712,0,0,0-4.067,1.543,3.785,3.785,0,0,0,.277,6.289,5.217,5.217,0,0,0,2.663.589M88.977,18.9C89.028,10.627,83.074,5.027,75,5.148,67.8,5.257,62.06,10.691,61.938,18.7a13.373,13.373,0,0,0,13.516,13.62A13.192,13.192,0,0,0,88.977,18.9m3.036,63.733.071-.01c-.208-1.336-.4-2.676-.632-4.006a5.182,5.182,0,0,0-2.838-3.743c-.6-.328-1.221-.622-1.839-.917-3.9-1.858-7.686-3.965-11.687-5.616-.172-.071-.521-.592-.636-.021s-.615.855-.827,1.353c-.989,2.332-2.025,4.646-3.052,6.961-.495,1.117-.416,1.277.732,1.721,3.192,1.234,6.359,2.537,9.573,3.71,1.61.588,2.666,1.42,2.74,3.285a14.32,14.32,0,0,0,.178,1.688c.585,3.582,1.072,7.176,1.514,10.778a4.5,4.5,0,0,0,2.737,3.96c2.134.842,5.217-.712,5.474-4.065.222-2.908-.531-5.755-.737-8.64-.152-2.153-.508-4.293-.773-6.438M36.876,58.4a2.14,2.14,0,0,0,1.1-.3c1.565-.886,2.032-2.527,2.771-3.952,1.421-2.744,2.724-5.552,4.091-8.325a2.654,2.654,0,0,1,2.235-1.583,37.8,37.8,0,0,1,3.977-.183c.545-.013,1.007-.1,1.144-.736a30.4,30.4,0,0,1,2.422-7.206c.267-.534.07-.723-.61-.6-1.43.261-2.9.32-4.329.568-.66.114-1.446-.363-1.824-.076a4.391,4.391,0,0,1-2.726.633,5.513,5.513,0,0,0-5.2,3.529C38.931,42.4,37.872,44.6,36.873,46.84a63.127,63.127,0,0,0-3.084,7.127,3.477,3.477,0,0,0,3.088,4.43" transform="translate(0 0)"/>
        <path id="Trazado_822989" data-name="Trazado 822989" d="M39.407,94.687c-2.218.47-4.436.944-6.655,1.408-4.719.987-8.356,3.454-9.123,8.5a8.868,8.868,0,0,0,5.69,9.451,10.972,10.972,0,0,0,6.2.487c3.092-.53,6.195-.994,9.287-1.522a83.117,83.117,0,0,0,9.855-1.776c4.94-1.472,8.194-4.938,10.6-9.3,1.114-2.02,2.135-4.093,3.133-6.174.327-.68.663-.932,1.4-.649,3.071,1.188,6.151,2.352,9.229,3.522a1.056,1.056,0,0,1,.728.969c.36,3.1.668,6.213,1.138,9.3a18.046,18.046,0,0,0,1.429,5.545,8.825,8.825,0,0,0,10.065,4.576,10.039,10.039,0,0,0,7.179-8.233c.334-2.369-.242-4.591-.444-6.879-.122-1.386-.227-2.765-.443-4.144-.234-1.506-.288-3.041-.448-4.56-.059-.558.117-.8.7-.793,5.025.089,10.06-.249,15.071.167a10.944,10.944,0,0,1,9.828,8.025c1.39,4.578,1.008,8.878-2.121,12.7a17.473,17.473,0,0,1-3.279,2.822q-12.889,9.543-25.774,19.091c-1.488,1.1-1.867,2.334-1.1,3.945a2.009,2.009,0,0,0,1.763,1.073q18.269.021,36.538-.031c1.932-.006,3.383-.3,3.433-3.509.033-2.168.01-4.336.017-6.5,0-.272-.173-.6.152-.788.284-.164.457.127.661.244,4.1,2.36,8.226,4.667,12.267,7.12,1.922,1.166,3.938,2.151,5.858,3.315,2.19,1.328,4.425,2.582,6.645,3.861q6.064,3.492,12.131,6.976c.274.158.673.243.708.6.042.426-.422.437-.68.585q-17.349,10.013-34.71,20.008c-.7.406-1.438.763-2.138,1.175-.247.145-.47.405-.757.221s-.2-.513-.193-.8c.014-1.842.065-3.685.037-5.527-.04-2.615-.95-3.475-3.583-3.475-19.381,0-38.764.075-58.145-.057-6.128-.042-10.754-3.13-13.649-8.521a16.771,16.771,0,0,1-.819-14.239c1.2-3.313,3.624-5.509,6.326-7.482,5.617-4.1,11.274-8.15,16.921-12.212a2.985,2.985,0,0,0,1.63-2.809,2.363,2.363,0,0,0-2.045-2.38,12.3,12.3,0,0,0-1.625-.051q-34.55.008-69.1.02c-.289,0-.579.015-.868,0-.588-.039-.746-.33-.492-.866,1.379-2.913,2.387-5.98,3.659-8.933.715-1.66,1.391-3.342,2.143-4.99,1.234-2.7,2.309-5.478,3.437-8.227.239-.582.474-1.059,1.218-.6.106.065.284.016.429.017,4.52.005,9.041.08,13.559-.014,2.377-.05,4.742.063,7.114.043,0,.095.008.19.011.285" transform="translate(-0.994 -12.124)" fill="#fcb03a"/>
        <path id="Trazado_822990" data-name="Trazado 822990" d="M36.287,102.376a5.231,5.231,0,0,1-2.664-.588,3.785,3.785,0,0,1-.275-6.29,9.7,9.7,0,0,1,4.066-1.543c3.206-.711,6.425-1.37,9.631-2.084a14.386,14.386,0,0,1,2.215-.585A2.183,2.183,0,0,0,51.1,89.633c.875-2.562,1.878-5.075,2.755-7.637.8-2.331,1.695-4.636,2.465-6.978a65.533,65.533,0,0,0,2.535-9.252c.376-2.169.647-4.361.829-6.561.137-1.624.471-3.225.655-4.85a38.13,38.13,0,0,1,1.93-8.362c.948-2.692,2.212-5.2,4.639-6.937a1.44,1.44,0,0,1,1.946-.035,18.223,18.223,0,0,0,8.333,3.353,15.9,15.9,0,0,0,5.652-.181,4.2,4.2,0,0,1,4.232,1.029c1.185,1.092,2.428,2.185,3.727,3.184A28.02,28.02,0,0,1,93.6,49.032c1.447,1.467,3.086,2.692,4.59,4.08a2.3,2.3,0,0,0,2.535.5c3.3-1.183,6.619-2.289,9.933-3.417,1.062-.362,2.125-.72,3.2-1.051a3.761,3.761,0,0,1,3.932.656,4.273,4.273,0,0,1,.474,5.022,5.476,5.476,0,0,1-3.353,2.589c-4.725,1.783-9.525,3.375-14.211,5.253-3.465,1.388-6.084.283-8.55-2.091-.779-.752-1.867-1.185-2.645-1.939-1.17-1.133-2.63-1.825-3.883-2.822-2.241-1.783-4.509-3.533-6.763-5.3a2.655,2.655,0,0,0-4.419,1.526,1.25,1.25,0,0,0,.176,1.017,7.257,7.257,0,0,0,2.178,2.317c.912.612,1.683,1.43,2.542,2.126.374.3.3.6.134.95-4.759,10.024-8.852,20.35-13.74,30.315a43.243,43.243,0,0,1-2.988,5.266,12.953,12.953,0,0,1-9.333,5.764c-5.321.772-10.618,1.718-15.927,2.575a7.66,7.66,0,0,1-1.192.008" transform="translate(-4.094 -4.977)" fill="#69bdc7"/>
        <path id="Trazado_822991" data-name="Trazado 822991" d="M98.128,19.66A13.193,13.193,0,0,1,84.606,33.077,13.374,13.374,0,0,1,71.09,19.457c.123-8.005,5.864-13.44,13.064-13.548,8.072-.121,14.026,5.478,13.975,13.751" transform="translate(-9.152 -0.76)" fill="#f9d0a1"/>
        <path id="Trazado_822992" data-name="Trazado 822992" d="M102.4,92.688c.265,2.146.62,4.285.773,6.438.206,2.886.959,5.732.737,8.64-.257,3.353-3.34,4.908-5.474,4.065a4.5,4.5,0,0,1-2.737-3.96c-.443-3.6-.93-7.2-1.514-10.778A14.3,14.3,0,0,1,94,95.406c-.074-1.864-1.13-2.7-2.74-3.284-3.214-1.174-6.381-2.477-9.573-3.711-1.147-.443-1.227-.6-.731-1.72,1.026-2.317,2.062-4.63,3.051-6.962.212-.5.709-.772.827-1.352s.464-.051.636.02c4,1.651,7.785,3.759,11.688,5.616.618.294,1.237.589,1.838.917a5.184,5.184,0,0,1,2.838,3.743c.236,1.331.423,2.67.632,4.007l-.071.009" transform="translate(-10.386 -10.056)" fill="#69bdc7"/>
        <path id="Trazado_822993" data-name="Trazado 822993" d="M41.848,63.639a3.478,3.478,0,0,1-3.088-4.431,62.971,62.971,0,0,1,3.084-7.127c1-2.236,2.059-4.444,3.063-6.677a5.513,5.513,0,0,1,5.2-3.53,4.392,4.392,0,0,0,2.727-.633c.376-.288,1.163.19,1.823.076,1.433-.248,2.9-.307,4.329-.567.68-.125.876.064.611.6a30.345,30.345,0,0,0-2.422,7.205c-.137.635-.6.724-1.144.736a37.8,37.8,0,0,0-3.977.183,2.655,2.655,0,0,0-2.235,1.583c-1.369,2.773-2.67,5.58-4.092,8.326-.738,1.425-1.2,3.066-2.77,3.951a2.15,2.15,0,0,1-1.1.306" transform="translate(-4.972 -5.241)" fill="#69bdc7"/>
      </g>
    </g>
  </g>
</svg>
