<svg xmlns="http://www.w3.org/2000/svg" xmlns:xlink="http://www.w3.org/1999/xlink" width="190" height="190" viewBox="0 0 190 190">
  <defs>
    <clipPath id="clip-path">
      <rect id="Rect치ngulo_378108" data-name="Rect치ngulo 378108" width="190" height="190" transform="translate(1125 2521.23)" fill="#fff" stroke="#707070" stroke-width="1"/>
    </clipPath>
    <clipPath id="clip-path-2">
      <rect id="Rect치ngulo_378118" data-name="Rect치ngulo 378118" width="184.49" height="184.42" fill="none"/>
    </clipPath>
  </defs>
  <g id="Enmascarar_grupo_395" data-name="Enmascarar grupo 395" transform="translate(-1125 -2521.23)" clip-path="url(#clip-path)">
    <g id="Grupo_1073823" data-name="Grupo 1073823" transform="translate(1128 2523.23)">
      <g id="Grupo_1073822" data-name="Grupo 1073822" clip-path="url(#clip-path-2)">
        <path id="Trazado_822994" data-name="Trazado 822994" d="M98.725,158.514c-.525-.841-1.068-1.67-1.566-2.526a4.533,4.533,0,0,0-.675-.972c.32-.517,1.023-.768,1.09-1.445a4.136,4.136,0,0,0-.7-3.174c-.638-.8-1.272-1.606-1.832-2.459-1.2-1.835-2.756-2.151-4.822-1.15-1.337.647-2.689,1.265-4.033,1.9q-4.874,2.3-9.746,4.6c-.509.24-.959.392-1-.464-.115-2.485-.225-4.971-.4-7.451-.124-1.772-.443-3.533-.5-5.305a34.854,34.854,0,0,0-.428-3.905c-.129-.9-1.636-2.368-2.37-2.276a25.381,25.381,0,0,1-5.186-.322c-3.522-.27-7.047-.563-10.57-.847-1.144-.093-1.156-.093-.646-1.164,2.173-4.554,4.347-9.108,6.477-13.682.867-1.86.54-3.034-1.136-4.279-1.467-1.09-2.985-2.112-4.487-3.156-2.824-1.963-5.646-3.932-8.486-5.872-.579-.395-.638-.636.007-1,.536-.3,1.023-.7,1.531-1.052,3.79-2.637,7.6-5.251,11.363-7.921,1.742-1.235,1.975-2.308,1.107-4.252-1.123-2.516-2.216-5.046-3.389-7.538a65.27,65.27,0,0,0-3.074-6.232c-.538-.887-.375-1.128.641-1.157a13.874,13.874,0,0,0,2.043-.039,100.639,100.639,0,0,1,10.211-.91,23.993,23.993,0,0,0,3.908-.555A2.823,2.823,0,0,0,74.2,71.507c.4-2.62.482-5.267.716-7.9.24-2.707.541-5.408.543-8.132,0-.47-.158-1.21.836-.737,4.8,2.284,9.615,4.523,14.415,6.8a3.106,3.106,0,0,0,3.743-.7,13.375,13.375,0,0,0,.9-1.186q4.2-6.026,8.377-12.063c.392-.568.616-.806,1.13-.054,2.884,4.222,5.811,8.414,8.739,12.606a6.706,6.706,0,0,0,1.1,1.24,2.716,2.716,0,0,0,3.192.155c4.707-2.212,9.422-4.408,14.124-6.632.717-.34,1.028-.258.963.6a21.182,21.182,0,0,0,.164,3.872q.271,2.535.408,5.081c.1,1.928.329,3.849.546,5.769s.7,3.61,3.358,3.857c2.716.254,5.428.591,8.149.723,2.45.119,4.848.624,7.288.761.557.031.591.143.381.652-.823,2-1.739,3.951-2.712,5.881-1.273,2.523-2.255,5.184-3.554,7.7a4.324,4.324,0,0,0-.674,1.675c-.126,1.681.885,2.611,2.091,3.448,4.124,2.863,8.242,5.733,12.38,8.574.6.414.758.6.035,1.1q-6.374,4.349-12.688,8.786c-1.711,1.2-2.319,2.327-1.248,4.489,1.333,2.69,2.578,5.423,3.857,8.139.9,1.9,1.793,3.809,2.673,5.721.188.408.482.888-.36.973-2.393.243-4.789.45-7.18.71-2.753.3-5.529.387-8.294.586-2.112.151-2.991,1.058-3.355,3.146a63.092,63.092,0,0,0-.694,6.866c-.18,2.851-.669,5.681-.591,8.55.027.969-.1,1.021-1.006.6-1.187-.557-2.364-1.134-3.554-1.685-3.5-1.618-7-3.213-10.489-4.845A3.1,3.1,0,0,0,114,147.4q-4.451,6.236-8.839,12.516c-.827,1.184-.985,1.223-1.767.08-1.409-2.056-2.443-2.385-4.666-1.486m5.709-25.421c-1.641-.144-3.285-.077-4.949-.34A30.377,30.377,0,0,1,87.1,127.58,24.481,24.481,0,0,1,82.84,123.6a28.675,28.675,0,0,1-7.575-17.955,26.557,26.557,0,0,1,.209-4.956,35.05,35.05,0,0,1,.5-3.627A30.056,30.056,0,0,1,79.341,89.2a4.083,4.083,0,0,0,.364-3.737,2.843,2.843,0,0,0-4.821-.356,18.316,18.316,0,0,0-1.822,3.125,37.339,37.339,0,0,0-3.924,15.517,27.562,27.562,0,0,0,.524,5.336,34.69,34.69,0,0,0,11.82,21.493,33.251,33.251,0,0,0,7.22,4.8,34.781,34.781,0,0,0,30.1.514,36.78,36.78,0,0,0,15.157-13.042c3.08-4.467,4.4-9.577,5.126-14.858a32.945,32.945,0,0,0-1.333-14.3,32.083,32.083,0,0,0-6.2-11.824,45.084,45.084,0,0,0-6.606-6.074,31.858,31.858,0,0,0-7.423-4.233,40.769,40.769,0,0,0-8.355-2.188,31.407,31.407,0,0,0-10.918.2A29.837,29.837,0,0,0,90.86,71.7,38.7,38.7,0,0,0,84.9,74.919a2.822,2.822,0,0,0-.916,4.171c.888,1.334,2.508,1.584,4.093.665,1.272-.738,2.539-1.492,3.855-2.146a27.949,27.949,0,0,1,15.763-2.5A26.913,26.913,0,0,1,124.882,83.6c6.556,6.965,9.682,15.107,8.143,24.631-1.757,10.874-8,18.442-18.015,22.919a22.658,22.658,0,0,1-10.577,1.946" transform="translate(-11.978 -11.927)" fill="#ffec66"/>
        <path id="Trazado_822995" data-name="Trazado 822995" d="M95.923,155.717c2.223-.9,3.258-.57,4.666,1.486.783,1.144.94,1.1,1.768-.08q4.39-6.279,8.839-12.516a3.1,3.1,0,0,1,3.909-.774c3.489,1.633,6.995,3.228,10.489,4.846,1.19.55,2.367,1.128,3.554,1.684.9.424,1.033.372,1.007-.6-.078-2.869.41-5.7.59-8.55a63.259,63.259,0,0,1,.694-6.866c.364-2.089,1.244-3,3.355-3.147,2.765-.2,5.54-.286,8.294-.585,2.392-.261,4.788-.467,7.181-.711.841-.086.547-.564.36-.973-.881-1.913-1.778-3.817-2.674-5.721-1.279-2.716-2.524-5.45-3.857-8.138-1.071-2.164-.464-3.292,1.248-4.49q6.32-4.428,12.688-8.786c.723-.494.568-.685-.034-1.1-4.138-2.841-8.256-5.712-12.38-8.574-1.206-.838-2.218-1.766-2.092-3.448A4.314,4.314,0,0,1,144.2,87c1.3-2.517,2.281-5.177,3.554-7.7.974-1.93,1.889-3.881,2.713-5.881.209-.507.175-.621-.382-.652-2.44-.135-4.838-.642-7.287-.759-2.722-.132-5.434-.47-8.15-.723-2.657-.249-3.139-1.934-3.357-3.858s-.443-3.842-.547-5.769q-.138-2.547-.408-5.081a21.184,21.184,0,0,1-.164-3.872c.066-.856-.245-.938-.963-.6-4.7,2.224-9.416,4.42-14.124,6.632a2.716,2.716,0,0,1-3.192-.155,6.635,6.635,0,0,1-1.1-1.24c-2.927-4.192-5.855-8.384-8.738-12.606-.514-.753-.738-.514-1.13.054q-4.173,6.042-8.377,12.062a13.386,13.386,0,0,1-.9,1.186,3.106,3.106,0,0,1-3.743.7c-4.8-2.277-9.618-4.516-14.415-6.8-.994-.473-.835.267-.835.736,0,2.724-.3,5.425-.543,8.132-.234,2.634-.315,5.28-.716,7.9A2.824,2.824,0,0,1,69.263,71.1a24.066,24.066,0,0,1-3.908.556,100.229,100.229,0,0,0-10.211.909,14.083,14.083,0,0,1-2.043.039c-1.015.029-1.179.27-.64,1.156A65.714,65.714,0,0,1,55.536,80c1.173,2.493,2.265,5.024,3.388,7.54.868,1.943.635,3.017-1.106,4.251-3.767,2.67-7.574,5.284-11.363,7.921-.509.354-1,.747-1.532,1.052-.645.367-.586.608-.007,1,2.841,1.939,5.662,3.908,8.487,5.871,1.5,1.044,3.019,2.066,4.486,3.156,1.676,1.245,2,2.418,1.136,4.279-2.13,4.573-4.3,9.127-6.476,13.682-.511,1.071-.5,1.071.645,1.164,3.523.284,7.048.577,10.57.847a25.382,25.382,0,0,0,5.186.322c.734-.093,2.242,1.376,2.37,2.276a34.848,34.848,0,0,1,.428,3.906c.054,1.771.373,3.533.5,5.3.173,2.482.283,4.967.4,7.452.04.856.489.7,1,.463q4.874-2.3,9.745-4.6c1.344-.633,2.7-1.25,4.033-1.9,2.066-1,3.62-.685,4.823,1.15.559.853,1.194,1.66,1.831,2.459a4.133,4.133,0,0,1,.7,3.174c-.066.677-.77.928-1.09,1.445-1.518,1.1-3.209.7-4.494-1.066a1.6,1.6,0,0,1-.127-.246c-.4-.819-.875-.924-1.748-.5-4.064,1.981-8.145,3.936-12.282,5.759-1.462.644-2.773,1.63-4.393,1.941a3.187,3.187,0,0,1-3.17-2.055c-.265-1.409-.227-2.847-.4-4.263-.327-2.687-.326-5.4-.713-8.084-.254-1.764-.3-3.56-.39-5.345-.049-.928-.222-1.47-1.4-1.513-2.446-.09-4.886-.393-7.325-.623-3.178-.3-6.356-.57-9.542-.776a3.37,3.37,0,0,1-3.095-2.42,1.786,1.786,0,0,1,.1-1.253c1.167-2.936,2.655-5.721,3.971-8.588,1.265-2.754,2.558-5.5,3.9-8.216.364-.738-.122-.953-.529-1.239q-3.955-2.776-7.93-5.526-2.862-1.989-5.726-3.975c-.331-.23-.659-.467-.965-.727a2.714,2.714,0,0,1,.03-4.549c.452-.376.943-.7,1.426-1.041Q45.519,93.3,52.17,88.7a.85.85,0,0,0,.331-1.294q-3.614-7.52-7.166-15.072a9.507,9.507,0,0,1-.766-2.057c-.273-1.3,1.139-2.921,2.622-3.065,2.478-.238,4.956-.455,7.443-.6,2.878-.172,5.743-.572,8.615-.856a7.968,7.968,0,0,1,1.578-.022.8.8,0,0,0,.948-.671c.231-1.813.4-3.637.547-5.46.155-1.921.264-3.843.512-5.757a22.7,22.7,0,0,0,.205-3.765,14.553,14.553,0,0,1,.484-3.892c.355-1.511,2.452-2.2,4.14-1.474,1.368.594,2.7,1.275,4.056,1.893,3.386,1.538,6.7,3.244,10.127,4.687a15.141,15.141,0,0,1,1.937,1.017.686.686,0,0,0,1.077-.28c2.415-3.751,5.081-7.331,7.592-11.016.9-1.314,1.766-2.661,2.756-3.89,1.2-1.492,3.4-1.56,4.8.4,2.526,3.53,4.953,7.133,7.437,10.694.853,1.224,1.784,2.4,2.62,3.631a.8.8,0,0,0,1.241.29c3.972-2.143,8.185-3.778,12.241-5.745,1.265-.613,2.591-1.1,3.854-1.716a4.006,4.006,0,0,1,3.086.114c.262.08.6.8.758,1.274a6.027,6.027,0,0,1,.515,2.7,3.569,3.569,0,0,0,.255,2.05c.252.528.023,1.341.034,2.031.03,2.006.321,3.989.479,5.977.159,2.005.314,4.018.5,6.024.078.826.773.8,1.291.842,1.958.172,3.934.18,5.883.413,3.571.427,7.18.452,10.733,1.069a7.31,7.31,0,0,1,1.8.334,2.967,2.967,0,0,1,1.3,3.932c-.543,1.133-1.074,2.27-1.613,3.405-.823,1.731-1.655,3.457-2.47,5.192-1.2,2.554-2.369,5.121-3.591,7.665-.3.629.169.777.489,1,2.161,1.522,4.339,3.02,6.506,4.534,2.533,1.77,5,3.642,7.607,5.293,2.364,1.5,2.164,4.033-.009,5.481-2.8,1.867-5.537,3.832-8.3,5.756-1.853,1.287-3.684,2.608-5.57,3.847-.74.487-.942.806-.49,1.728,2.3,4.687,4.493,9.427,6.69,14.164a6.022,6.022,0,0,1,.976,2.947,2.83,2.83,0,0,1-2.3,2.826,16.577,16.577,0,0,1-2.821.364c-4.036.378-8.082.643-12.124.963-.977.078-1.949.288-2.924.29-.826,0-.991.506-1.05,1.087-.161,1.563-.25,3.132-.392,4.7-.1,1.127-.314,2.249-.352,3.376-.073,2.135-.275,4.252-.52,6.374-.107.938-.221,1.9-.248,2.856a2.843,2.843,0,0,1-4.034,2.559c-2.773-1.272-5.516-2.609-8.288-3.884-2.672-1.23-5.377-2.386-8.037-3.64-.682-.322-.942-.006-1.257.444-1.4,2-2.815,4-4.211,6-1.9,2.723-3.793,5.445-5.665,8.185-1.119,1.638-3.753,2.512-5.084.063a30.035,30.035,0,0,0-1.764-2.589c-.645-.937-1.271-1.887-1.935-2.811a2.876,2.876,0,0,1,.66-3.9" transform="translate(-9.176 -9.131)" fill="#010101"/>
        <path id="Trazado_822996" data-name="Trazado 822996" d="M229.583,125.331q-3.719,0-7.437,0a3.048,3.048,0,0,1-2.72-2.223c-.184-2.111.543-3.186,2.276-3.541a10.013,10.013,0,0,1,2.018-.166c4.214,0,8.429-.022,12.644.015a3.8,3.8,0,0,1,2.74.818,2.707,2.707,0,0,1,.768,3.177,3.017,3.017,0,0,1-2.758,1.935c-2.51.01-5.021,0-7.531,0v-.016" transform="translate(-55.603 -30.258)" fill="#010101"/>
        <path id="Trazado_822997" data-name="Trazado 822997" d="M125.6,229.015c0,2.779.031,5.011-.013,7.241a3.7,3.7,0,0,1-1.106,2.9,2.565,2.565,0,0,1-2.6.726,3.019,3.019,0,0,1-2.249-2.562,14.542,14.542,0,0,1,.015-2.231c0-4.308.017-8.615,0-12.922a2.842,2.842,0,0,1,2.322-2.824c1.963-.188,3.172.664,3.451,2.356.43,2.613.02,5.243.184,7.313" transform="translate(-30.307 -55.584)" fill="#010101"/>
        <path id="Trazado_822998" data-name="Trazado 822998" d="M59.845,221.455c-.133-.79.4-1.344.738-1.93,1.831-3.219,3.733-6.4,5.576-9.611.545-.949,1.067-1.907,1.688-2.81,1.57-2.281,3.517-1.8,5-.169a2.392,2.392,0,0,1,.116,2.712q-1.946,3.45-3.922,6.882c-1.145,2-2.32,3.978-3.448,5.984a3.5,3.5,0,0,1-2.725,1.964,2.758,2.758,0,0,1-2.635-1.545c-.139-.493-.513-.925-.389-1.477" transform="translate(-15.161 -52.094)" fill="#010101"/>
        <path id="Trazado_822999" data-name="Trazado 822999" d="M119.668,10.2c0-2.449.021-4.9-.007-7.348A2.834,2.834,0,0,1,121.981.026c1.965-.188,3.142.669,3.466,2.356a12.46,12.46,0,0,1,.167,2.381c0,4.03.019,8.061-.01,12.091a3.991,3.991,0,0,1-1.109,3,2.721,2.721,0,0,1-4.335-.683,4.434,4.434,0,0,1-.514-2c.037-2.324.013-4.65.013-6.975Z" transform="translate(-30.323 0)" fill="#010101"/>
        <path id="Trazado_823000" data-name="Trazado 823000" d="M182.723,221.481a2.77,2.77,0,0,1-1.844,2.812,2.512,2.512,0,0,1-3.12-.88,13.439,13.439,0,0,1-1.281-2.019c-2.074-3.586-4.194-7.146-6.254-10.741a3.6,3.6,0,0,1-.505-3.347,2.882,2.882,0,0,1,3.252-1.607,3.3,3.3,0,0,1,2.285,2c.811,1.383,1.686,2.732,2.463,4.127.585,1.05,1.184,2.1,1.754,3.169.784,1.47,1.645,2.9,2.515,4.322a3.194,3.194,0,0,1,.735,2.164" transform="translate(-42.954 -52.119)" fill="#010101"/>
        <path id="Trazado_823001" data-name="Trazado 823001" d="M34.82,172.3a2.533,2.533,0,0,1-1.552,2.511c-2.776,1.631-5.569,3.231-8.358,4.841-1.474.851-2.94,1.719-4.432,2.54a2.579,2.579,0,0,1-3.012-.1,2.874,2.874,0,0,1-1.261-2.73,2.988,2.988,0,0,1,1.664-2.317q5.106-2.95,10.21-5.9c.885-.511,1.753-1.06,2.673-1.5A2.747,2.747,0,0,1,34.82,172.3" transform="translate(-4.102 -42.912)" fill="#010101"/>
        <path id="Trazado_823002" data-name="Trazado 823002" d="M10.073,125.348c-2.323,0-4.644.009-6.967,0a3.375,3.375,0,0,1-3.091-2.7,3.157,3.157,0,0,1,1.9-2.913,4.5,4.5,0,0,1,1.718-.331q6.689.007,13.377,0a5.278,5.278,0,0,1,1.46.225,2.794,2.794,0,0,1,2.019,3.132A2.707,2.707,0,0,1,18.3,125.17a20.235,20.235,0,0,1-4.323.175c-1.3.038-2.6.008-3.9.008Z" transform="translate(0 -30.258)" fill="#010101"/>
        <path id="Trazado_823003" data-name="Trazado 823003" d="M19.045,59.81c.841-.27,1.478.364,2.178.734A47.046,47.046,0,0,1,26,63.205c2.473,1.7,5.241,2.9,7.684,4.635a2.823,2.823,0,0,1,.808,3.628,2.924,2.924,0,0,1-3.315,1.379,9.108,9.108,0,0,1-2.069-1.053c-3.091-1.834-6.192-3.655-9.338-5.395a17.125,17.125,0,0,1-2.38-1.466,2.767,2.767,0,0,1-1.174-3.321c.39-1.181,1.268-1.748,2.829-1.8" transform="translate(-4.065 -15.142)" fill="#010101"/>
        <path id="Trazado_823004" data-name="Trazado 823004" d="M224.707,179.824a2.784,2.784,0,0,1-4.046,2.423c-1.868-.968-3.707-1.99-5.5-3.1-2.226-1.375-4.529-2.623-6.8-3.931a4.752,4.752,0,0,1-2.235-2.133,2.36,2.36,0,0,1,.46-2.614,2.491,2.491,0,0,1,2.871-1.08,25.89,25.89,0,0,1,4.718,2.52c2.885,1.648,5.753,3.327,8.635,4.981a3.076,3.076,0,0,1,1.894,2.933" transform="translate(-52.185 -42.897)" fill="#010101"/>
        <path id="Trazado_823005" data-name="Trazado 823005" d="M182.762,18.881a2.91,2.91,0,0,1-.648,2.012q-3.36,5.842-6.755,11.663A5.544,5.544,0,0,1,174.6,33.6a2.648,2.648,0,0,1-3.646.381,2.865,2.865,0,0,1-.935-3.76q3.183-5.578,6.428-11.121a7.186,7.186,0,0,1,1.838-2.629,2.766,2.766,0,0,1,3.089-.149,2.455,2.455,0,0,1,1.388,2.555" transform="translate(-42.998 -4.036)" fill="#010101"/>
        <path id="Trazado_823006" data-name="Trazado 823006" d="M221.887,59.833A2.806,2.806,0,0,1,223.57,65c-2.648,1.591-5.336,3.117-8.006,4.671-1.467.853-2.922,1.726-4.4,2.56-1.751.988-3.161.832-4.208-.425a3.132,3.132,0,0,1,.637-4.278c3.448-2.027,6.925-4.005,10.391-6,.593-.342,1.218-.635,1.778-1.024a3.233,3.233,0,0,1,2.125-.666" transform="translate(-52.305 -15.161)" fill="#010101"/>
        <path id="Trazado_823007" data-name="Trazado 823007" d="M62.988,15.968a2.463,2.463,0,0,1,2.46,1.53c2.408,4.32,4.9,8.593,7.364,12.883a3.092,3.092,0,0,1-.447,3.2,3.232,3.232,0,0,1-3.106.809,3.959,3.959,0,0,1-1.787-1.732c-2.353-4.131-4.746-8.241-7.118-12.362-1.228-2.134.027-4.315,2.634-4.323" transform="translate(-15.176 -4.044)" fill="#010101"/>
        <path id="Trazado_823008" data-name="Trazado 823008" d="M111.856,140.539a22.658,22.658,0,0,0,10.577-1.946c10.01-4.477,16.257-12.045,18.015-22.919,1.539-9.524-1.586-17.665-8.143-24.631a26.913,26.913,0,0,0-17.189-8.491,27.949,27.949,0,0,0-15.763,2.5c-1.315.654-2.582,1.408-3.855,2.146-1.586.919-3.206.669-4.093-.665a2.822,2.822,0,0,1,.916-4.171,38.7,38.7,0,0,1,5.962-3.221,29.837,29.837,0,0,1,7.388-2.11,31.407,31.407,0,0,1,10.918-.2,40.768,40.768,0,0,1,8.355,2.188,31.858,31.858,0,0,1,7.423,4.233,45.084,45.084,0,0,1,6.606,6.074,32.083,32.083,0,0,1,6.2,11.824,32.945,32.945,0,0,1,1.333,14.3c-.729,5.281-2.046,10.391-5.126,14.858a36.78,36.78,0,0,1-15.157,13.042,34.781,34.781,0,0,1-30.1-.514,33.25,33.25,0,0,1-7.22-4.8,34.69,34.69,0,0,1-11.82-21.493,27.561,27.561,0,0,1-.524-5.336,37.339,37.339,0,0,1,3.924-15.517,18.316,18.316,0,0,1,1.822-3.125,2.843,2.843,0,0,1,4.821.356,4.083,4.083,0,0,1-.364,3.737A30.056,30.056,0,0,0,83.4,104.5a35.05,35.05,0,0,0-.5,3.627,26.556,26.556,0,0,0-.209,4.956,28.675,28.675,0,0,0,7.575,17.955,24.481,24.481,0,0,0,4.255,3.982,30.377,30.377,0,0,0,12.389,5.174c1.664.264,3.308.2,4.949.34" transform="translate(-19.4 -19.372)" fill="#010101"/>
      </g>
    </g>
  </g>
</svg>
