<svg xmlns="http://www.w3.org/2000/svg" xmlns:xlink="http://www.w3.org/1999/xlink" width="190" height="190" viewBox="0 0 190 190">
  <defs>
    <clipPath id="clip-path">
      <rect id="Rect치ngulo_378120" data-name="Rect치ngulo 378120" width="190" height="190" transform="translate(390 3210.432)" fill="none" stroke="#707070" stroke-width="1"/>
    </clipPath>
    <clipPath id="clip-path-2">
      <rect id="Rect치ngulo_378122" data-name="Rect치ngulo 378122" width="169.42" height="164.099" fill="none"/>
    </clipPath>
  </defs>
  <g id="Enmascarar_grupo_396" data-name="Enmascarar grupo 396" transform="translate(-390 -3210.432)" clip-path="url(#clip-path)">
    <g id="Grupo_1073830" data-name="Grupo 1073830" transform="translate(405 3225.765)">
      <g id="Grupo_1073829" data-name="Grupo 1073829" clip-path="url(#clip-path-2)">
        <path id="Trazado_823050" data-name="Trazado 823050" d="M41.277,160.89c-.869,2.091-2.4,2.9-4.754,2.366-.983-.225-1.964-.12-2.945-.25-2.9-.385-5.831-.519-8.746-.811-2.472-.247-4.937-.561-7.394-.88-2.441-.317-4.891-.676-7.306-1.2-1.051-.228-2.146-.271-3.206-.514A7.915,7.915,0,0,1,.98,152.95c-.142-2.2-.18-4.4-.366-6.585-.152-1.8-.017-3.595-.242-5.392-.124-1,.067-2.053-.032-3.076C.1,135.431.258,132.958.166,130.49-.086,123.684,0,116.877.094,110.07c.04-2.91-.03-5.822.087-8.729.1-2.483.24-4.967.344-7.452.081-1.952.186-3.91.337-5.857.136-1.752.158-3.518.449-5.262.148-.884.025-1.784.156-2.689.274-1.9.374-3.821.535-5.735.17-2.017.432-4.025.621-6.038.155-1.648.367-3.291.573-4.93.274-2.175.557-4.351.92-6.518.267-1.6.464-3.209.725-4.81.224-1.368.543-2.72.723-4.1.2-1.543.5-3.074.774-4.609.182-1.04.38-2.079.574-3.117.488-2.606,1.163-5.173,1.625-7.788A18.844,18.844,0,0,0,8,25.248c-.341-1.66-.567-3.348-1.022-4.977A18.84,18.84,0,0,1,6.5,15.092c0-2.7-.068-5.4.039-8.09A7.4,7.4,0,0,1,13.223.142,30.969,30.969,0,0,1,16.938.007q49.117-.013,98.235,0c2.6,0,5.028.553,6.789,2.591a7.665,7.665,0,0,1,1.929,4.379c.233,2.4.031,4.789.147,7.18.168,3.429-.646,6.72-1.411,10.028a24.1,24.1,0,0,0-.733,8.552,3.7,3.7,0,0,0,.558,2.066c.341.436-.01,1.206.215,1.84.545,1.535.638,3.172,1.05,4.75.3,1.139.362,2.37.653,3.538.218.874.317,1.77.564,2.645.144.511.139,1.2.284,1.778.472,1.872.483,3.8.887,5.69.291,1.363.415,2.8.616,4.2a30.386,30.386,0,0,0,.7,4.559,13.212,13.212,0,0,1,.083,1.649c.293,1.943.533,3.9.673,5.856a25.475,25.475,0,0,0,.4,3.833,32.88,32.88,0,0,1,.255,3.447c.157,1.275.285,2.568.359,3.857.13,2.244.141,4.5.365,6.732.2,2.022.154,4.054.35,6.063.224,2.3.18,4.605.323,6.9a40.892,40.892,0,0,1,.027,6.183c-.09,1.013.149,2.1.165,3.15.054,3.6.189,7.2-.069,10.8-.05.7.2.812.868.812q17.277-.032,34.553-.017a4.928,4.928,0,0,1,2,.332,2.782,2.782,0,0,1,1.59,3.168,14.908,14.908,0,0,1-1.265,4.6,12.8,12.8,0,0,1-7.744,6.528,15.614,15.614,0,0,1-4.791.759c-8.179,0-16.359.01-24.538-.02-.831,0-1.055.242-1,1a68.589,68.589,0,0,1-.19,6.931c-.073,2.165-.146,4.336-.314,6.5a7.537,7.537,0,0,1-5.162,6.451,42.787,42.787,0,0,1-5.438,1.073c-2.067.406-4.172.627-6.257.957-1.984.314-4,.43-6,.667-1.565.185-3.12.469-4.689.615-.679.063-1.364.165-2.041.171-2.153.02-4.284.373-6.438.351a3.177,3.177,0,0,0-1.088.275,13.288,13.288,0,0,1-4.611.649q-15.4.066-30.8,0a10.1,10.1,0,0,1-3.87-.84,25.987,25.987,0,0,1-3.323-1.83,2.251,2.251,0,0,0-.974-.364c.079-.446-.267-.673-.534-.93a11.956,11.956,0,0,1-3.443-6.1c-.424-1.858-.825-3.72-1.23-5.582-.075-.349-.111-.7-.623-.685a51.275,51.275,0,0,1-6.421-.632,91.4,91.4,0,0,1-9.255-1.533,23.824,23.824,0,0,1-4.754-1.119,7.979,7.979,0,0,1-5.191-8.392c.069-1.06.045-2.12.135-3.176s.017-2.111.169-3.116c.211-1.4.159-2.795.285-4.186.194-2.135.226-4.287.345-6.431q.168-3.059.331-6.117c.122-2.356.205-4.714.345-7.07.122-2.062.246-4.124.327-6.187.073-1.831.21-3.662.232-5.5.015-1.213.045-2.441.155-3.651.234-2.586.422-5.177.457-7.765.023-1.7.279-3.383.268-5.092-.017-2.509.4-5.02.4-7.53,0-1.761.219-3.5.272-5.257.065-2.158.226-4.328.374-6.491.165-2.406.248-4.82.355-7.23.076-1.7.143-3.406.251-5.1a22.463,22.463,0,0,1,.264-3.7c.972-4.211,3.96-6.562,8.441-6.562q33.221,0,66.443,0a26.731,26.731,0,0,1,4.143.145,8.19,8.19,0,0,1,4.94,2.574,8.287,8.287,0,0,1,2,5.648c.065,2.121.206,4.236.321,6.355.118,2.2.249,4.395.34,6.592.086,2.091.211,4.178.329,6.268.124,2.2.23,4.4.343,6.594q.162,3.175.325,6.35c.114,2.144.234,4.287.341,6.432.1,2.091.217,4.182.323,6.273.11,2.172.237,4.343.343,6.514.1,2.144.262,4.288.319,6.428.079,3,.42,5.991.405,9a23,23,0,0,0,.166,3.008c.3,2.308-.153,3.132-2.4,3.9a2.717,2.717,0,0,1-2.693-2.152,20.245,20.245,0,0,1-.413-4.384c-.171-2.049-.3-4.112-.349-6.168-.083-3.253-.307-6.493-.5-9.738-.136-2.241-.222-4.487-.337-6.73-.1-2.031-.24-4.061-.331-6.091-.11-2.46-.19-4.921-.347-7.38-.114-1.791-.214-3.583-.322-5.375-.153-2.564-.156-5.138-.353-7.7-.129-1.681-.23-3.366-.307-5.047-.108-2.4-.234-4.8-.364-7.194-.122-2.269-.151-4.544-.346-6.806a1.919,1.919,0,0,0-1.881-2.013,27.279,27.279,0,0,0-4.125-.152q-33.261-.025-66.523-.01a2.582,2.582,0,0,0-2.716,2.341c-.071,2.758-.393,5.5-.5,8.252-.083,2.088-.269,4.174-.309,6.256-.048,2.548-.393,5.072-.4,7.621-.009,2.407-.214,4.813-.307,7.219-.055,1.431-.285,2.844-.229,4.294.065,1.682-.175,3.374-.276,5.063-.116,1.925-.146,3.86-.381,5.772-.075.619.317,1.273,0,1.743-.421.63-.134,1.181-.127,1.769.011.82-.1,1.638-.13,2.451-.094,2.224-.255,4.444-.341,6.666-.077,2.01-.238,4.016-.3,6.02-.1,2.916-.4,5.82-.414,8.74-.007,1.105-.084,2.225-.146,3.337-.142,2.53-.327,5.059-.486,7.589-.063,1-.054,2.008-.133,3.015-.216,2.747-.26,5.507-.369,8.262a2.253,2.253,0,0,0,1.218,2,4.56,4.56,0,0,0,1.744.552c2.853.6,5.72,1.161,8.6,1.629,2.445.4,4.915.646,7.375.964.391.05.512-.08.476-.456-.125-1.319-.622-2.56-.813-3.876-.274-1.887-.832-3.736-1.264-5.6-.5-2.161-1.057-4.312-1.469-6.488a2.411,2.411,0,0,1,1.9-2.938,11.787,11.787,0,0,1,2.955-.159c.449-.006.7-.024.826-.6a14.423,14.423,0,0,1,2.032-4.953,16.106,16.106,0,0,1,7.538-6.018A8.039,8.039,0,0,0,57.91,108c.413-.723.8-1.461,1.185-2.2a14.529,14.529,0,0,1,4.087-4.9,15.745,15.745,0,0,1,11.541-3.344,18.061,18.061,0,0,1,5.643,1.487,15.311,15.311,0,0,1,6.906,6.511,9.571,9.571,0,0,0,3.8,3.843A16.522,16.522,0,0,1,96.9,114.18a15.589,15.589,0,0,1,2.29,4.36,23.3,23.3,0,0,1,.77,4.057c.055.378.153.475.542.472,3.116-.024,6.231-.027,9.347-.037,4.921.012,9.844.017,14.765.043.5,0,.657-.2.582-.621a12.139,12.139,0,0,1-.011-2.008c-.093-6.983.025-13.969-.449-20.95-.134-1.979-.168-3.981-.226-5.972q-.135-4.6-.619-9.182c-.176-1.678-.223-3.374-.34-5.061-.152-2.191-.437-4.371-.564-6.565-.117-2.03-.441-4.051-.679-6.074-.347-2.941-.785-5.873-1.141-8.814-.23-1.909-.628-3.794-.889-5.7-.335-2.456-.806-4.9-1.282-7.334q-1-5.136-2.11-10.255a18.949,18.949,0,0,1-.312-6.192c.278-2.372.908-4.706,1.413-7.052.139-.644-.062-.8-.734-.8-4.59.028-9.178.014-13.768.014-2.159,0-2.942-.563-3.534-2.537a2.836,2.836,0,0,1,3.159-2.624q7.428-.009,14.856.009c.522,0,.707-.095.7-.642-.032-2.136.008-4.272-.008-6.409a3.277,3.277,0,0,0-.471-1.792,3.182,3.182,0,0,0-2.915-1.365q-39.519-.009-79.038,0-10.683,0-21.366.017c-1.948,0-2.985,1.01-2.987,2.867,0,2.136.046,4.274-.025,6.408-.027.809.238.925,1.006.925q39.228-.031,78.455-.017c2.036,0,2.957.7,3.389,2.583-.307.81-.465,1.7-1.374,2.168a4.438,4.438,0,0,1-2.092.417q-35.177-.01-70.352-.005c-2.587,0-5.175.021-7.761-.008-.59-.006-.722.177-.61.689Q13.1,23.87,13.6,26.563a19.753,19.753,0,0,1,.224,7.006c-.443,2.575-1.046,5.126-1.566,7.69-.472,2.33-.983,4.654-1.376,7-.605,3.611-1.129,7.236-1.678,10.855-.241,1.589-.512,3.176-.675,4.773s-.44,3.182-.558,4.787c-.124,1.7-.474,3.386-.61,5.086-.148,1.839-.333,3.674-.5,5.51-.26,2.9-.414,5.8-.652,8.7-.174,2.109-.248,4.233-.335,6.349-.111,2.732-.3,5.467-.323,8.2-.034,3.418-.171,6.835-.176,10.254-.016,9.472.019,18.942.46,28.407.08,1.726.017,3.452.126,5.183a45.361,45.361,0,0,1,.217,5.661,1.555,1.555,0,0,0,.1.615c.53,1.527,1.533,2.129,3.473,2.339,2.21.239,4.4.635,6.6.952q2.241.324,4.487.617c1.247.163,2.5.308,3.746.455,1.067.124,2.132.26,3.2.353,1.506.131,3.026.158,4.521.357a56.932,56.932,0,0,0,5.742.412c1.881.058,3.215,1.014,3.225,2.776m63.029-18.222.023.007-.021-.034a9.819,9.819,0,0,0-.48,1.1c-.741,2.439-1.095,4.958-1.641,7.437-.438,1.987-.686,4.025-1.841,5.8-.3.467.051.575.422.517.658-.1,1.324-.089,1.977-.163,3.429-.39,6.853-.823,10.276-1.255,3.077-.388,6.142-.855,9.184-1.446a2.458,2.458,0,0,0,2-2.154,43.16,43.16,0,0,0,.262-5.153c.113-2.708.317-5.419.246-8.135-.015-.567-.1-.765-.759-.76-4.2.033-8.4.019-12.6.014a2.857,2.857,0,0,0-1.2.2,7.418,7.418,0,0,0-5.808,3.978ZM44.6,128.215c.221,1.783.763,3.428,1.049,5.128.351,2.093.979,4.142,1.443,6.218.431,1.932.762,3.892,1.244,5.807.569,2.26,1.13,4.525,1.553,6.805a8.153,8.153,0,0,0,8.245,6.764c9.959-.032,19.919-.011,29.879-.008a10.582,10.582,0,0,0,2.132-.167,7.574,7.574,0,0,0,5.712-4.43,24.742,24.742,0,0,0,1.279-5.387c.365-1.737.667-3.5,1.065-5.22a11.843,11.843,0,0,1,3.373-6.2,15.736,15.736,0,0,1,2.933-2.433,14.41,14.41,0,0,1,7.146-1.766c14.689-.029,29.378,0,44.066.012a9.848,9.848,0,0,0,1.712-.151,7.921,7.921,0,0,0,5.8-4.1c.408-.724.308-.867-.532-.867H44.6m27.506-5.153c7.23,0,14.461-.017,21.691.023.824,0,.959-.3.822-.909a13.992,13.992,0,0,0-.837-3.062,11.268,11.268,0,0,0-5.123-5.26A14.562,14.562,0,0,1,82.63,107.9a10.674,10.674,0,0,0-11.05-5.169,10.236,10.236,0,0,0-8.255,6.317,13.055,13.055,0,0,1-7.278,7.007,10.438,10.438,0,0,0-6.127,6.019c-.317.815-.395,1.009.665,1.006,7.175-.024,14.35-.013,21.524-.014" transform="translate(0 0)"/>
        <path id="Trazado_823051" data-name="Trazado 823051" d="M43.948,170.831c-.009-1.762-1.344-2.718-3.224-2.777a56.569,56.569,0,0,1-5.742-.412c-1.5-.2-3.015-.225-4.521-.356-1.07-.093-2.136-.229-3.2-.354-1.249-.146-2.5-.291-3.745-.455q-2.246-.293-4.487-.616c-2.2-.318-4.392-.714-6.6-.953-1.941-.21-2.943-.812-3.474-2.339a1.551,1.551,0,0,1-.1-.615,45.35,45.35,0,0,0-.217-5.66c-.11-1.731-.046-3.458-.126-5.184-.441-9.464-.476-18.934-.46-28.406.005-3.42.143-6.836.176-10.255.027-2.729.213-5.464.324-8.2.085-2.116.161-4.24.334-6.348.238-2.9.393-5.8.653-8.7.165-1.837.351-3.672.5-5.511.136-1.7.486-3.385.61-5.086.118-1.605.395-3.189.557-4.787s.433-3.184.675-4.774c.549-3.62,1.073-7.243,1.678-10.855.393-2.343.9-4.667,1.376-7,.52-2.564,1.123-5.113,1.565-7.69a19.737,19.737,0,0,0-.224-7.006q-.5-2.693-1.083-5.369c-.111-.512.02-.7.611-.689,2.587.029,5.174.008,7.761.008q35.176,0,70.352,0A4.421,4.421,0,0,0,96,30.04c.91-.467,1.068-1.357,1.374-2.168,1.749,0,3.5-.074,5.247.042.592,1.975,1.375,2.537,3.535,2.538,4.589,0,9.178.013,13.767-.014.673,0,.873.152.734.8-.506,2.345-1.135,4.68-1.413,7.052a18.95,18.95,0,0,0,.313,6.192q1.1,5.118,2.11,10.255c.476,2.436.947,4.877,1.282,7.334.261,1.907.659,3.792.89,5.7.355,2.941.794,5.873,1.141,8.814.238,2.023.563,4.044.68,6.074.126,2.2.411,4.374.564,6.565.117,1.688.164,3.384.341,5.061q.483,4.585.619,9.183c.059,1.991.092,3.993.226,5.972.474,6.98.355,13.966.449,20.95a12,12,0,0,0,.011,2.008c.075.419-.078.622-.582.62-4.922-.026-9.844-.032-14.766-.043a3.714,3.714,0,0,1-.171-1.172,22.372,22.372,0,0,0-.2-3.885c2.243-.764,2.693-1.588,2.4-3.9a22.9,22.9,0,0,1-.166-3.009c.015-3.008-.326-6-.405-9-.057-2.141-.214-4.285-.319-6.428-.106-2.172-.234-4.342-.343-6.514-.106-2.091-.218-4.182-.323-6.274-.106-2.144-.227-4.288-.341-6.432q-.168-3.174-.325-6.349c-.113-2.2-.219-4.4-.343-6.594-.118-2.089-.242-4.176-.329-6.268-.091-2.2-.222-4.4-.34-6.592-.114-2.118-.256-4.233-.321-6.355a8.282,8.282,0,0,0-2-5.647,8.188,8.188,0,0,0-4.94-2.574,26.569,26.569,0,0,0-4.143-.145q-33.221-.01-66.443,0c-4.48,0-7.469,2.351-8.441,6.563a22.523,22.523,0,0,0-.264,3.7c-.108,1.693-.175,3.4-.25,5.1-.108,2.41-.191,4.825-.355,7.23-.148,2.162-.309,4.333-.374,6.49-.053,1.754-.274,3.5-.272,5.258,0,2.51-.413,5.021-.4,7.53.011,1.709-.244,3.389-.267,5.092-.036,2.588-.224,5.18-.458,7.766-.11,1.21-.14,2.438-.154,3.651-.023,1.837-.16,3.668-.232,5.5-.081,2.062-.206,4.125-.328,6.186-.14,2.356-.222,4.714-.345,7.07q-.158,3.059-.332,6.117c-.118,2.145-.15,4.3-.344,6.432-.126,1.391-.074,2.788-.286,4.186-.152,1-.08,2.075-.168,3.116s-.067,2.116-.135,3.176a7.978,7.978,0,0,0,5.191,8.392A23.764,23.764,0,0,0,30,155.51a91.583,91.583,0,0,0,9.255,1.533,51.274,51.274,0,0,0,6.421.631c.513-.017.548.336.624.685.4,1.862.805,3.724,1.23,5.582a11.957,11.957,0,0,0,3.442,6.1c.268.257.614.484.535.93a6.322,6.322,0,0,1-2.782.158c-1.595-.044-3.186-.194-4.779-.3" transform="translate(-2.671 -9.941)" fill="#71abff"/>
        <path id="Trazado_823052" data-name="Trazado 823052" d="M120.773,140.749a22.372,22.372,0,0,1,.2,3.885,3.721,3.721,0,0,0,.171,1.173c-3.116.009-6.231.012-9.347.037-.389,0-.487-.094-.542-.473a23.3,23.3,0,0,0-.77-4.056,15.58,15.58,0,0,0-2.29-4.36,16.523,16.523,0,0,0-5.831-4.777,9.569,9.569,0,0,1-3.8-3.842,15.308,15.308,0,0,0-6.906-6.511,18.044,18.044,0,0,0-5.643-1.487,15.745,15.745,0,0,0-11.541,3.344,14.527,14.527,0,0,0-4.087,4.895c-.389.736-.773,1.474-1.185,2.2a8.038,8.038,0,0,1-4.082,3.5,16.106,16.106,0,0,0-7.538,6.018,14.425,14.425,0,0,0-2.032,4.953c-.124.574-.377.592-.826.6a11.779,11.779,0,0,0-2.954.16,2.411,2.411,0,0,0-1.9,2.938c.411,2.176.969,4.328,1.469,6.488.432,1.866.99,3.715,1.264,5.6.191,1.316.688,2.557.813,3.876.035.376-.085.507-.476.456-2.459-.318-4.929-.567-7.374-.964-2.881-.467-5.748-1.026-8.6-1.629a4.562,4.562,0,0,1-1.744-.551,2.255,2.255,0,0,1-1.218-2c.11-2.755.154-5.515.369-8.262.079-1.008.069-2.011.133-3.015.159-2.53.343-5.058.486-7.589.062-1.112.14-2.231.146-3.337.017-2.92.317-5.825.414-8.74.067-2,.228-4.01.3-6.02.085-2.222.246-4.442.341-6.666.034-.813.141-1.631.13-2.451-.007-.588-.294-1.138.128-1.769.313-.469-.079-1.124,0-1.742.234-1.912.265-3.847.381-5.773.1-1.688.341-3.38.276-5.063-.055-1.449.174-2.862.229-4.293.092-2.407.3-4.813.307-7.219.009-2.548.354-5.074.4-7.621.039-2.082.226-4.168.309-6.256.11-2.752.433-5.493.5-8.252a2.582,2.582,0,0,1,2.716-2.34q33.261,0,66.523.01a27.291,27.291,0,0,1,4.125.152,1.918,1.918,0,0,1,1.881,2.012c.2,2.262.224,4.537.346,6.806.13,2.4.256,4.8.365,7.195.075,1.681.178,3.366.307,5.047.2,2.566.2,5.139.353,7.7.107,1.791.207,3.583.321,5.374.157,2.46.236,4.92.347,7.38.091,2.03.226,4.06.331,6.091.116,2.244.2,4.489.337,6.73.2,3.245.42,6.486.5,9.739.053,2.056.179,4.119.35,6.168a20.248,20.248,0,0,0,.413,4.384,2.717,2.717,0,0,0,2.693,2.151M64.542,75.981A6.923,6.923,0,0,0,58.9,78.05a5.969,5.969,0,0,0-1.374,6.488,9.252,9.252,0,0,0,2.8,4.265c.52.418.681.732.052,1.224a9.371,9.371,0,0,0-2.217,2.77,8.154,8.154,0,0,0-.72,6.084c.081.381.4.523.578.794a7.308,7.308,0,0,0,6.148,3.381,15.915,15.915,0,0,0,4.021-.552c.4-.087.608-.186.743.331a19.873,19.873,0,0,0,.795,2.17,7.408,7.408,0,0,0,5.117,4.766,5.763,5.763,0,0,0,3.862-.21,6.984,6.984,0,0,0,3.132-2.141,12.492,12.492,0,0,0,2.231-4.517c.108-.452.237-.507.719-.39,2.3.565,4.614.88,6.909-.089a6.387,6.387,0,0,0,4.218-6.286,9.692,9.692,0,0,0-3.369-6.265c-.379-.349-.359-.474-.04-.787A11.816,11.816,0,0,0,95.471,84.7a6.2,6.2,0,0,0-.118-4.82c-1.179-2.631-3.486-3.712-6.326-3.9a13.35,13.35,0,0,0-4.081.419c-.351.086-.757.231-.879-.373a10.128,10.128,0,0,0-1.461-3.466,6.96,6.96,0,0,0-7.757-3.32,6.247,6.247,0,0,0-3.386,1.836,10.2,10.2,0,0,0-2.505,4.774c-.172.721-.614.607-1.08.51a11.609,11.609,0,0,0-3.335-.376" transform="translate(-11.295 -22.775)" fill="#f8f9fb"/>
        <path id="Trazado_823053" data-name="Trazado 823053" d="M66.785,199.388h118.1c.84,0,.94.143.532.867a7.922,7.922,0,0,1-5.8,4.1,9.848,9.848,0,0,1-1.712.151c-14.689-.01-29.377-.041-44.066-.012a14.41,14.41,0,0,0-7.146,1.766,15.737,15.737,0,0,0-2.933,2.433,11.843,11.843,0,0,0-3.373,6.2c-.4,1.723-.7,3.483-1.065,5.22a24.742,24.742,0,0,1-1.279,5.387,7.575,7.575,0,0,1-5.712,4.43,10.582,10.582,0,0,1-2.132.167c-9.96,0-19.92-.023-29.879.008a8.153,8.153,0,0,1-8.245-6.764c-.423-2.28-.985-4.546-1.553-6.805-.482-1.914-.812-3.874-1.244-5.807-.463-2.076-1.091-4.125-1.443-6.218-.286-1.7-.828-3.344-1.049-5.128" transform="translate(-22.182 -71.173)" fill="#f8f9fb"/>
        <path id="Trazado_823054" data-name="Trazado 823054" d="M105.848,20.832c-1.748-.117-3.5-.04-5.247-.042-.432-1.879-1.353-2.583-3.389-2.583q-39.227,0-78.454.017c-.767,0-1.033-.116-1.006-.924.071-2.134.021-4.272.025-6.409,0-1.858,1.039-2.864,2.987-2.867q10.683-.017,21.366-.017,39.52,0,79.039,0a3.182,3.182,0,0,1,2.914,1.365,3.265,3.265,0,0,1,.47,1.792c.016,2.136-.024,4.273.009,6.409.007.547-.178.644-.7.642q-7.427-.028-14.856-.01a2.836,2.836,0,0,0-3.159,2.624" transform="translate(-5.896 -2.858)" fill="#f8f9fb"/>
        <path id="Trazado_823055" data-name="Trazado 823055" d="M96.832,180.016c-7.175,0-14.35-.012-21.524.013-1.06,0-.982-.19-.665-1.006A10.436,10.436,0,0,1,80.769,173,13.057,13.057,0,0,0,88.047,166a10.238,10.238,0,0,1,8.255-6.317,10.676,10.676,0,0,1,11.051,5.169,14.56,14.56,0,0,0,6.031,5.957,11.268,11.268,0,0,1,5.123,5.26,13.991,13.991,0,0,1,.837,3.062c.137.613,0,.914-.822.909-7.23-.04-14.46-.023-21.691-.023m3.673-15.411c.221-1.479-1.045-2.477-2.543-2.505a2.617,2.617,0,0,0-2.631,2.561,2.652,2.652,0,0,0,2.585,2.54,2.437,2.437,0,0,0,2.588-2.6m-8.013,10.238c0-1.481-.909-2.243-2.432-2.385a2.508,2.508,0,0,0-2.762,2.436,2.681,2.681,0,0,0,2.635,2.568,2.456,2.456,0,0,0,2.559-2.618m13.487-4.918a2.465,2.465,0,0,0-2.633,2.458,2.62,2.62,0,0,0,2.653,2.51,2.67,2.67,0,0,0,2.518-2.878c-.021-1.293-1.02-2.116-2.539-2.09" transform="translate(-24.723 -56.954)" fill="#fff"/>
        <path id="Trazado_823056" data-name="Trazado 823056" d="M160,215.494a2.858,2.858,0,0,1,1.2-.2c4.2.005,8.4.019,12.6-.014.656-.005.745.194.759.76.071,2.716-.134,5.427-.246,8.135a43.163,43.163,0,0,1-.261,5.153,2.459,2.459,0,0,1-2,2.154c-3.043.591-6.107,1.058-9.184,1.446-3.424.432-6.848.865-10.277,1.255-.653.074-1.319.06-1.977.163-.371.058-.725-.05-.422-.517,1.156-1.779,1.4-3.818,1.841-5.8.547-2.48.9-5,1.641-7.437a10.008,10.008,0,0,1,.48-1.1l0,.026.041-.041a7.637,7.637,0,0,0,2.79-.732A4.486,4.486,0,0,0,160,215.494" transform="translate(-49.847 -76.845)" fill="#71abff"/>
        <path id="Trazado_823057" data-name="Trazado 823057" d="M162.048,215.614a4.486,4.486,0,0,1-3.018,3.245,7.637,7.637,0,0,1-2.79.732,7.415,7.415,0,0,1,5.808-3.978" transform="translate(-51.894 -76.965)" fill="#f8f9fb"/>
        <path id="Trazado_823058" data-name="Trazado 823058" d="M156.178,221.849l0-.026.021.033Z" transform="translate(-51.873 -79.181)" fill="#f8f9fb"/>
        <path id="Trazado_823059" data-name="Trazado 823059" d="M76.031,78.9a11.582,11.582,0,0,1,3.335.377c.467.1.909.21,1.081-.51a10.2,10.2,0,0,1,2.5-4.775,6.246,6.246,0,0,1,3.387-1.835,6.959,6.959,0,0,1,7.757,3.319,10.13,10.13,0,0,1,1.461,3.467c.122.6.528.458.879.372a13.352,13.352,0,0,1,4.082-.419c2.84.192,5.147,1.273,6.326,3.9a6.2,6.2,0,0,1,.118,4.82,11.825,11.825,0,0,1-2.965,4.385c-.319.313-.339.437.04.787a9.692,9.692,0,0,1,3.369,6.265,6.387,6.387,0,0,1-4.219,6.285c-2.295.969-4.606.654-6.909.089-.481-.118-.61-.063-.718.389a12.472,12.472,0,0,1-2.231,4.517,6.971,6.971,0,0,1-3.131,2.141,5.763,5.763,0,0,1-3.862.21,7.407,7.407,0,0,1-5.117-4.765,20.066,20.066,0,0,1-.8-2.17c-.134-.517-.338-.419-.743-.331a15.934,15.934,0,0,1-4.02.552,7.31,7.31,0,0,1-6.148-3.381c-.178-.271-.5-.412-.578-.794a8.157,8.157,0,0,1,.719-6.084,9.392,9.392,0,0,1,2.218-2.77c.628-.491.467-.806-.052-1.223a9.246,9.246,0,0,1-2.8-4.265,5.969,5.969,0,0,1,1.373-6.488A6.925,6.925,0,0,1,76.031,78.9M85.4,102.1a7.385,7.385,0,0,0,.332,3.113,4.1,4.1,0,0,0,1.578,2.275,1.18,1.18,0,0,0,1.588-.073,4.472,4.472,0,0,0,1.492-2.528,17.228,17.228,0,0,0,.331-3.777,2.426,2.426,0,0,1,2.6-2.512,2.929,2.929,0,0,1,1.772.574,8.975,8.975,0,0,0,4.918,1.665c1.847.037,2.514-1.086,1.675-2.656a6.965,6.965,0,0,0-1.869-2.123C99,95.4,98,95.019,97.132,94.451a2.414,2.414,0,0,1,.14-4.29c.453-.257.944-.453,1.4-.714a6.544,6.544,0,0,0,3.139-3.3c.42-1.135-.057-2.006-1.2-2.114a7.283,7.283,0,0,0-4.487.882A16.8,16.8,0,0,1,94.1,86.042a2.556,2.556,0,0,1-3.4-1.92,8.684,8.684,0,0,1-.029-1.437,7.219,7.219,0,0,0-1.327-4.854,1.55,1.55,0,0,0-2.632-.053,5.738,5.738,0,0,0-1.165,2.51A14.8,14.8,0,0,0,85.4,83.7a2.5,2.5,0,0,1-1.548,2.269,2.39,2.39,0,0,1-2.667-.306,8.689,8.689,0,0,0-5.611-1.651c-1.239.073-1.831.8-1.442,1.921a6.176,6.176,0,0,0,2.716,3.142c.622.4,1.311.7,1.951,1.068a2.417,2.417,0,0,1,.08,4.378c-.275.175-.59.293-.882.446a7.235,7.235,0,0,0-3.84,3.818c-.344.95-.083,1.416.847,1.862a4.25,4.25,0,0,0,2.585-.037,9.284,9.284,0,0,0,3.674-1.588,2.7,2.7,0,0,1,4.045,1.2,10.953,10.953,0,0,1,.1,1.868" transform="translate(-22.784 -25.695)"/>
        <path id="Trazado_823060" data-name="Trazado 823060" d="M110.9,166.02a2.438,2.438,0,0,1-2.588,2.6,2.652,2.652,0,0,1-2.585-2.54,2.617,2.617,0,0,1,2.631-2.561c1.5.028,2.764,1.026,2.543,2.505" transform="translate(-35.116 -58.368)"/>
        <path id="Trazado_823061" data-name="Trazado 823061" d="M98.888,182a2.455,2.455,0,0,1-2.559,2.618,2.68,2.68,0,0,1-2.634-2.568,2.508,2.508,0,0,1,2.761-2.436c1.523.141,2.434.9,2.432,2.385" transform="translate(-31.119 -64.112)"/>
        <path id="Trazado_823062" data-name="Trazado 823062" d="M120.358,175.683c1.518-.026,2.517.8,2.539,2.09a2.671,2.671,0,0,1-2.518,2.878,2.62,2.62,0,0,1-2.653-2.51,2.465,2.465,0,0,1,2.633-2.458" transform="translate(-39.101 -62.711)"/>
        <path id="Trazado_823063" data-name="Trazado 823063" d="M88.1,104.922a11.088,11.088,0,0,0-.1-1.868,2.7,2.7,0,0,0-4.045-1.2,9.292,9.292,0,0,1-3.675,1.588,4.253,4.253,0,0,1-2.584.037c-.93-.447-1.191-.912-.847-1.863a7.234,7.234,0,0,1,3.84-3.818c.292-.152.606-.271.882-.446a2.417,2.417,0,0,0-.08-4.378c-.64-.372-1.329-.672-1.952-1.068a6.187,6.187,0,0,1-2.716-3.142c-.389-1.122.2-1.848,1.442-1.921a8.684,8.684,0,0,1,5.611,1.651,2.39,2.39,0,0,0,2.668.305,2.5,2.5,0,0,0,1.548-2.269,14.761,14.761,0,0,1,.158-3.413A5.739,5.739,0,0,1,89.41,80.6a1.549,1.549,0,0,1,2.631.053,7.217,7.217,0,0,1,1.328,4.853,8.764,8.764,0,0,0,.029,1.438,2.557,2.557,0,0,0,3.4,1.92,16.752,16.752,0,0,0,2.012-1.123,7.291,7.291,0,0,1,4.488-.883c1.147.109,1.625.979,1.2,2.114a6.54,6.54,0,0,1-3.138,3.3c-.451.261-.942.457-1.4.714a2.414,2.414,0,0,0-.141,4.289c.872.569,1.866.946,2.685,1.6a6.963,6.963,0,0,1,1.87,2.122c.839,1.571.172,2.694-1.675,2.656a8.972,8.972,0,0,1-4.919-1.664,2.921,2.921,0,0,0-1.771-.574,2.425,2.425,0,0,0-2.6,2.511,17.234,17.234,0,0,1-.331,3.778,4.471,4.471,0,0,1-1.491,2.528,1.18,1.18,0,0,1-1.588.074,4.1,4.1,0,0,1-1.578-2.275,7.374,7.374,0,0,1-.332-3.113m5.149-9.73c.193-1.563-1.049-2.462-2.6-2.542a2.549,2.549,0,1,0,.06,5.1,2.431,2.431,0,0,0,2.536-2.554" transform="translate(-25.475 -28.52)" fill="#beff31"/>
        <path id="Trazado_823064" data-name="Trazado 823064" d="M98.9,102.268a2.431,2.431,0,0,1-2.536,2.554,2.549,2.549,0,1,1-.06-5.1c1.547.08,2.789.979,2.6,2.542" transform="translate(-31.131 -35.597)"/>
      </g>
    </g>
  </g>
</svg>
